ISO-10303-21;
HEADER;
/* Generated by software containing ST-Developer
 * from STEP Tools, Inc. (www.steptools.com) 
 */
/* OPTION: using custom renumber hook */

FILE_DESCRIPTION(
/* description */ ('STEP AP242 Edition 2',
'CAx-IF Rec.Pracs.---Representation and Presentation of Product Manufa
cturing Information (PMI)---4.0---2014-10-13',
'CAx-IF Rec.Pracs.---3D Tessellated Geometry---0.4---2014-09-14','2;1',
'CAx-IF Rec.Pracs.---User Defined Attributes---1.5---2016-08-15'),
/* implementation_level */ '2;1');

FILE_NAME(
/* name */ 'turtle_big - turtle_big',
/* time_stamp */ '2026-04-11T18:10:29Z',
/* author */ (''),
/* organization */ (''),
/* preprocessor_version */ 'ST-DEVELOPER v20',
/* originating_system */ 'ONSHAPE BY PTC INC, 1.213',
/* authorisation */ '  ');

FILE_SCHEMA (('AP242_MANAGED_MODEL_BASED_3D_ENGINEERING_MIM_LF { 1 0 10303 442 3 1 4 }'));
ENDSEC;

DATA;
#10=SHAPE_REPRESENTATION_RELATIONSHIP('','',#395,#11);
#11=ADVANCED_BREP_SHAPE_REPRESENTATION('',(#393),#641);
#12=CYLINDRICAL_SURFACE('',#407,0.02105);
#13=CYLINDRICAL_SURFACE('',#412,0.02105);
#14=CYLINDRICAL_SURFACE('',#419,0.02105);
#15=CYLINDRICAL_SURFACE('',#424,0.02105);
#16=CIRCLE('',#404,0.02105);
#17=CIRCLE('',#405,0.02105);
#18=CIRCLE('',#408,0.02105);
#19=CIRCLE('',#413,0.02105);
#20=CIRCLE('',#416,0.02105);
#21=CIRCLE('',#417,0.02105);
#22=CIRCLE('',#420,0.02105);
#23=CIRCLE('',#425,0.02105);
#24=ORIENTED_EDGE('',*,*,#128,.F.);
#25=ORIENTED_EDGE('',*,*,#129,.F.);
#26=ORIENTED_EDGE('',*,*,#130,.T.);
#27=ORIENTED_EDGE('',*,*,#131,.T.);
#28=ORIENTED_EDGE('',*,*,#132,.T.);
#29=ORIENTED_EDGE('',*,*,#133,.T.);
#30=ORIENTED_EDGE('',*,*,#134,.F.);
#31=ORIENTED_EDGE('',*,*,#135,.F.);
#32=ORIENTED_EDGE('',*,*,#136,.T.);
#33=ORIENTED_EDGE('',*,*,#137,.F.);
#34=ORIENTED_EDGE('',*,*,#132,.F.);
#35=ORIENTED_EDGE('',*,*,#138,.F.);
#36=ORIENTED_EDGE('',*,*,#129,.T.);
#37=ORIENTED_EDGE('',*,*,#139,.T.);
#38=ORIENTED_EDGE('',*,*,#140,.F.);
#39=ORIENTED_EDGE('',*,*,#141,.F.);
#40=ORIENTED_EDGE('',*,*,#131,.F.);
#41=ORIENTED_EDGE('',*,*,#142,.T.);
#42=ORIENTED_EDGE('',*,*,#134,.T.);
#43=ORIENTED_EDGE('',*,*,#143,.T.);
#44=ORIENTED_EDGE('',*,*,#130,.F.);
#45=ORIENTED_EDGE('',*,*,#138,.T.);
#46=ORIENTED_EDGE('',*,*,#135,.T.);
#47=ORIENTED_EDGE('',*,*,#142,.F.);
#48=ORIENTED_EDGE('',*,*,#144,.T.);
#49=ORIENTED_EDGE('',*,*,#140,.T.);
#50=ORIENTED_EDGE('',*,*,#145,.F.);
#51=ORIENTED_EDGE('',*,*,#136,.F.);
#52=ORIENTED_EDGE('',*,*,#143,.F.);
#53=ORIENTED_EDGE('',*,*,#146,.F.);
#54=ORIENTED_EDGE('',*,*,#147,.T.);
#55=ORIENTED_EDGE('',*,*,#148,.F.);
#56=ORIENTED_EDGE('',*,*,#149,.F.);
#57=ORIENTED_EDGE('',*,*,#150,.F.);
#58=ORIENTED_EDGE('',*,*,#137,.T.);
#59=ORIENTED_EDGE('',*,*,#145,.T.);
#60=ORIENTED_EDGE('',*,*,#133,.F.);
#61=ORIENTED_EDGE('',*,*,#151,.F.);
#62=ORIENTED_EDGE('',*,*,#152,.T.);
#63=ORIENTED_EDGE('',*,*,#153,.T.);
#64=ORIENTED_EDGE('',*,*,#150,.T.);
#65=ORIENTED_EDGE('',*,*,#154,.F.);
#66=ORIENTED_EDGE('',*,*,#155,.F.);
#67=ORIENTED_EDGE('',*,*,#151,.T.);
#68=ORIENTED_EDGE('',*,*,#149,.T.);
#69=ORIENTED_EDGE('',*,*,#156,.F.);
#70=ORIENTED_EDGE('',*,*,#157,.F.);
#71=ORIENTED_EDGE('',*,*,#154,.T.);
#72=ORIENTED_EDGE('',*,*,#148,.T.);
#73=ORIENTED_EDGE('',*,*,#158,.F.);
#74=ORIENTED_EDGE('',*,*,#159,.F.);
#75=ORIENTED_EDGE('',*,*,#156,.T.);
#76=ORIENTED_EDGE('',*,*,#147,.F.);
#77=ORIENTED_EDGE('',*,*,#160,.F.);
#78=ORIENTED_EDGE('',*,*,#161,.T.);
#79=ORIENTED_EDGE('',*,*,#158,.T.);
#80=ORIENTED_EDGE('',*,*,#146,.T.);
#81=ORIENTED_EDGE('',*,*,#153,.F.);
#82=ORIENTED_EDGE('',*,*,#162,.F.);
#83=ORIENTED_EDGE('',*,*,#160,.T.);
#84=ORIENTED_EDGE('',*,*,#152,.F.);
#85=ORIENTED_EDGE('',*,*,#155,.T.);
#86=ORIENTED_EDGE('',*,*,#157,.T.);
#87=ORIENTED_EDGE('',*,*,#159,.T.);
#88=ORIENTED_EDGE('',*,*,#161,.F.);
#89=ORIENTED_EDGE('',*,*,#162,.T.);
#90=ORIENTED_EDGE('',*,*,#141,.T.);
#91=ORIENTED_EDGE('',*,*,#144,.F.);
#92=ORIENTED_EDGE('',*,*,#139,.F.);
#93=ORIENTED_EDGE('',*,*,#163,.T.);
#94=ORIENTED_EDGE('',*,*,#164,.T.);
#95=ORIENTED_EDGE('',*,*,#165,.T.);
#96=ORIENTED_EDGE('',*,*,#166,.F.);
#97=ORIENTED_EDGE('',*,*,#167,.T.);
#98=ORIENTED_EDGE('',*,*,#128,.T.);
#99=ORIENTED_EDGE('',*,*,#168,.F.);
#100=ORIENTED_EDGE('',*,*,#169,.F.);
#101=ORIENTED_EDGE('',*,*,#170,.T.);
#102=ORIENTED_EDGE('',*,*,#163,.F.);
#103=ORIENTED_EDGE('',*,*,#170,.F.);
#104=ORIENTED_EDGE('',*,*,#171,.T.);
#105=ORIENTED_EDGE('',*,*,#172,.T.);
#106=ORIENTED_EDGE('',*,*,#164,.F.);
#107=ORIENTED_EDGE('',*,*,#172,.F.);
#108=ORIENTED_EDGE('',*,*,#173,.T.);
#109=ORIENTED_EDGE('',*,*,#174,.T.);
#110=ORIENTED_EDGE('',*,*,#165,.F.);
#111=ORIENTED_EDGE('',*,*,#174,.F.);
#112=ORIENTED_EDGE('',*,*,#175,.T.);
#113=ORIENTED_EDGE('',*,*,#176,.T.);
#114=ORIENTED_EDGE('',*,*,#166,.T.);
#115=ORIENTED_EDGE('',*,*,#176,.F.);
#116=ORIENTED_EDGE('',*,*,#177,.F.);
#117=ORIENTED_EDGE('',*,*,#178,.T.);
#118=ORIENTED_EDGE('',*,*,#167,.F.);
#119=ORIENTED_EDGE('',*,*,#178,.F.);
#120=ORIENTED_EDGE('',*,*,#179,.T.);
#121=ORIENTED_EDGE('',*,*,#168,.T.);
#122=ORIENTED_EDGE('',*,*,#169,.T.);
#123=ORIENTED_EDGE('',*,*,#179,.F.);
#124=ORIENTED_EDGE('',*,*,#177,.T.);
#125=ORIENTED_EDGE('',*,*,#175,.F.);
#126=ORIENTED_EDGE('',*,*,#173,.F.);
#127=ORIENTED_EDGE('',*,*,#171,.F.);
#128=EDGE_CURVE('',#180,#181,#212,.T.);
#129=EDGE_CURVE('',#182,#180,#213,.T.);
#130=EDGE_CURVE('',#182,#183,#214,.T.);
#131=EDGE_CURVE('',#183,#181,#215,.T.);
#132=EDGE_CURVE('',#184,#185,#216,.T.);
#133=EDGE_CURVE('',#185,#186,#217,.T.);
#134=EDGE_CURVE('',#187,#186,#218,.T.);
#135=EDGE_CURVE('',#184,#187,#219,.T.);
#136=EDGE_CURVE('',#188,#189,#220,.T.);
#137=EDGE_CURVE('',#185,#189,#221,.T.);
#138=EDGE_CURVE('',#182,#184,#222,.T.);
#139=EDGE_CURVE('',#180,#188,#223,.T.);
#140=EDGE_CURVE('',#190,#191,#224,.T.);
#141=EDGE_CURVE('',#181,#190,#225,.T.);
#142=EDGE_CURVE('',#183,#187,#226,.T.);
#143=EDGE_CURVE('',#186,#191,#227,.T.);
#144=EDGE_CURVE('',#188,#190,#228,.T.);
#145=EDGE_CURVE('',#189,#191,#229,.T.);
#146=EDGE_CURVE('',#192,#186,#16,.T.);
#147=EDGE_CURVE('',#192,#193,#230,.T.);
#148=EDGE_CURVE('',#194,#193,#231,.T.);
#149=EDGE_CURVE('',#195,#194,#232,.T.);
#150=EDGE_CURVE('',#185,#195,#17,.T.);
#151=EDGE_CURVE('',#196,#185,#233,.T.);
#152=EDGE_CURVE('',#196,#197,#234,.T.);
#153=EDGE_CURVE('',#197,#186,#235,.T.);
#154=EDGE_CURVE('',#198,#195,#236,.T.);
#155=EDGE_CURVE('',#196,#198,#18,.T.);
#156=EDGE_CURVE('',#199,#194,#237,.T.);
#157=EDGE_CURVE('',#198,#199,#238,.T.);
#158=EDGE_CURVE('',#200,#193,#239,.T.);
#159=EDGE_CURVE('',#199,#200,#240,.T.);
#160=EDGE_CURVE('',#201,#192,#241,.T.);
#161=EDGE_CURVE('',#201,#200,#242,.T.);
#162=EDGE_CURVE('',#201,#197,#19,.T.);
#163=EDGE_CURVE('',#180,#202,#20,.T.);
#164=EDGE_CURVE('',#202,#203,#243,.T.);
#165=EDGE_CURVE('',#203,#204,#244,.T.);
#166=EDGE_CURVE('',#205,#204,#245,.T.);
#167=EDGE_CURVE('',#205,#181,#21,.T.);
#168=EDGE_CURVE('',#206,#181,#246,.T.);
#169=EDGE_CURVE('',#207,#206,#247,.T.);
#170=EDGE_CURVE('',#207,#180,#248,.T.);
#171=EDGE_CURVE('',#207,#208,#22,.T.);
#172=EDGE_CURVE('',#208,#202,#249,.T.);
#173=EDGE_CURVE('',#208,#209,#250,.T.);
#174=EDGE_CURVE('',#209,#203,#251,.T.);
#175=EDGE_CURVE('',#209,#210,#252,.T.);
#176=EDGE_CURVE('',#210,#204,#253,.T.);
#177=EDGE_CURVE('',#211,#210,#254,.T.);
#178=EDGE_CURVE('',#211,#205,#255,.T.);
#179=EDGE_CURVE('',#211,#206,#23,.T.);
#180=VERTEX_POINT('',#536);
#181=VERTEX_POINT('',#537);
#182=VERTEX_POINT('',#539);
#183=VERTEX_POINT('',#541);
#184=VERTEX_POINT('',#545);
#185=VERTEX_POINT('',#546);
#186=VERTEX_POINT('',#548);
#187=VERTEX_POINT('',#550);
#188=VERTEX_POINT('',#554);
#189=VERTEX_POINT('',#555);
#190=VERTEX_POINT('',#561);
#191=VERTEX_POINT('',#562);
#192=VERTEX_POINT('',#572);
#193=VERTEX_POINT('',#574);
#194=VERTEX_POINT('',#576);
#195=VERTEX_POINT('',#578);
#196=VERTEX_POINT('',#582);
#197=VERTEX_POINT('',#584);
#198=VERTEX_POINT('',#588);
#199=VERTEX_POINT('',#592);
#200=VERTEX_POINT('',#596);
#201=VERTEX_POINT('',#600);
#202=VERTEX_POINT('',#607);
#203=VERTEX_POINT('',#609);
#204=VERTEX_POINT('',#611);
#205=VERTEX_POINT('',#613);
#206=VERTEX_POINT('',#617);
#207=VERTEX_POINT('',#619);
#208=VERTEX_POINT('',#623);
#209=VERTEX_POINT('',#627);
#210=VERTEX_POINT('',#631);
#211=VERTEX_POINT('',#635);
#212=LINE('',#535,#256);
#213=LINE('',#538,#257);
#214=LINE('',#540,#258);
#215=LINE('',#542,#259);
#216=LINE('',#544,#260);
#217=LINE('',#547,#261);
#218=LINE('',#549,#262);
#219=LINE('',#551,#263);
#220=LINE('',#553,#264);
#221=LINE('',#556,#265);
#222=LINE('',#557,#266);
#223=LINE('',#558,#267);
#224=LINE('',#560,#268);
#225=LINE('',#563,#269);
#226=LINE('',#564,#270);
#227=LINE('',#565,#271);
#228=LINE('',#568,#272);
#229=LINE('',#569,#273);
#230=LINE('',#573,#274);
#231=LINE('',#575,#275);
#232=LINE('',#577,#276);
#233=LINE('',#581,#277);
#234=LINE('',#583,#278);
#235=LINE('',#585,#279);
#236=LINE('',#587,#280);
#237=LINE('',#591,#281);
#238=LINE('',#593,#282);
#239=LINE('',#595,#283);
#240=LINE('',#597,#284);
#241=LINE('',#599,#285);
#242=LINE('',#601,#286);
#243=LINE('',#608,#287);
#244=LINE('',#610,#288);
#245=LINE('',#612,#289);
#246=LINE('',#616,#290);
#247=LINE('',#618,#291);
#248=LINE('',#620,#292);
#249=LINE('',#624,#293);
#250=LINE('',#626,#294);
#251=LINE('',#628,#295);
#252=LINE('',#630,#296);
#253=LINE('',#632,#297);
#254=LINE('',#634,#298);
#255=LINE('',#636,#299);
#256=VECTOR('',#431,1.);
#257=VECTOR('',#432,1.);
#258=VECTOR('',#433,1.);
#259=VECTOR('',#434,1.);
#260=VECTOR('',#437,1.);
#261=VECTOR('',#438,1.);
#262=VECTOR('',#439,1.);
#263=VECTOR('',#440,1.);
#264=VECTOR('',#443,1.);
#265=VECTOR('',#444,1.);
#266=VECTOR('',#445,1.);
#267=VECTOR('',#446,1.);
#268=VECTOR('',#449,1.);
#269=VECTOR('',#450,1.);
#270=VECTOR('',#451,1.);
#271=VECTOR('',#452,1.);
#272=VECTOR('',#457,1.);
#273=VECTOR('',#458,1.);
#274=VECTOR('',#463,1.);
#275=VECTOR('',#464,1.);
#276=VECTOR('',#465,1.);
#277=VECTOR('',#470,1.);
#278=VECTOR('',#471,1.);
#279=VECTOR('',#472,1.);
#280=VECTOR('',#475,1.);
#281=VECTOR('',#480,1.);
#282=VECTOR('',#481,1.);
#283=VECTOR('',#484,1.);
#284=VECTOR('',#485,1.);
#285=VECTOR('',#488,1.);
#286=VECTOR('',#489,1.);
#287=VECTOR('',#500,1.);
#288=VECTOR('',#501,1.);
#289=VECTOR('',#502,1.);
#290=VECTOR('',#507,1.);
#291=VECTOR('',#508,1.);
#292=VECTOR('',#509,1.);
#293=VECTOR('',#514,1.);
#294=VECTOR('',#517,1.);
#295=VECTOR('',#518,1.);
#296=VECTOR('',#521,1.);
#297=VECTOR('',#522,1.);
#298=VECTOR('',#525,1.);
#299=VECTOR('',#526,1.);
#300=EDGE_LOOP('',(#24,#25,#26,#27));
#301=EDGE_LOOP('',(#28,#29,#30,#31));
#302=EDGE_LOOP('',(#32,#33,#34,#35,#36,#37));
#303=EDGE_LOOP('',(#38,#39,#40,#41,#42,#43));
#304=EDGE_LOOP('',(#44,#45,#46,#47));
#305=EDGE_LOOP('',(#48,#49,#50,#51));
#306=EDGE_LOOP('',(#52,#53,#54,#55,#56,#57,#58,#59));
#307=EDGE_LOOP('',(#60,#61,#62,#63));
#308=EDGE_LOOP('',(#64,#65,#66,#67));
#309=EDGE_LOOP('',(#68,#69,#70,#71));
#310=EDGE_LOOP('',(#72,#73,#74,#75));
#311=EDGE_LOOP('',(#76,#77,#78,#79));
#312=EDGE_LOOP('',(#80,#81,#82,#83));
#313=EDGE_LOOP('',(#84,#85,#86,#87,#88,#89));
#314=EDGE_LOOP('',(#90,#91,#92,#93,#94,#95,#96,#97));
#315=EDGE_LOOP('',(#98,#99,#100,#101));
#316=EDGE_LOOP('',(#102,#103,#104,#105));
#317=EDGE_LOOP('',(#106,#107,#108,#109));
#318=EDGE_LOOP('',(#110,#111,#112,#113));
#319=EDGE_LOOP('',(#114,#115,#116,#117));
#320=EDGE_LOOP('',(#118,#119,#120,#121));
#321=EDGE_LOOP('',(#122,#123,#124,#125,#126,#127));
#322=FACE_BOUND('',#300,.T.);
#323=FACE_BOUND('',#301,.T.);
#324=FACE_BOUND('',#302,.T.);
#325=FACE_BOUND('',#303,.T.);
#326=FACE_BOUND('',#304,.T.);
#327=FACE_BOUND('',#305,.T.);
#328=FACE_BOUND('',#306,.T.);
#329=FACE_BOUND('',#307,.T.);
#330=FACE_BOUND('',#308,.T.);
#331=FACE_BOUND('',#309,.T.);
#332=FACE_BOUND('',#310,.T.);
#333=FACE_BOUND('',#311,.T.);
#334=FACE_BOUND('',#312,.T.);
#335=FACE_BOUND('',#313,.T.);
#336=FACE_BOUND('',#314,.T.);
#337=FACE_BOUND('',#315,.T.);
#338=FACE_BOUND('',#316,.T.);
#339=FACE_BOUND('',#317,.T.);
#340=FACE_BOUND('',#318,.T.);
#341=FACE_BOUND('',#319,.T.);
#342=FACE_BOUND('',#320,.T.);
#343=FACE_BOUND('',#321,.T.);
#344=PLANE('',#397);
#345=PLANE('',#398);
#346=PLANE('',#399);
#347=PLANE('',#400);
#348=PLANE('',#401);
#349=PLANE('',#402);
#350=PLANE('',#403);
#351=PLANE('',#406);
#352=PLANE('',#409);
#353=PLANE('',#410);
#354=PLANE('',#411);
#355=PLANE('',#414);
#356=PLANE('',#415);
#357=PLANE('',#418);
#358=PLANE('',#421);
#359=PLANE('',#422);
#360=PLANE('',#423);
#361=PLANE('',#426);
#362=ADVANCED_FACE('',(#322),#344,.T.);
#363=ADVANCED_FACE('',(#323),#345,.F.);
#364=ADVANCED_FACE('',(#324),#346,.F.);
#365=ADVANCED_FACE('',(#325),#347,.T.);
#366=ADVANCED_FACE('',(#326),#348,.T.);
#367=ADVANCED_FACE('',(#327),#349,.F.);
#368=ADVANCED_FACE('',(#328),#350,.F.);
#369=ADVANCED_FACE('',(#329),#351,.T.);
#370=ADVANCED_FACE('',(#330),#12,.T.);
#371=ADVANCED_FACE('',(#331),#352,.F.);
#372=ADVANCED_FACE('',(#332),#353,.F.);
#373=ADVANCED_FACE('',(#333),#354,.T.);
#374=ADVANCED_FACE('',(#334),#13,.T.);
#375=ADVANCED_FACE('',(#335),#355,.T.);
#376=ADVANCED_FACE('',(#336),#356,.F.);
#377=ADVANCED_FACE('',(#337),#357,.T.);
#378=ADVANCED_FACE('',(#338),#14,.T.);
#379=ADVANCED_FACE('',(#339),#358,.F.);
#380=ADVANCED_FACE('',(#340),#359,.F.);
#381=ADVANCED_FACE('',(#341),#360,.T.);
#382=ADVANCED_FACE('',(#342),#15,.T.);
#383=ADVANCED_FACE('',(#343),#361,.T.);
#384=CLOSED_SHELL('',(#362,#363,#364,#365,#366,#367,#368,#369,#370,#371,
#372,#373,#374,#375,#376,#377,#378,#379,#380,#381,#382,#383));
#385=STYLED_ITEM('',(#386),#393);
#386=PRESENTATION_STYLE_ASSIGNMENT((#387));
#387=SURFACE_STYLE_USAGE(.BOTH.,#388);
#388=SURFACE_SIDE_STYLE('',(#389));
#389=SURFACE_STYLE_FILL_AREA(#390);
#390=FILL_AREA_STYLE('',(#391));
#391=FILL_AREA_STYLE_COLOUR('',#392);
#392=COLOUR_RGB('',0.231372549019608,0.380392156862745,0.705882352941177);
#393=MANIFOLD_SOLID_BREP('turtle_big',#384);
#394=SHAPE_DEFINITION_REPRESENTATION(#646,#395);
#395=SHAPE_REPRESENTATION('turtle_big',(#396),#641);
#396=AXIS2_PLACEMENT_3D('',#533,#427,#428);
#397=AXIS2_PLACEMENT_3D('',#534,#429,#430);
#398=AXIS2_PLACEMENT_3D('',#543,#435,#436);
#399=AXIS2_PLACEMENT_3D('',#552,#441,#442);
#400=AXIS2_PLACEMENT_3D('',#559,#447,#448);
#401=AXIS2_PLACEMENT_3D('',#566,#453,#454);
#402=AXIS2_PLACEMENT_3D('',#567,#455,#456);
#403=AXIS2_PLACEMENT_3D('',#570,#459,#460);
#404=AXIS2_PLACEMENT_3D('',#571,#461,#462);
#405=AXIS2_PLACEMENT_3D('',#579,#466,#467);
#406=AXIS2_PLACEMENT_3D('',#580,#468,#469);
#407=AXIS2_PLACEMENT_3D('',#586,#473,#474);
#408=AXIS2_PLACEMENT_3D('',#589,#476,#477);
#409=AXIS2_PLACEMENT_3D('',#590,#478,#479);
#410=AXIS2_PLACEMENT_3D('',#594,#482,#483);
#411=AXIS2_PLACEMENT_3D('',#598,#486,#487);
#412=AXIS2_PLACEMENT_3D('',#602,#490,#491);
#413=AXIS2_PLACEMENT_3D('',#603,#492,#493);
#414=AXIS2_PLACEMENT_3D('',#604,#494,#495);
#415=AXIS2_PLACEMENT_3D('',#605,#496,#497);
#416=AXIS2_PLACEMENT_3D('',#606,#498,#499);
#417=AXIS2_PLACEMENT_3D('',#614,#503,#504);
#418=AXIS2_PLACEMENT_3D('',#615,#505,#506);
#419=AXIS2_PLACEMENT_3D('',#621,#510,#511);
#420=AXIS2_PLACEMENT_3D('',#622,#512,#513);
#421=AXIS2_PLACEMENT_3D('',#625,#515,#516);
#422=AXIS2_PLACEMENT_3D('',#629,#519,#520);
#423=AXIS2_PLACEMENT_3D('',#633,#523,#524);
#424=AXIS2_PLACEMENT_3D('',#637,#527,#528);
#425=AXIS2_PLACEMENT_3D('',#638,#529,#530);
#426=AXIS2_PLACEMENT_3D('',#639,#531,#532);
#427=DIRECTION('',(0.,0.,1.));
#428=DIRECTION('',(1.,0.,0.));
#429=DIRECTION('',(1.,-6.23720800351212E-17,0.));
#430=DIRECTION('',(6.23720800351212E-17,1.,0.));
#431=DIRECTION('',(6.23720800351212E-17,-1.,0.));
#432=DIRECTION('',(0.,0.,-1.));
#433=DIRECTION('',(-6.23720800351212E-17,-1.,0.));
#434=DIRECTION('',(0.,0.,-1.));
#435=DIRECTION('',(1.,-6.23720800351212E-17,0.));
#436=DIRECTION('',(6.23720800351212E-17,1.,0.));
#437=DIRECTION('',(0.,0.,-1.));
#438=DIRECTION('',(-6.23720800351212E-17,-1.,0.));
#439=DIRECTION('',(0.,0.,-1.));
#440=DIRECTION('',(-6.23720800351212E-17,-1.,0.));
#441=DIRECTION('',(0.,-1.,0.));
#442=DIRECTION('',(0.,0.,-1.));
#443=DIRECTION('',(-1.,0.,0.));
#444=DIRECTION('',(0.,0.,-1.));
#445=DIRECTION('',(-1.,0.,0.));
#446=DIRECTION('',(0.,0.,-1.));
#447=DIRECTION('',(0.,-1.,0.));
#448=DIRECTION('',(0.,0.,-1.));
#449=DIRECTION('',(-1.,0.,0.));
#450=DIRECTION('',(0.,0.,-1.));
#451=DIRECTION('',(-1.,0.,0.));
#452=DIRECTION('',(0.,0.,-1.));
#453=DIRECTION('',(0.,0.,1.));
#454=DIRECTION('',(1.,0.,0.));
#455=DIRECTION('',(0.,0.,1.));
#456=DIRECTION('',(1.,0.,0.));
#457=DIRECTION('',(-6.23720800351212E-17,-1.,0.));
#458=DIRECTION('',(-6.23720800351212E-17,-1.,0.));
#459=DIRECTION('',(-1.,6.23720800351212E-17,0.));
#460=DIRECTION('',(-6.23720800351212E-17,-1.,0.));
#461=DIRECTION('',(-1.,6.23720800351212E-17,0.));
#462=DIRECTION('',(-6.23720800351212E-17,-1.,0.));
#463=DIRECTION('',(5.45693783181169E-17,0.874900729419146,-0.484302295742903));
#464=DIRECTION('',(-6.23720800351212E-17,-1.,0.));
#465=DIRECTION('',(-5.45693783181168E-17,-0.874900729419145,-0.484302295742904));
#466=DIRECTION('',(-1.,6.23720800351212E-17,0.));
#467=DIRECTION('',(-6.23720800351212E-17,-1.,0.));
#468=DIRECTION('',(0.,0.,1.));
#469=DIRECTION('',(1.,0.,0.));
#470=DIRECTION('',(1.,-6.23720800351212E-17,0.));
#471=DIRECTION('',(-6.23720800351212E-17,-1.,0.));
#472=DIRECTION('',(1.,-6.23720800351212E-17,0.));
#473=DIRECTION('',(1.,-6.23720800351212E-17,0.));
#474=DIRECTION('',(6.23720800351212E-17,1.,0.));
#475=DIRECTION('',(1.,-6.23720800351212E-17,0.));
#476=DIRECTION('',(-1.,6.23720800351212E-17,0.));
#477=DIRECTION('',(-6.23720800351212E-17,-1.,0.));
#478=DIRECTION('',(-3.02069415512693E-17,-0.484302295742904,0.874900729419145));
#479=DIRECTION('',(0.,-0.874900729419146,-0.484302295742904));
#480=DIRECTION('',(1.,-6.23720800351212E-17,0.));
#481=DIRECTION('',(-5.45693783181168E-17,-0.874900729419145,-0.484302295742904));
#482=DIRECTION('',(0.,0.,1.));
#483=DIRECTION('',(1.,0.,0.));
#484=DIRECTION('',(1.,-6.23720800351212E-17,0.));
#485=DIRECTION('',(-6.23720800351212E-17,-1.,0.));
#486=DIRECTION('',(-3.02069415512693E-17,-0.484302295742903,-0.874900729419146));
#487=DIRECTION('',(0.,0.874900729419146,-0.484302295742903));
#488=DIRECTION('',(1.,-6.23720800351212E-17,0.));
#489=DIRECTION('',(5.45693783181169E-17,0.874900729419146,-0.484302295742903));
#490=DIRECTION('',(1.,-6.23720800351212E-17,0.));
#491=DIRECTION('',(6.23720800351212E-17,1.,0.));
#492=DIRECTION('',(-1.,6.23720800351212E-17,0.));
#493=DIRECTION('',(-6.23720800351212E-17,-1.,0.));
#494=DIRECTION('',(-1.,6.23720800351212E-17,0.));
#495=DIRECTION('',(-6.23720800351212E-17,-1.,0.));
#496=DIRECTION('',(1.,6.23720800351212E-17,0.));
#497=DIRECTION('',(6.23720800351212E-17,-1.,0.));
#498=DIRECTION('',(-1.,-6.23720800351212E-17,0.));
#499=DIRECTION('',(6.23720800351212E-17,-1.,0.));
#500=DIRECTION('',(5.45693783181168E-17,-0.874900729419145,-0.484302295742904));
#501=DIRECTION('',(6.23720800351212E-17,-1.,0.));
#502=DIRECTION('',(-5.45693783181169E-17,0.874900729419146,-0.484302295742903));
#503=DIRECTION('',(-1.,-6.23720800351212E-17,0.));
#504=DIRECTION('',(6.23720800351212E-17,-1.,0.));
#505=DIRECTION('',(0.,0.,1.));
#506=DIRECTION('',(-1.,0.,0.));
#507=DIRECTION('',(-1.,-6.23720800351212E-17,0.));
#508=DIRECTION('',(6.23720800351212E-17,-1.,0.));
#509=DIRECTION('',(-1.,-6.23720800351212E-17,0.));
#510=DIRECTION('',(-1.,-6.23720800351212E-17,0.));
#511=DIRECTION('',(-6.23720800351212E-17,1.,0.));
#512=DIRECTION('',(-1.,-6.23720800351212E-17,0.));
#513=DIRECTION('',(6.23720800351212E-17,-1.,0.));
#514=DIRECTION('',(-1.,-6.23720800351212E-17,0.));
#515=DIRECTION('',(3.02069415512693E-17,-0.484302295742904,0.874900729419145));
#516=DIRECTION('',(0.,-0.874900729419146,-0.484302295742904));
#517=DIRECTION('',(5.45693783181168E-17,-0.874900729419145,-0.484302295742904));
#518=DIRECTION('',(-1.,-6.23720800351212E-17,0.));
#519=DIRECTION('',(0.,0.,1.));
#520=DIRECTION('',(-1.,0.,0.));
#521=DIRECTION('',(6.23720800351212E-17,-1.,0.));
#522=DIRECTION('',(-1.,-6.23720800351212E-17,0.));
#523=DIRECTION('',(3.02069415512693E-17,-0.484302295742903,-0.874900729419146));
#524=DIRECTION('',(0.,0.874900729419146,-0.484302295742903));
#525=DIRECTION('',(-5.45693783181169E-17,0.874900729419146,-0.484302295742903));
#526=DIRECTION('',(-1.,-6.23720800351212E-17,0.));
#527=DIRECTION('',(-1.,-6.23720800351212E-17,0.));
#528=DIRECTION('',(-6.23720800351212E-17,1.,0.));
#529=DIRECTION('',(-1.,-6.23720800351212E-17,0.));
#530=DIRECTION('',(6.23720800351212E-17,-1.,0.));
#531=DIRECTION('',(1.,6.23720800351212E-17,0.));
#532=DIRECTION('',(6.23720800351212E-17,-1.,0.));
#533=CARTESIAN_POINT('',(0.,0.,0.));
#534=CARTESIAN_POINT('',(0.087,6.93889390390723E-18,0.0904));
#535=CARTESIAN_POINT('',(0.087,2.11100827210748E-50,0.0691));
#536=CARTESIAN_POINT('',(0.087,0.11125,0.0691));
#537=CARTESIAN_POINT('',(0.087,-0.11125,0.0691));
#538=CARTESIAN_POINT('',(0.087,0.11125,0.0904));
#539=CARTESIAN_POINT('',(0.087,0.11125,0.0904));
#540=CARTESIAN_POINT('',(0.087,6.93889390390723E-18,0.0904));
#541=CARTESIAN_POINT('',(0.087,-0.11125,0.0904));
#542=CARTESIAN_POINT('',(0.087,-0.11125,0.0904));
#543=CARTESIAN_POINT('',(-0.087,6.93889390390723E-18,0.0904));
#544=CARTESIAN_POINT('',(-0.087,0.11125,0.0904));
#545=CARTESIAN_POINT('',(-0.087,0.11125,0.0904));
#546=CARTESIAN_POINT('',(-0.087,0.11125,0.0691));
#547=CARTESIAN_POINT('',(-0.087,2.11100827210748E-50,0.0691));
#548=CARTESIAN_POINT('',(-0.087,-0.11125,0.0691));
#549=CARTESIAN_POINT('',(-0.087,-0.11125,0.0904));
#550=CARTESIAN_POINT('',(-0.087,-0.11125,0.0904));
#551=CARTESIAN_POINT('',(-0.087,6.93889390390723E-18,0.0904));
#552=CARTESIAN_POINT('',(1.38777878078145E-17,0.11125,0.0904));
#553=CARTESIAN_POINT('',(1.38777878078145E-17,0.11125,0.027));
#554=CARTESIAN_POINT('',(0.087,0.11125,0.027));
#555=CARTESIAN_POINT('',(-0.087,0.11125,0.027));
#556=CARTESIAN_POINT('',(-0.087,0.11125,0.0904));
#557=CARTESIAN_POINT('',(1.38777878078145E-17,0.11125,0.0904));
#558=CARTESIAN_POINT('',(0.087,0.11125,0.0904));
#559=CARTESIAN_POINT('',(-1.38777878078145E-17,-0.11125,0.0904));
#560=CARTESIAN_POINT('',(-1.38777878078145E-17,-0.11125,0.027));
#561=CARTESIAN_POINT('',(0.087,-0.11125,0.027));
#562=CARTESIAN_POINT('',(-0.087,-0.11125,0.027));
#563=CARTESIAN_POINT('',(0.087,-0.11125,0.0904));
#564=CARTESIAN_POINT('',(-1.38777878078145E-17,-0.11125,0.0904));
#565=CARTESIAN_POINT('',(-0.087,-0.11125,0.0904));
#566=CARTESIAN_POINT('',(1.38777878078145E-17,0.,0.0904));
#567=CARTESIAN_POINT('',(1.38777878078145E-17,0.,0.027));
#568=CARTESIAN_POINT('',(0.087,6.93889390390723E-18,0.027));
#569=CARTESIAN_POINT('',(-0.087,6.93889390390723E-18,0.027));
#570=CARTESIAN_POINT('',(-0.087,5.42637096305554E-18,0.));
#571=CARTESIAN_POINT('',(-0.087,-0.11125,0.04805));
#572=CARTESIAN_POINT('',(-0.087,-0.121444563325388,0.029633339645727));
#573=CARTESIAN_POINT('',(-0.087,-0.0946779851994246,0.0148166698228635));
#574=CARTESIAN_POINT('',(-0.087,-0.0679114070734611,-6.93889390390723E-18));
#575=CARTESIAN_POINT('',(-0.087,2.11100827210748E-50,0.));
#576=CARTESIAN_POINT('',(-0.087,0.0679114070734611,0.));
#577=CARTESIAN_POINT('',(-0.087,0.0946779851994246,0.0148166698228635));
#578=CARTESIAN_POINT('',(-0.087,0.121444563325388,0.029633339645727));
#579=CARTESIAN_POINT('',(-0.087,0.11125,0.04805));
#580=CARTESIAN_POINT('',(-0.134,2.93148776165069E-18,0.0691));
#581=CARTESIAN_POINT('',(-0.134,0.11125,0.0691));
#582=CARTESIAN_POINT('',(-0.134,0.11125,0.0691));
#583=CARTESIAN_POINT('',(-0.134,2.93148776165069E-18,0.0691));
#584=CARTESIAN_POINT('',(-0.134,-0.11125,0.0691));
#585=CARTESIAN_POINT('',(-0.134,-0.11125,0.0691));
#586=CARTESIAN_POINT('',(-0.134,0.11125,0.04805));
#587=CARTESIAN_POINT('',(-0.134,0.121444563325388,0.029633339645727));
#588=CARTESIAN_POINT('',(-0.134,0.121444563325388,0.029633339645727));
#589=CARTESIAN_POINT('',(-0.134,0.11125,0.04805));
#590=CARTESIAN_POINT('',(-0.134,0.0946779851994246,0.0148166698228635));
#591=CARTESIAN_POINT('',(-0.134,0.0679114070734611,0.));
#592=CARTESIAN_POINT('',(-0.134,0.0679114070734611,0.));
#593=CARTESIAN_POINT('',(-0.134,0.0946779851994246,0.0148166698228635));
#594=CARTESIAN_POINT('',(-0.134,2.93148776165069E-18,0.));
#595=CARTESIAN_POINT('',(-0.134,-0.0679114070734611,-6.93889390390723E-18));
#596=CARTESIAN_POINT('',(-0.134,-0.0679114070734611,-6.93889390390723E-18));
#597=CARTESIAN_POINT('',(-0.134,2.93148776165069E-18,0.));
#598=CARTESIAN_POINT('',(-0.134,-0.0946779851994246,0.0148166698228635));
#599=CARTESIAN_POINT('',(-0.134,-0.121444563325388,0.029633339645727));
#600=CARTESIAN_POINT('',(-0.134,-0.121444563325388,0.029633339645727));
#601=CARTESIAN_POINT('',(-0.134,-0.0946779851994246,0.0148166698228635));
#602=CARTESIAN_POINT('',(-0.134,-0.11125,0.04805));
#603=CARTESIAN_POINT('',(-0.134,-0.11125,0.04805));
#604=CARTESIAN_POINT('',(-0.134,8.35785872470624E-18,0.));
#605=CARTESIAN_POINT('',(0.087,5.42637096305554E-18,0.));
#606=CARTESIAN_POINT('',(0.087,0.11125,0.04805));
#607=CARTESIAN_POINT('',(0.087,0.121444563325388,0.029633339645727));
#608=CARTESIAN_POINT('',(0.087,0.0946779851994246,0.0148166698228635));
#609=CARTESIAN_POINT('',(0.087,0.0679114070734611,0.));
#610=CARTESIAN_POINT('',(0.087,2.11100827210748E-50,0.));
#611=CARTESIAN_POINT('',(0.087,-0.0679114070734611,-6.93889390390723E-18));
#612=CARTESIAN_POINT('',(0.087,-0.0946779851994246,0.0148166698228635));
#613=CARTESIAN_POINT('',(0.087,-0.121444563325388,0.029633339645727));
#614=CARTESIAN_POINT('',(0.087,-0.11125,0.04805));
#615=CARTESIAN_POINT('',(0.134,2.93148776165069E-18,0.0691));
#616=CARTESIAN_POINT('',(0.134,-0.11125,0.0691));
#617=CARTESIAN_POINT('',(0.134,-0.11125,0.0691));
#618=CARTESIAN_POINT('',(0.134,2.93148776165069E-18,0.0691));
#619=CARTESIAN_POINT('',(0.134,0.11125,0.0691));
#620=CARTESIAN_POINT('',(0.134,0.11125,0.0691));
#621=CARTESIAN_POINT('',(0.134,0.11125,0.04805));
#622=CARTESIAN_POINT('',(0.134,0.11125,0.04805));
#623=CARTESIAN_POINT('',(0.134,0.121444563325388,0.029633339645727));
#624=CARTESIAN_POINT('',(0.134,0.121444563325388,0.029633339645727));
#625=CARTESIAN_POINT('',(0.134,0.0946779851994246,0.0148166698228635));
#626=CARTESIAN_POINT('',(0.134,0.0946779851994246,0.0148166698228635));
#627=CARTESIAN_POINT('',(0.134,0.0679114070734611,0.));
#628=CARTESIAN_POINT('',(0.134,0.0679114070734611,0.));
#629=CARTESIAN_POINT('',(0.134,2.93148776165069E-18,0.));
#630=CARTESIAN_POINT('',(0.134,2.93148776165069E-18,0.));
#631=CARTESIAN_POINT('',(0.134,-0.0679114070734611,-6.93889390390723E-18));
#632=CARTESIAN_POINT('',(0.134,-0.0679114070734611,-6.93889390390723E-18));
#633=CARTESIAN_POINT('',(0.134,-0.0946779851994246,0.0148166698228635));
#634=CARTESIAN_POINT('',(0.134,-0.0946779851994246,0.0148166698228635));
#635=CARTESIAN_POINT('',(0.134,-0.121444563325388,0.029633339645727));
#636=CARTESIAN_POINT('',(0.134,-0.121444563325388,0.029633339645727));
#637=CARTESIAN_POINT('',(0.134,-0.11125,0.04805));
#638=CARTESIAN_POINT('',(0.134,-0.11125,0.04805));
#639=CARTESIAN_POINT('',(0.134,8.35785872470624E-18,0.));
#640=MECHANICAL_DESIGN_GEOMETRIC_PRESENTATION_REPRESENTATION('',(#385),
#641);
#641=(
GEOMETRIC_REPRESENTATION_CONTEXT(3)
GLOBAL_UNCERTAINTY_ASSIGNED_CONTEXT((#642))
GLOBAL_UNIT_ASSIGNED_CONTEXT((#645,#644,#643))
REPRESENTATION_CONTEXT('turtle_big','TOP_LEVEL_ASSEMBLY_PART')
);
#642=UNCERTAINTY_MEASURE_WITH_UNIT(LENGTH_MEASURE(1.E-8),#645,
'DISTANCE_ACCURACY_VALUE','Maximum Tolerance applied to model');
#643=(
NAMED_UNIT(*)
SI_UNIT($,.STERADIAN.)
SOLID_ANGLE_UNIT()
);
#644=(
NAMED_UNIT(*)
PLANE_ANGLE_UNIT()
SI_UNIT($,.RADIAN.)
);
#645=(
LENGTH_UNIT()
NAMED_UNIT(*)
SI_UNIT($,.METRE.)
);
#646=PRODUCT_DEFINITION_SHAPE('','',#647);
#647=PRODUCT_DEFINITION('','',#649,#648);
#648=PRODUCT_DEFINITION_CONTEXT('',#655,'design');
#649=PRODUCT_DEFINITION_FORMATION_WITH_SPECIFIED_SOURCE('','',#651,
 .NOT_KNOWN.);
#650=PRODUCT_RELATED_PRODUCT_CATEGORY('','',(#651));
#651=PRODUCT('turtle_big','turtle_big','turtle_big',(#653));
#652=PRODUCT_CATEGORY('','');
#653=PRODUCT_CONTEXT('',#655,'mechanical');
#654=APPLICATION_PROTOCOL_DEFINITION('international standard',
'ap242_managed_model_based_3d_engineering',2020,#655);
#655=APPLICATION_CONTEXT('managed model based 3d engineering');
ENDSEC;
END-ISO-10303-21;
