ISO-10303-21;
HEADER;
/* Generated by software containing ST-Developer
 * from STEP Tools, Inc. (www.steptools.com) 
 */
/* OPTION: using custom renumber hook */

FILE_DESCRIPTION(
/* description */ ('STEP AP242 Edition 2',
'CAx-IF Rec.Pracs.---Representation and Presentation of Product Manufa
cturing Information (PMI)---4.0---2014-10-13',
'CAx-IF Rec.Pracs.---3D Tessellated Geometry---0.4---2014-09-14','2;1',
'CAx-IF Rec.Pracs.---User Defined Attributes---1.5---2016-08-15'),
/* implementation_level */ '2;1');

FILE_NAME(
/* name */ 'turtle_small - turtle_small',
/* time_stamp */ '2026-04-11T18:11:11Z',
/* author */ (''),
/* organization */ (''),
/* preprocessor_version */ 'ST-DEVELOPER v20',
/* originating_system */ 'ONSHAPE BY PTC INC, 1.213',
/* authorisation */ '  ');

FILE_SCHEMA (('AP242_MANAGED_MODEL_BASED_3D_ENGINEERING_MIM_LF { 1 0 10303 442 3 1 4 }'));
ENDSEC;

DATA;
#10=SHAPE_REPRESENTATION_RELATIONSHIP('','',#491,#11);
#11=ADVANCED_BREP_SHAPE_REPRESENTATION('',(#489),#821);
#12=CYLINDRICAL_SURFACE('',#511,0.02115);
#13=CYLINDRICAL_SURFACE('',#515,0.02115);
#14=CYLINDRICAL_SURFACE('',#518,0.02115);
#15=CYLINDRICAL_SURFACE('',#521,0.02115);
#16=CYLINDRICAL_SURFACE('',#525,0.02115);
#17=CYLINDRICAL_SURFACE('',#529,0.02115);
#18=CYLINDRICAL_SURFACE('',#532,0.02115);
#19=CYLINDRICAL_SURFACE('',#535,0.02115);
#20=CIRCLE('',#494,0.02115);
#21=CIRCLE('',#496,0.02115);
#22=CIRCLE('',#497,0.02115);
#23=CIRCLE('',#499,0.02115);
#24=CIRCLE('',#501,0.02115);
#25=CIRCLE('',#502,0.02115);
#26=CIRCLE('',#504,0.02115);
#27=CIRCLE('',#507,0.02115);
#28=CIRCLE('',#512,0.02115);
#29=CIRCLE('',#513,0.02115);
#30=CIRCLE('',#516,0.02115);
#31=CIRCLE('',#517,0.02115);
#32=CIRCLE('',#519,0.02115);
#33=CIRCLE('',#522,0.02115);
#34=CIRCLE('',#526,0.02115);
#35=CIRCLE('',#527,0.02115);
#36=CIRCLE('',#530,0.02115);
#37=CIRCLE('',#531,0.02115);
#38=CIRCLE('',#533,0.02115);
#39=CIRCLE('',#536,0.02115);
#40=ORIENTED_EDGE('',*,*,#176,.F.);
#41=ORIENTED_EDGE('',*,*,#177,.T.);
#42=ORIENTED_EDGE('',*,*,#178,.T.);
#43=ORIENTED_EDGE('',*,*,#179,.F.);
#44=ORIENTED_EDGE('',*,*,#180,.T.);
#45=ORIENTED_EDGE('',*,*,#181,.F.);
#46=ORIENTED_EDGE('',*,*,#182,.F.);
#47=ORIENTED_EDGE('',*,*,#183,.T.);
#48=ORIENTED_EDGE('',*,*,#184,.F.);
#49=ORIENTED_EDGE('',*,*,#185,.F.);
#50=ORIENTED_EDGE('',*,*,#186,.T.);
#51=ORIENTED_EDGE('',*,*,#187,.F.);
#52=ORIENTED_EDGE('',*,*,#188,.F.);
#53=ORIENTED_EDGE('',*,*,#189,.T.);
#54=ORIENTED_EDGE('',*,*,#190,.T.);
#55=ORIENTED_EDGE('',*,*,#191,.F.);
#56=ORIENTED_EDGE('',*,*,#192,.T.);
#57=ORIENTED_EDGE('',*,*,#193,.T.);
#58=ORIENTED_EDGE('',*,*,#194,.F.);
#59=ORIENTED_EDGE('',*,*,#195,.T.);
#60=ORIENTED_EDGE('',*,*,#196,.F.);
#61=ORIENTED_EDGE('',*,*,#191,.T.);
#62=ORIENTED_EDGE('',*,*,#197,.F.);
#63=ORIENTED_EDGE('',*,*,#198,.T.);
#64=ORIENTED_EDGE('',*,*,#199,.T.);
#65=ORIENTED_EDGE('',*,*,#185,.T.);
#66=ORIENTED_EDGE('',*,*,#200,.T.);
#67=ORIENTED_EDGE('',*,*,#201,.F.);
#68=ORIENTED_EDGE('',*,*,#202,.F.);
#69=ORIENTED_EDGE('',*,*,#203,.F.);
#70=ORIENTED_EDGE('',*,*,#204,.T.);
#71=ORIENTED_EDGE('',*,*,#183,.F.);
#72=ORIENTED_EDGE('',*,*,#205,.F.);
#73=ORIENTED_EDGE('',*,*,#206,.F.);
#74=ORIENTED_EDGE('',*,*,#201,.T.);
#75=ORIENTED_EDGE('',*,*,#207,.T.);
#76=ORIENTED_EDGE('',*,*,#195,.F.);
#77=ORIENTED_EDGE('',*,*,#208,.F.);
#78=ORIENTED_EDGE('',*,*,#209,.F.);
#79=ORIENTED_EDGE('',*,*,#210,.T.);
#80=ORIENTED_EDGE('',*,*,#193,.F.);
#81=ORIENTED_EDGE('',*,*,#211,.T.);
#82=ORIENTED_EDGE('',*,*,#181,.T.);
#83=ORIENTED_EDGE('',*,*,#212,.F.);
#84=ORIENTED_EDGE('',*,*,#213,.T.);
#85=ORIENTED_EDGE('',*,*,#214,.T.);
#86=ORIENTED_EDGE('',*,*,#176,.T.);
#87=ORIENTED_EDGE('',*,*,#215,.F.);
#88=ORIENTED_EDGE('',*,*,#192,.F.);
#89=ORIENTED_EDGE('',*,*,#205,.T.);
#90=ORIENTED_EDGE('',*,*,#182,.T.);
#91=ORIENTED_EDGE('',*,*,#211,.F.);
#92=ORIENTED_EDGE('',*,*,#187,.T.);
#93=ORIENTED_EDGE('',*,*,#216,.T.);
#94=ORIENTED_EDGE('',*,*,#196,.T.);
#95=ORIENTED_EDGE('',*,*,#215,.T.);
#96=ORIENTED_EDGE('',*,*,#178,.F.);
#97=ORIENTED_EDGE('',*,*,#217,.F.);
#98=ORIENTED_EDGE('',*,*,#207,.F.);
#99=ORIENTED_EDGE('',*,*,#200,.F.);
#100=ORIENTED_EDGE('',*,*,#194,.T.);
#101=ORIENTED_EDGE('',*,*,#218,.T.);
#102=ORIENTED_EDGE('',*,*,#219,.F.);
#103=ORIENTED_EDGE('',*,*,#220,.F.);
#104=ORIENTED_EDGE('',*,*,#208,.T.);
#105=ORIENTED_EDGE('',*,*,#221,.T.);
#106=ORIENTED_EDGE('',*,*,#222,.F.);
#107=ORIENTED_EDGE('',*,*,#223,.F.);
#108=ORIENTED_EDGE('',*,*,#219,.T.);
#109=ORIENTED_EDGE('',*,*,#186,.F.);
#110=ORIENTED_EDGE('',*,*,#199,.F.);
#111=ORIENTED_EDGE('',*,*,#224,.T.);
#112=ORIENTED_EDGE('',*,*,#222,.T.);
#113=ORIENTED_EDGE('',*,*,#225,.F.);
#114=ORIENTED_EDGE('',*,*,#190,.F.);
#115=ORIENTED_EDGE('',*,*,#226,.F.);
#116=ORIENTED_EDGE('',*,*,#227,.T.);
#117=ORIENTED_EDGE('',*,*,#197,.T.);
#118=ORIENTED_EDGE('',*,*,#189,.F.);
#119=ORIENTED_EDGE('',*,*,#228,.F.);
#120=ORIENTED_EDGE('',*,*,#229,.T.);
#121=ORIENTED_EDGE('',*,*,#226,.T.);
#122=ORIENTED_EDGE('',*,*,#188,.T.);
#123=ORIENTED_EDGE('',*,*,#210,.F.);
#124=ORIENTED_EDGE('',*,*,#230,.F.);
#125=ORIENTED_EDGE('',*,*,#228,.T.);
#126=ORIENTED_EDGE('',*,*,#209,.T.);
#127=ORIENTED_EDGE('',*,*,#220,.T.);
#128=ORIENTED_EDGE('',*,*,#223,.T.);
#129=ORIENTED_EDGE('',*,*,#224,.F.);
#130=ORIENTED_EDGE('',*,*,#198,.F.);
#131=ORIENTED_EDGE('',*,*,#227,.F.);
#132=ORIENTED_EDGE('',*,*,#229,.F.);
#133=ORIENTED_EDGE('',*,*,#230,.T.);
#134=ORIENTED_EDGE('',*,*,#216,.F.);
#135=ORIENTED_EDGE('',*,*,#225,.T.);
#136=ORIENTED_EDGE('',*,*,#221,.F.);
#137=ORIENTED_EDGE('',*,*,#218,.F.);
#138=ORIENTED_EDGE('',*,*,#177,.F.);
#139=ORIENTED_EDGE('',*,*,#214,.F.);
#140=ORIENTED_EDGE('',*,*,#231,.T.);
#141=ORIENTED_EDGE('',*,*,#232,.T.);
#142=ORIENTED_EDGE('',*,*,#233,.F.);
#143=ORIENTED_EDGE('',*,*,#234,.F.);
#144=ORIENTED_EDGE('',*,*,#232,.F.);
#145=ORIENTED_EDGE('',*,*,#235,.T.);
#146=ORIENTED_EDGE('',*,*,#236,.T.);
#147=ORIENTED_EDGE('',*,*,#206,.T.);
#148=ORIENTED_EDGE('',*,*,#237,.T.);
#149=ORIENTED_EDGE('',*,*,#236,.F.);
#150=ORIENTED_EDGE('',*,*,#238,.F.);
#151=ORIENTED_EDGE('',*,*,#202,.T.);
#152=ORIENTED_EDGE('',*,*,#184,.T.);
#153=ORIENTED_EDGE('',*,*,#204,.F.);
#154=ORIENTED_EDGE('',*,*,#239,.F.);
#155=ORIENTED_EDGE('',*,*,#240,.T.);
#156=ORIENTED_EDGE('',*,*,#179,.T.);
#157=ORIENTED_EDGE('',*,*,#240,.F.);
#158=ORIENTED_EDGE('',*,*,#241,.F.);
#159=ORIENTED_EDGE('',*,*,#242,.T.);
#160=ORIENTED_EDGE('',*,*,#180,.F.);
#161=ORIENTED_EDGE('',*,*,#242,.F.);
#162=ORIENTED_EDGE('',*,*,#243,.T.);
#163=ORIENTED_EDGE('',*,*,#212,.T.);
#164=ORIENTED_EDGE('',*,*,#213,.F.);
#165=ORIENTED_EDGE('',*,*,#243,.F.);
#166=ORIENTED_EDGE('',*,*,#241,.T.);
#167=ORIENTED_EDGE('',*,*,#239,.T.);
#168=ORIENTED_EDGE('',*,*,#203,.T.);
#169=ORIENTED_EDGE('',*,*,#238,.T.);
#170=ORIENTED_EDGE('',*,*,#235,.F.);
#171=ORIENTED_EDGE('',*,*,#231,.F.);
#172=ORIENTED_EDGE('',*,*,#217,.T.);
#173=ORIENTED_EDGE('',*,*,#233,.T.);
#174=ORIENTED_EDGE('',*,*,#234,.T.);
#175=ORIENTED_EDGE('',*,*,#237,.F.);
#176=EDGE_CURVE('',#244,#245,#288,.T.);
#177=EDGE_CURVE('',#244,#246,#20,.T.);
#178=EDGE_CURVE('',#246,#245,#289,.T.);
#179=EDGE_CURVE('',#247,#248,#290,.T.);
#180=EDGE_CURVE('',#247,#249,#21,.T.);
#181=EDGE_CURVE('',#250,#249,#291,.T.);
#182=EDGE_CURVE('',#251,#250,#292,.T.);
#183=EDGE_CURVE('',#251,#252,#293,.T.);
#184=EDGE_CURVE('',#248,#252,#22,.T.);
#185=EDGE_CURVE('',#253,#254,#294,.T.);
#186=EDGE_CURVE('',#253,#255,#23,.T.);
#187=EDGE_CURVE('',#254,#255,#295,.T.);
#188=EDGE_CURVE('',#256,#257,#24,.T.);
#189=EDGE_CURVE('',#256,#258,#296,.T.);
#190=EDGE_CURVE('',#258,#259,#25,.T.);
#191=EDGE_CURVE('',#260,#259,#297,.T.);
#192=EDGE_CURVE('',#260,#261,#298,.T.);
#193=EDGE_CURVE('',#261,#257,#299,.T.);
#194=EDGE_CURVE('',#262,#263,#26,.T.);
#195=EDGE_CURVE('',#262,#264,#300,.T.);
#196=EDGE_CURVE('',#263,#264,#301,.T.);
#197=EDGE_CURVE('',#265,#259,#302,.T.);
#198=EDGE_CURVE('',#265,#266,#303,.T.);
#199=EDGE_CURVE('',#266,#253,#304,.T.);
#200=EDGE_CURVE('',#254,#267,#305,.T.);
#201=EDGE_CURVE('',#268,#267,#306,.T.);
#202=EDGE_CURVE('',#269,#268,#307,.T.);
#203=EDGE_CURVE('',#270,#269,#308,.T.);
#204=EDGE_CURVE('',#270,#252,#309,.T.);
#205=EDGE_CURVE('',#260,#251,#310,.T.);
#206=EDGE_CURVE('',#268,#271,#27,.T.);
#207=EDGE_CURVE('',#267,#271,#311,.T.);
#208=EDGE_CURVE('',#272,#262,#312,.T.);
#209=EDGE_CURVE('',#273,#272,#313,.T.);
#210=EDGE_CURVE('',#273,#257,#314,.T.);
#211=EDGE_CURVE('',#261,#250,#315,.T.);
#212=EDGE_CURVE('',#274,#249,#316,.T.);
#213=EDGE_CURVE('',#274,#275,#317,.T.);
#214=EDGE_CURVE('',#275,#244,#318,.T.);
#215=EDGE_CURVE('',#264,#245,#319,.T.);
#216=EDGE_CURVE('',#255,#263,#320,.T.);
#217=EDGE_CURVE('',#271,#246,#321,.T.);
#218=EDGE_CURVE('',#263,#276,#28,.T.);
#219=EDGE_CURVE('',#277,#276,#322,.T.);
#220=EDGE_CURVE('',#272,#277,#29,.T.);
#221=EDGE_CURVE('',#276,#278,#323,.T.);
#222=EDGE_CURVE('',#279,#278,#324,.T.);
#223=EDGE_CURVE('',#277,#279,#325,.T.);
#224=EDGE_CURVE('',#266,#279,#30,.T.);
#225=EDGE_CURVE('',#255,#278,#31,.T.);
#226=EDGE_CURVE('',#280,#258,#326,.T.);
#227=EDGE_CURVE('',#280,#265,#32,.T.);
#228=EDGE_CURVE('',#281,#256,#327,.T.);
#229=EDGE_CURVE('',#281,#280,#328,.T.);
#230=EDGE_CURVE('',#281,#273,#33,.T.);
#231=EDGE_CURVE('',#275,#282,#34,.T.);
#232=EDGE_CURVE('',#282,#283,#329,.T.);
#233=EDGE_CURVE('',#246,#283,#35,.T.);
#234=EDGE_CURVE('',#283,#284,#330,.T.);
#235=EDGE_CURVE('',#282,#285,#331,.T.);
#236=EDGE_CURVE('',#285,#284,#332,.T.);
#237=EDGE_CURVE('',#271,#284,#36,.T.);
#238=EDGE_CURVE('',#269,#285,#37,.T.);
#239=EDGE_CURVE('',#286,#270,#38,.T.);
#240=EDGE_CURVE('',#286,#248,#333,.T.);
#241=EDGE_CURVE('',#287,#286,#334,.T.);
#242=EDGE_CURVE('',#287,#247,#335,.T.);
#243=EDGE_CURVE('',#287,#274,#39,.T.);
#244=VERTEX_POINT('',#684);
#245=VERTEX_POINT('',#685);
#246=VERTEX_POINT('',#687);
#247=VERTEX_POINT('',#691);
#248=VERTEX_POINT('',#692);
#249=VERTEX_POINT('',#694);
#250=VERTEX_POINT('',#696);
#251=VERTEX_POINT('',#698);
#252=VERTEX_POINT('',#700);
#253=VERTEX_POINT('',#704);
#254=VERTEX_POINT('',#705);
#255=VERTEX_POINT('',#707);
#256=VERTEX_POINT('',#711);
#257=VERTEX_POINT('',#712);
#258=VERTEX_POINT('',#714);
#259=VERTEX_POINT('',#716);
#260=VERTEX_POINT('',#718);
#261=VERTEX_POINT('',#720);
#262=VERTEX_POINT('',#724);
#263=VERTEX_POINT('',#725);
#264=VERTEX_POINT('',#727);
#265=VERTEX_POINT('',#731);
#266=VERTEX_POINT('',#733);
#267=VERTEX_POINT('',#736);
#268=VERTEX_POINT('',#738);
#269=VERTEX_POINT('',#740);
#270=VERTEX_POINT('',#742);
#271=VERTEX_POINT('',#747);
#272=VERTEX_POINT('',#751);
#273=VERTEX_POINT('',#753);
#274=VERTEX_POINT('',#757);
#275=VERTEX_POINT('',#759);
#276=VERTEX_POINT('',#768);
#277=VERTEX_POINT('',#770);
#278=VERTEX_POINT('',#774);
#279=VERTEX_POINT('',#776);
#280=VERTEX_POINT('',#783);
#281=VERTEX_POINT('',#787);
#282=VERTEX_POINT('',#795);
#283=VERTEX_POINT('',#797);
#284=VERTEX_POINT('',#801);
#285=VERTEX_POINT('',#803);
#286=VERTEX_POINT('',#810);
#287=VERTEX_POINT('',#814);
#288=LINE('',#683,#336);
#289=LINE('',#688,#337);
#290=LINE('',#690,#338);
#291=LINE('',#695,#339);
#292=LINE('',#697,#340);
#293=LINE('',#699,#341);
#294=LINE('',#703,#342);
#295=LINE('',#708,#343);
#296=LINE('',#713,#344);
#297=LINE('',#717,#345);
#298=LINE('',#719,#346);
#299=LINE('',#721,#347);
#300=LINE('',#726,#348);
#301=LINE('',#728,#349);
#302=LINE('',#730,#350);
#303=LINE('',#732,#351);
#304=LINE('',#734,#352);
#305=LINE('',#735,#353);
#306=LINE('',#737,#354);
#307=LINE('',#739,#355);
#308=LINE('',#741,#356);
#309=LINE('',#743,#357);
#310=LINE('',#744,#358);
#311=LINE('',#748,#359);
#312=LINE('',#750,#360);
#313=LINE('',#752,#361);
#314=LINE('',#754,#362);
#315=LINE('',#755,#363);
#316=LINE('',#756,#364);
#317=LINE('',#758,#365);
#318=LINE('',#760,#366);
#319=LINE('',#761,#367);
#320=LINE('',#764,#368);
#321=LINE('',#765,#369);
#322=LINE('',#769,#370);
#323=LINE('',#773,#371);
#324=LINE('',#775,#372);
#325=LINE('',#777,#373);
#326=LINE('',#782,#374);
#327=LINE('',#786,#375);
#328=LINE('',#788,#376);
#329=LINE('',#796,#377);
#330=LINE('',#800,#378);
#331=LINE('',#802,#379);
#332=LINE('',#804,#380);
#333=LINE('',#811,#381);
#334=LINE('',#813,#382);
#335=LINE('',#815,#383);
#336=VECTOR('',#543,1.);
#337=VECTOR('',#546,1.);
#338=VECTOR('',#549,1.);
#339=VECTOR('',#552,1.);
#340=VECTOR('',#553,1.);
#341=VECTOR('',#554,1.);
#342=VECTOR('',#559,1.);
#343=VECTOR('',#562,1.);
#344=VECTOR('',#567,1.);
#345=VECTOR('',#570,1.);
#346=VECTOR('',#571,1.);
#347=VECTOR('',#572,1.);
#348=VECTOR('',#577,1.);
#349=VECTOR('',#578,1.);
#350=VECTOR('',#581,1.);
#351=VECTOR('',#582,1.);
#352=VECTOR('',#583,1.);
#353=VECTOR('',#584,1.);
#354=VECTOR('',#585,1.);
#355=VECTOR('',#586,1.);
#356=VECTOR('',#587,1.);
#357=VECTOR('',#588,1.);
#358=VECTOR('',#589,1.);
#359=VECTOR('',#594,1.);
#360=VECTOR('',#597,1.);
#361=VECTOR('',#598,1.);
#362=VECTOR('',#599,1.);
#363=VECTOR('',#600,1.);
#364=VECTOR('',#601,1.);
#365=VECTOR('',#602,1.);
#366=VECTOR('',#603,1.);
#367=VECTOR('',#604,1.);
#368=VECTOR('',#609,1.);
#369=VECTOR('',#610,1.);
#370=VECTOR('',#615,1.);
#371=VECTOR('',#620,1.);
#372=VECTOR('',#621,1.);
#373=VECTOR('',#622,1.);
#374=VECTOR('',#631,1.);
#375=VECTOR('',#636,1.);
#376=VECTOR('',#637,1.);
#377=VECTOR('',#650,1.);
#378=VECTOR('',#655,1.);
#379=VECTOR('',#656,1.);
#380=VECTOR('',#657,1.);
#381=VECTOR('',#668,1.);
#382=VECTOR('',#671,1.);
#383=VECTOR('',#672,1.);
#384=EDGE_LOOP('',(#40,#41,#42));
#385=EDGE_LOOP('',(#43,#44,#45,#46,#47,#48));
#386=EDGE_LOOP('',(#49,#50,#51));
#387=EDGE_LOOP('',(#52,#53,#54,#55,#56,#57));
#388=EDGE_LOOP('',(#58,#59,#60));
#389=EDGE_LOOP('',(#61,#62,#63,#64,#65,#66,#67,#68,#69,#70,#71,#72));
#390=EDGE_LOOP('',(#73,#74,#75));
#391=EDGE_LOOP('',(#76,#77,#78,#79,#80,#81,#82,#83,#84,#85,#86,#87));
#392=EDGE_LOOP('',(#88,#89,#90,#91));
#393=EDGE_LOOP('',(#92,#93,#94,#95,#96,#97,#98,#99));
#394=EDGE_LOOP('',(#100,#101,#102,#103,#104));
#395=EDGE_LOOP('',(#105,#106,#107,#108));
#396=EDGE_LOOP('',(#109,#110,#111,#112,#113));
#397=EDGE_LOOP('',(#114,#115,#116,#117));
#398=EDGE_LOOP('',(#118,#119,#120,#121));
#399=EDGE_LOOP('',(#122,#123,#124,#125));
#400=EDGE_LOOP('',(#126,#127,#128,#129,#130,#131,#132,#133));
#401=EDGE_LOOP('',(#134,#135,#136,#137));
#402=EDGE_LOOP('',(#138,#139,#140,#141,#142));
#403=EDGE_LOOP('',(#143,#144,#145,#146));
#404=EDGE_LOOP('',(#147,#148,#149,#150,#151));
#405=EDGE_LOOP('',(#152,#153,#154,#155));
#406=EDGE_LOOP('',(#156,#157,#158,#159));
#407=EDGE_LOOP('',(#160,#161,#162,#163));
#408=EDGE_LOOP('',(#164,#165,#166,#167,#168,#169,#170,#171));
#409=EDGE_LOOP('',(#172,#173,#174,#175));
#410=FACE_BOUND('',#384,.T.);
#411=FACE_BOUND('',#385,.T.);
#412=FACE_BOUND('',#386,.T.);
#413=FACE_BOUND('',#387,.T.);
#414=FACE_BOUND('',#388,.T.);
#415=FACE_BOUND('',#389,.T.);
#416=FACE_BOUND('',#390,.T.);
#417=FACE_BOUND('',#391,.T.);
#418=FACE_BOUND('',#392,.T.);
#419=FACE_BOUND('',#393,.T.);
#420=FACE_BOUND('',#394,.T.);
#421=FACE_BOUND('',#395,.T.);
#422=FACE_BOUND('',#396,.T.);
#423=FACE_BOUND('',#397,.T.);
#424=FACE_BOUND('',#398,.T.);
#425=FACE_BOUND('',#399,.T.);
#426=FACE_BOUND('',#400,.T.);
#427=FACE_BOUND('',#401,.T.);
#428=FACE_BOUND('',#402,.T.);
#429=FACE_BOUND('',#403,.T.);
#430=FACE_BOUND('',#404,.T.);
#431=FACE_BOUND('',#405,.T.);
#432=FACE_BOUND('',#406,.T.);
#433=FACE_BOUND('',#407,.T.);
#434=FACE_BOUND('',#408,.T.);
#435=FACE_BOUND('',#409,.T.);
#436=PLANE('',#493);
#437=PLANE('',#495);
#438=PLANE('',#498);
#439=PLANE('',#500);
#440=PLANE('',#503);
#441=PLANE('',#505);
#442=PLANE('',#506);
#443=PLANE('',#508);
#444=PLANE('',#509);
#445=PLANE('',#510);
#446=PLANE('',#514);
#447=PLANE('',#520);
#448=PLANE('',#523);
#449=PLANE('',#524);
#450=PLANE('',#528);
#451=PLANE('',#534);
#452=PLANE('',#537);
#453=PLANE('',#538);
#454=ADVANCED_FACE('',(#410),#436,.F.);
#455=ADVANCED_FACE('',(#411),#437,.F.);
#456=ADVANCED_FACE('',(#412),#438,.T.);
#457=ADVANCED_FACE('',(#413),#439,.T.);
#458=ADVANCED_FACE('',(#414),#440,.T.);
#459=ADVANCED_FACE('',(#415),#441,.F.);
#460=ADVANCED_FACE('',(#416),#442,.F.);
#461=ADVANCED_FACE('',(#417),#443,.T.);
#462=ADVANCED_FACE('',(#418),#444,.T.);
#463=ADVANCED_FACE('',(#419),#445,.F.);
#464=ADVANCED_FACE('',(#420),#12,.T.);
#465=ADVANCED_FACE('',(#421),#446,.F.);
#466=ADVANCED_FACE('',(#422),#13,.T.);
#467=ADVANCED_FACE('',(#423),#14,.T.);
#468=ADVANCED_FACE('',(#424),#447,.T.);
#469=ADVANCED_FACE('',(#425),#15,.T.);
#470=ADVANCED_FACE('',(#426),#448,.T.);
#471=ADVANCED_FACE('',(#427),#449,.F.);
#472=ADVANCED_FACE('',(#428),#16,.T.);
#473=ADVANCED_FACE('',(#429),#450,.F.);
#474=ADVANCED_FACE('',(#430),#17,.T.);
#475=ADVANCED_FACE('',(#431),#18,.T.);
#476=ADVANCED_FACE('',(#432),#451,.T.);
#477=ADVANCED_FACE('',(#433),#19,.T.);
#478=ADVANCED_FACE('',(#434),#452,.T.);
#479=ADVANCED_FACE('',(#435),#453,.F.);
#480=CLOSED_SHELL('',(#454,#455,#456,#457,#458,#459,#460,#461,#462,#463,
#464,#465,#466,#467,#468,#469,#470,#471,#472,#473,#474,#475,#476,#477,#478,
#479));
#481=STYLED_ITEM('',(#482),#489);
#482=PRESENTATION_STYLE_ASSIGNMENT((#483));
#483=SURFACE_STYLE_USAGE(.BOTH.,#484);
#484=SURFACE_SIDE_STYLE('',(#485));
#485=SURFACE_STYLE_FILL_AREA(#486);
#486=FILL_AREA_STYLE('',(#487));
#487=FILL_AREA_STYLE_COLOUR('',#488);
#488=COLOUR_RGB('',0.972549019607843,0.529411764705882,0.00392156862745098);
#489=MANIFOLD_SOLID_BREP('turtle_small',#480);
#490=SHAPE_DEFINITION_REPRESENTATION(#826,#491);
#491=SHAPE_REPRESENTATION('turtle_small',(#492),#821);
#492=AXIS2_PLACEMENT_3D('',#681,#539,#540);
#493=AXIS2_PLACEMENT_3D('',#682,#541,#542);
#494=AXIS2_PLACEMENT_3D('',#686,#544,#545);
#495=AXIS2_PLACEMENT_3D('',#689,#547,#548);
#496=AXIS2_PLACEMENT_3D('',#693,#550,#551);
#497=AXIS2_PLACEMENT_3D('',#701,#555,#556);
#498=AXIS2_PLACEMENT_3D('',#702,#557,#558);
#499=AXIS2_PLACEMENT_3D('',#706,#560,#561);
#500=AXIS2_PLACEMENT_3D('',#709,#563,#564);
#501=AXIS2_PLACEMENT_3D('',#710,#565,#566);
#502=AXIS2_PLACEMENT_3D('',#715,#568,#569);
#503=AXIS2_PLACEMENT_3D('',#722,#573,#574);
#504=AXIS2_PLACEMENT_3D('',#723,#575,#576);
#505=AXIS2_PLACEMENT_3D('',#729,#579,#580);
#506=AXIS2_PLACEMENT_3D('',#745,#590,#591);
#507=AXIS2_PLACEMENT_3D('',#746,#592,#593);
#508=AXIS2_PLACEMENT_3D('',#749,#595,#596);
#509=AXIS2_PLACEMENT_3D('',#762,#605,#606);
#510=AXIS2_PLACEMENT_3D('',#763,#607,#608);
#511=AXIS2_PLACEMENT_3D('',#766,#611,#612);
#512=AXIS2_PLACEMENT_3D('',#767,#613,#614);
#513=AXIS2_PLACEMENT_3D('',#771,#616,#617);
#514=AXIS2_PLACEMENT_3D('',#772,#618,#619);
#515=AXIS2_PLACEMENT_3D('',#778,#623,#624);
#516=AXIS2_PLACEMENT_3D('',#779,#625,#626);
#517=AXIS2_PLACEMENT_3D('',#780,#627,#628);
#518=AXIS2_PLACEMENT_3D('',#781,#629,#630);
#519=AXIS2_PLACEMENT_3D('',#784,#632,#633);
#520=AXIS2_PLACEMENT_3D('',#785,#634,#635);
#521=AXIS2_PLACEMENT_3D('',#789,#638,#639);
#522=AXIS2_PLACEMENT_3D('',#790,#640,#641);
#523=AXIS2_PLACEMENT_3D('',#791,#642,#643);
#524=AXIS2_PLACEMENT_3D('',#792,#644,#645);
#525=AXIS2_PLACEMENT_3D('',#793,#646,#647);
#526=AXIS2_PLACEMENT_3D('',#794,#648,#649);
#527=AXIS2_PLACEMENT_3D('',#798,#651,#652);
#528=AXIS2_PLACEMENT_3D('',#799,#653,#654);
#529=AXIS2_PLACEMENT_3D('',#805,#658,#659);
#530=AXIS2_PLACEMENT_3D('',#806,#660,#661);
#531=AXIS2_PLACEMENT_3D('',#807,#662,#663);
#532=AXIS2_PLACEMENT_3D('',#808,#664,#665);
#533=AXIS2_PLACEMENT_3D('',#809,#666,#667);
#534=AXIS2_PLACEMENT_3D('',#812,#669,#670);
#535=AXIS2_PLACEMENT_3D('',#816,#673,#674);
#536=AXIS2_PLACEMENT_3D('',#817,#675,#676);
#537=AXIS2_PLACEMENT_3D('',#818,#677,#678);
#538=AXIS2_PLACEMENT_3D('',#819,#679,#680);
#539=DIRECTION('',(0.,0.,1.));
#540=DIRECTION('',(1.,0.,0.));
#541=DIRECTION('',(1.,8.78341000494586E-17,0.));
#542=DIRECTION('',(-8.78341000494586E-17,1.,0.));
#543=DIRECTION('',(0.,0.,-1.));
#544=DIRECTION('',(1.,-8.78341000494586E-17,0.));
#545=DIRECTION('',(8.78341000494586E-17,1.,0.));
#546=DIRECTION('',(8.78341000494586E-17,-1.,0.));
#547=DIRECTION('',(1.,8.78341000494586E-17,0.));
#548=DIRECTION('',(-8.78341000494586E-17,1.,0.));
#549=DIRECTION('',(8.78341000494586E-17,1.,0.));
#550=DIRECTION('',(1.,-8.78341000494586E-17,0.));
#551=DIRECTION('',(8.78341000494586E-17,1.,0.));
#552=DIRECTION('',(0.,0.,-1.));
#553=DIRECTION('',(8.78341000494586E-17,-1.,0.));
#554=DIRECTION('',(0.,0.,-1.));
#555=DIRECTION('',(-1.,8.78341000494586E-17,0.));
#556=DIRECTION('',(8.78341000494586E-17,1.,0.));
#557=DIRECTION('',(1.,8.78341000494586E-17,0.));
#558=DIRECTION('',(-8.78341000494586E-17,1.,0.));
#559=DIRECTION('',(0.,0.,-1.));
#560=DIRECTION('',(-1.,-8.78341000494586E-17,0.));
#561=DIRECTION('',(-8.78341000494586E-17,1.,0.));
#562=DIRECTION('',(8.78341000494586E-17,-1.,0.));
#563=DIRECTION('',(1.,8.78341000494586E-17,0.));
#564=DIRECTION('',(-8.78341000494586E-17,1.,0.));
#565=DIRECTION('',(1.,8.78341000494586E-17,0.));
#566=DIRECTION('',(-8.78341000494586E-17,1.,0.));
#567=DIRECTION('',(-8.78341000494586E-17,1.,0.));
#568=DIRECTION('',(-1.,-8.78341000494586E-17,0.));
#569=DIRECTION('',(-8.78341000494586E-17,1.,0.));
#570=DIRECTION('',(0.,0.,-1.));
#571=DIRECTION('',(8.78341000494586E-17,-1.,0.));
#572=DIRECTION('',(0.,0.,-1.));
#573=DIRECTION('',(1.,8.78341000494586E-17,0.));
#574=DIRECTION('',(-8.78341000494586E-17,1.,0.));
#575=DIRECTION('',(1.,8.78341000494586E-17,0.));
#576=DIRECTION('',(-8.78341000494586E-17,1.,0.));
#577=DIRECTION('',(0.,0.,-1.));
#578=DIRECTION('',(8.78341000494586E-17,-1.,0.));
#579=DIRECTION('',(-2.31296463463574E-16,-1.,0.));
#580=DIRECTION('',(1.,-2.31296463463574E-16,0.));
#581=DIRECTION('',(-1.,-8.78341000494586E-17,0.));
#582=DIRECTION('',(0.,0.,-1.));
#583=DIRECTION('',(-1.,-8.78341000494586E-17,0.));
#584=DIRECTION('',(-1.,2.31296463463574E-16,0.));
#585=DIRECTION('',(0.,0.,-1.));
#586=DIRECTION('',(1.,-8.78341000494586E-17,0.));
#587=DIRECTION('',(0.,0.,-1.));
#588=DIRECTION('',(1.,-8.78341000494586E-17,0.));
#589=DIRECTION('',(-1.,2.31296463463574E-16,0.));
#590=DIRECTION('',(1.,8.78341000494586E-17,0.));
#591=DIRECTION('',(-8.78341000494586E-17,1.,0.));
#592=DIRECTION('',(-1.,8.78341000494586E-17,0.));
#593=DIRECTION('',(8.78341000494586E-17,1.,0.));
#594=DIRECTION('',(8.78341000494586E-17,-1.,0.));
#595=DIRECTION('',(-2.31296463463574E-16,-1.,0.));
#596=DIRECTION('',(1.,-2.31296463463574E-16,0.));
#597=DIRECTION('',(-1.,-8.78341000494586E-17,0.));
#598=DIRECTION('',(0.,0.,-1.));
#599=DIRECTION('',(-1.,-8.78341000494586E-17,0.));
#600=DIRECTION('',(-1.,2.31296463463574E-16,0.));
#601=DIRECTION('',(1.,-8.78341000494586E-17,0.));
#602=DIRECTION('',(0.,0.,-1.));
#603=DIRECTION('',(1.,-8.78341000494586E-17,0.));
#604=DIRECTION('',(-1.,2.31296463463574E-16,0.));
#605=DIRECTION('',(0.,0.,1.));
#606=DIRECTION('',(1.,0.,0.));
#607=DIRECTION('',(0.,0.,1.));
#608=DIRECTION('',(1.,0.,0.));
#609=DIRECTION('',(8.78341000494586E-17,-1.,0.));
#610=DIRECTION('',(-8.78341000494586E-17,-1.,0.));
#611=DIRECTION('',(-1.,-8.78341000494586E-17,0.));
#612=DIRECTION('',(8.78341000494586E-17,-1.,0.));
#613=DIRECTION('',(1.,8.78341000494586E-17,0.));
#614=DIRECTION('',(-8.78341000494586E-17,1.,0.));
#615=DIRECTION('',(-1.,-8.78341000494586E-17,0.));
#616=DIRECTION('',(1.,8.78341000494586E-17,0.));
#617=DIRECTION('',(-8.78341000494586E-17,1.,0.));
#618=DIRECTION('',(0.,0.,1.));
#619=DIRECTION('',(1.,0.,0.));
#620=DIRECTION('',(-8.78341000494586E-17,1.,0.));
#621=DIRECTION('',(-1.,-8.78341000494586E-17,0.));
#622=DIRECTION('',(-8.78341000494586E-17,1.,0.));
#623=DIRECTION('',(-1.,-8.78341000494586E-17,0.));
#624=DIRECTION('',(8.78341000494586E-17,-1.,0.));
#625=DIRECTION('',(-1.,-8.78341000494586E-17,0.));
#626=DIRECTION('',(-8.78341000494586E-17,1.,0.));
#627=DIRECTION('',(-1.,-8.78341000494586E-17,0.));
#628=DIRECTION('',(-8.78341000494586E-17,1.,0.));
#629=DIRECTION('',(-1.,-8.78341000494586E-17,0.));
#630=DIRECTION('',(8.78341000494586E-17,-1.,0.));
#631=DIRECTION('',(-1.,-8.78341000494586E-17,0.));
#632=DIRECTION('',(-1.,-8.78341000494586E-17,0.));
#633=DIRECTION('',(-8.78341000494586E-17,1.,0.));
#634=DIRECTION('',(0.,0.,1.));
#635=DIRECTION('',(1.,0.,0.));
#636=DIRECTION('',(-1.,-8.78341000494586E-17,0.));
#637=DIRECTION('',(-8.78341000494586E-17,1.,0.));
#638=DIRECTION('',(-1.,-8.78341000494586E-17,0.));
#639=DIRECTION('',(8.78341000494586E-17,-1.,0.));
#640=DIRECTION('',(1.,8.78341000494586E-17,0.));
#641=DIRECTION('',(-8.78341000494586E-17,1.,0.));
#642=DIRECTION('',(1.,8.78341000494586E-17,0.));
#643=DIRECTION('',(-8.78341000494586E-17,1.,0.));
#644=DIRECTION('',(1.,8.78341000494586E-17,0.));
#645=DIRECTION('',(-8.78341000494586E-17,1.,0.));
#646=DIRECTION('',(1.,-8.78341000494586E-17,0.));
#647=DIRECTION('',(-8.78341000494586E-17,-1.,0.));
#648=DIRECTION('',(1.,-8.78341000494586E-17,0.));
#649=DIRECTION('',(8.78341000494586E-17,1.,0.));
#650=DIRECTION('',(1.,-8.78341000494586E-17,0.));
#651=DIRECTION('',(1.,-8.78341000494586E-17,0.));
#652=DIRECTION('',(8.78341000494586E-17,1.,0.));
#653=DIRECTION('',(0.,0.,1.));
#654=DIRECTION('',(-1.,0.,0.));
#655=DIRECTION('',(8.78341000494586E-17,1.,0.));
#656=DIRECTION('',(8.78341000494586E-17,1.,0.));
#657=DIRECTION('',(1.,-8.78341000494586E-17,0.));
#658=DIRECTION('',(1.,-8.78341000494586E-17,0.));
#659=DIRECTION('',(-8.78341000494586E-17,-1.,0.));
#660=DIRECTION('',(-1.,8.78341000494586E-17,0.));
#661=DIRECTION('',(8.78341000494586E-17,1.,0.));
#662=DIRECTION('',(-1.,8.78341000494586E-17,0.));
#663=DIRECTION('',(8.78341000494586E-17,1.,0.));
#664=DIRECTION('',(1.,-8.78341000494586E-17,0.));
#665=DIRECTION('',(-8.78341000494586E-17,-1.,0.));
#666=DIRECTION('',(-1.,8.78341000494586E-17,0.));
#667=DIRECTION('',(8.78341000494586E-17,1.,0.));
#668=DIRECTION('',(1.,-8.78341000494586E-17,0.));
#669=DIRECTION('',(0.,0.,1.));
#670=DIRECTION('',(-1.,0.,0.));
#671=DIRECTION('',(8.78341000494586E-17,1.,0.));
#672=DIRECTION('',(1.,-8.78341000494586E-17,0.));
#673=DIRECTION('',(1.,-8.78341000494586E-17,0.));
#674=DIRECTION('',(-8.78341000494586E-17,-1.,0.));
#675=DIRECTION('',(1.,-8.78341000494586E-17,0.));
#676=DIRECTION('',(8.78341000494586E-17,1.,0.));
#677=DIRECTION('',(-1.,8.78341000494586E-17,0.));
#678=DIRECTION('',(8.78341000494586E-17,1.,0.));
#679=DIRECTION('',(-1.,8.78341000494586E-17,0.));
#680=DIRECTION('',(8.78341000494586E-17,1.,0.));
#681=CARTESIAN_POINT('',(0.,0.,0.));
#682=CARTESIAN_POINT('',(-0.06,1.38777878078145E-17,0.0504));
#683=CARTESIAN_POINT('',(-0.06,-0.079,0.0504));
#684=CARTESIAN_POINT('',(-0.06,-0.079,0.0186355418078641));
#685=CARTESIAN_POINT('',(-0.06,-0.079,0.0083));
#686=CARTESIAN_POINT('',(-0.06,-0.058,0.02115));
#687=CARTESIAN_POINT('',(-0.06,-0.074798809481627,0.0083));
#688=CARTESIAN_POINT('',(-0.06,1.38777878078145E-17,0.0083));
#689=CARTESIAN_POINT('',(-0.06,1.38777878078145E-17,0.0504));
#690=CARTESIAN_POINT('',(-0.06,6.93889390390723E-18,0.0423));
#691=CARTESIAN_POINT('',(-0.06,-0.058,0.0423));
#692=CARTESIAN_POINT('',(-0.06,0.058,0.0423));
#693=CARTESIAN_POINT('',(-0.06,-0.058,0.02115));
#694=CARTESIAN_POINT('',(-0.06,-0.079,0.0236644581921359));
#695=CARTESIAN_POINT('',(-0.06,-0.079,0.0504));
#696=CARTESIAN_POINT('',(-0.06,-0.079,0.0504));
#697=CARTESIAN_POINT('',(-0.06,1.38777878078145E-17,0.0504));
#698=CARTESIAN_POINT('',(-0.06,0.079,0.0504));
#699=CARTESIAN_POINT('',(-0.06,0.079,0.0504));
#700=CARTESIAN_POINT('',(-0.06,0.079,0.0236644581921362));
#701=CARTESIAN_POINT('',(-0.06,0.058,0.02115));
#702=CARTESIAN_POINT('',(0.06,-1.38777878078145E-17,0.0504));
#703=CARTESIAN_POINT('',(0.06,0.079,0.0504));
#704=CARTESIAN_POINT('',(0.06,0.079,0.0186355418078638));
#705=CARTESIAN_POINT('',(0.06,0.079,0.0083));
#706=CARTESIAN_POINT('',(0.06,0.058,0.02115));
#707=CARTESIAN_POINT('',(0.06,0.074798809481627,0.0083));
#708=CARTESIAN_POINT('',(0.06,-1.38777878078145E-17,0.0083));
#709=CARTESIAN_POINT('',(0.06,-1.38777878078145E-17,0.0504));
#710=CARTESIAN_POINT('',(0.06,-0.058,0.02115));
#711=CARTESIAN_POINT('',(0.06,-0.058,0.0423));
#712=CARTESIAN_POINT('',(0.06,-0.079,0.0236644581921359));
#713=CARTESIAN_POINT('',(0.06,6.93889390390723E-18,0.0423));
#714=CARTESIAN_POINT('',(0.06,0.058,0.0423));
#715=CARTESIAN_POINT('',(0.06,0.058,0.02115));
#716=CARTESIAN_POINT('',(0.06,0.079,0.0236644581921362));
#717=CARTESIAN_POINT('',(0.06,0.079,0.0504));
#718=CARTESIAN_POINT('',(0.06,0.079,0.0504));
#719=CARTESIAN_POINT('',(0.06,-1.38777878078145E-17,0.0504));
#720=CARTESIAN_POINT('',(0.06,-0.079,0.0504));
#721=CARTESIAN_POINT('',(0.06,-0.079,0.0504));
#722=CARTESIAN_POINT('',(0.06,-1.38777878078145E-17,0.0504));
#723=CARTESIAN_POINT('',(0.06,-0.058,0.02115));
#724=CARTESIAN_POINT('',(0.06,-0.079,0.0186355418078641));
#725=CARTESIAN_POINT('',(0.06,-0.074798809481627,0.0083));
#726=CARTESIAN_POINT('',(0.06,-0.079,0.0504));
#727=CARTESIAN_POINT('',(0.06,-0.079,0.0083));
#728=CARTESIAN_POINT('',(0.06,-1.38777878078145E-17,0.0083));
#729=CARTESIAN_POINT('',(-6.93889390390723E-18,0.079,0.0504));
#730=CARTESIAN_POINT('',(0.0888,0.079,0.0236644581921362));
#731=CARTESIAN_POINT('',(0.0888,0.079,0.0236644581921362));
#732=CARTESIAN_POINT('',(0.0888,0.079,0.0504));
#733=CARTESIAN_POINT('',(0.0888,0.079,0.0186355418078638));
#734=CARTESIAN_POINT('',(0.0888,0.079,0.0186355418078638));
#735=CARTESIAN_POINT('',(-6.93889390390723E-18,0.079,0.0083));
#736=CARTESIAN_POINT('',(-0.06,0.079,0.0083));
#737=CARTESIAN_POINT('',(-0.06,0.079,0.0504));
#738=CARTESIAN_POINT('',(-0.06,0.079,0.0186355418078638));
#739=CARTESIAN_POINT('',(-0.0888,0.079,0.0186355418078638));
#740=CARTESIAN_POINT('',(-0.0888,0.079,0.0186355418078638));
#741=CARTESIAN_POINT('',(-0.0888,0.079,0.0504));
#742=CARTESIAN_POINT('',(-0.0888,0.079,0.0236644581921362));
#743=CARTESIAN_POINT('',(-0.0888,0.079,0.0236644581921362));
#744=CARTESIAN_POINT('',(-6.93889390390723E-18,0.079,0.0504));
#745=CARTESIAN_POINT('',(-0.06,1.38777878078145E-17,0.0504));
#746=CARTESIAN_POINT('',(-0.06,0.058,0.02115));
#747=CARTESIAN_POINT('',(-0.06,0.074798809481627,0.0083));
#748=CARTESIAN_POINT('',(-0.06,1.38777878078145E-17,0.0083));
#749=CARTESIAN_POINT('',(6.93889390390723E-18,-0.079,0.0504));
#750=CARTESIAN_POINT('',(0.0888,-0.079,0.0186355418078641));
#751=CARTESIAN_POINT('',(0.0888,-0.079,0.0186355418078641));
#752=CARTESIAN_POINT('',(0.0888,-0.079,0.0504));
#753=CARTESIAN_POINT('',(0.0888,-0.079,0.0236644581921359));
#754=CARTESIAN_POINT('',(0.0888,-0.079,0.0236644581921359));
#755=CARTESIAN_POINT('',(6.93889390390723E-18,-0.079,0.0504));
#756=CARTESIAN_POINT('',(-0.0888,-0.079,0.0236644581921359));
#757=CARTESIAN_POINT('',(-0.0888,-0.079,0.0236644581921359));
#758=CARTESIAN_POINT('',(-0.0888,-0.079,0.0504));
#759=CARTESIAN_POINT('',(-0.0888,-0.079,0.0186355418078641));
#760=CARTESIAN_POINT('',(-0.0888,-0.079,0.0186355418078641));
#761=CARTESIAN_POINT('',(6.93889390390723E-18,-0.079,0.0083));
#762=CARTESIAN_POINT('',(0.,0.,0.0504));
#763=CARTESIAN_POINT('',(0.,0.,0.0083));
#764=CARTESIAN_POINT('',(0.06,-1.38777878078145E-17,0.0083));
#765=CARTESIAN_POINT('',(-0.06,-1.38777878078145E-17,0.0083));
#766=CARTESIAN_POINT('',(0.0888,-0.058,0.02115));
#767=CARTESIAN_POINT('',(0.06,-0.058,0.02115));
#768=CARTESIAN_POINT('',(0.06,-0.058,0.));
#769=CARTESIAN_POINT('',(0.0888,-0.058,0.));
#770=CARTESIAN_POINT('',(0.0888,-0.058,0.));
#771=CARTESIAN_POINT('',(0.0888,-0.058,0.02115));
#772=CARTESIAN_POINT('',(0.0888,1.64074098892388E-17,0.));
#773=CARTESIAN_POINT('',(0.06,1.38777878078145E-17,0.));
#774=CARTESIAN_POINT('',(0.06,0.058,0.));
#775=CARTESIAN_POINT('',(0.0888,0.058,0.));
#776=CARTESIAN_POINT('',(0.0888,0.058,0.));
#777=CARTESIAN_POINT('',(0.0888,1.64074098892388E-17,0.));
#778=CARTESIAN_POINT('',(0.0888,0.058,0.02115));
#779=CARTESIAN_POINT('',(0.0888,0.058,0.02115));
#780=CARTESIAN_POINT('',(0.06,0.058,0.02115));
#781=CARTESIAN_POINT('',(0.0888,0.058,0.02115));
#782=CARTESIAN_POINT('',(0.0888,0.058,0.0423));
#783=CARTESIAN_POINT('',(0.0888,0.058,0.0423));
#784=CARTESIAN_POINT('',(0.0888,0.058,0.02115));
#785=CARTESIAN_POINT('',(0.0888,9.46851598533163E-18,0.0423));
#786=CARTESIAN_POINT('',(0.0888,-0.058,0.0423));
#787=CARTESIAN_POINT('',(0.0888,-0.058,0.0423));
#788=CARTESIAN_POINT('',(0.0888,9.46851598533163E-18,0.0423));
#789=CARTESIAN_POINT('',(0.0888,-0.058,0.02115));
#790=CARTESIAN_POINT('',(0.0888,-0.058,0.02115));
#791=CARTESIAN_POINT('',(0.0888,2.16774558922064E-17,0.0252));
#792=CARTESIAN_POINT('',(0.06,1.91478338107819E-17,0.0252));
#793=CARTESIAN_POINT('',(-0.0888,-0.058,0.02115));
#794=CARTESIAN_POINT('',(-0.0888,-0.058,0.02115));
#795=CARTESIAN_POINT('',(-0.0888,-0.058,0.));
#796=CARTESIAN_POINT('',(-0.0888,-0.058,0.));
#797=CARTESIAN_POINT('',(-0.06,-0.058,0.));
#798=CARTESIAN_POINT('',(-0.06,-0.058,0.02115));
#799=CARTESIAN_POINT('',(-0.0888,1.64074098892388E-17,0.));
#800=CARTESIAN_POINT('',(-0.06,1.38777878078145E-17,0.));
#801=CARTESIAN_POINT('',(-0.06,0.058,0.));
#802=CARTESIAN_POINT('',(-0.0888,1.64074098892388E-17,0.));
#803=CARTESIAN_POINT('',(-0.0888,0.058,0.));
#804=CARTESIAN_POINT('',(-0.0888,0.058,0.));
#805=CARTESIAN_POINT('',(-0.0888,0.058,0.02115));
#806=CARTESIAN_POINT('',(-0.06,0.058,0.02115));
#807=CARTESIAN_POINT('',(-0.0888,0.058,0.02115));
#808=CARTESIAN_POINT('',(-0.0888,0.058,0.02115));
#809=CARTESIAN_POINT('',(-0.0888,0.058,0.02115));
#810=CARTESIAN_POINT('',(-0.0888,0.058,0.0423));
#811=CARTESIAN_POINT('',(-0.0888,0.058,0.0423));
#812=CARTESIAN_POINT('',(-0.0888,9.46851598533163E-18,0.0423));
#813=CARTESIAN_POINT('',(-0.0888,9.46851598533163E-18,0.0423));
#814=CARTESIAN_POINT('',(-0.0888,-0.058,0.0423));
#815=CARTESIAN_POINT('',(-0.0888,-0.058,0.0423));
#816=CARTESIAN_POINT('',(-0.0888,-0.058,0.02115));
#817=CARTESIAN_POINT('',(-0.0888,-0.058,0.02115));
#818=CARTESIAN_POINT('',(-0.0888,2.16774558922064E-17,0.0252));
#819=CARTESIAN_POINT('',(-0.06,1.91478338107819E-17,0.0252));
#820=MECHANICAL_DESIGN_GEOMETRIC_PRESENTATION_REPRESENTATION('',(#481),
#821);
#821=(
GEOMETRIC_REPRESENTATION_CONTEXT(3)
GLOBAL_UNCERTAINTY_ASSIGNED_CONTEXT((#822))
GLOBAL_UNIT_ASSIGNED_CONTEXT((#825,#824,#823))
REPRESENTATION_CONTEXT('turtle_small','TOP_LEVEL_ASSEMBLY_PART')
);
#822=UNCERTAINTY_MEASURE_WITH_UNIT(LENGTH_MEASURE(1.E-8),#825,
'DISTANCE_ACCURACY_VALUE','Maximum Tolerance applied to model');
#823=(
NAMED_UNIT(*)
SI_UNIT($,.STERADIAN.)
SOLID_ANGLE_UNIT()
);
#824=(
NAMED_UNIT(*)
PLANE_ANGLE_UNIT()
SI_UNIT($,.RADIAN.)
);
#825=(
LENGTH_UNIT()
NAMED_UNIT(*)
SI_UNIT($,.METRE.)
);
#826=PRODUCT_DEFINITION_SHAPE('','',#827);
#827=PRODUCT_DEFINITION('','',#829,#828);
#828=PRODUCT_DEFINITION_CONTEXT('',#835,'design');
#829=PRODUCT_DEFINITION_FORMATION_WITH_SPECIFIED_SOURCE('','',#831,
 .NOT_KNOWN.);
#830=PRODUCT_RELATED_PRODUCT_CATEGORY('','',(#831));
#831=PRODUCT('turtle_small','turtle_small','turtle_small',(#833));
#832=PRODUCT_CATEGORY('','');
#833=PRODUCT_CONTEXT('',#835,'mechanical');
#834=APPLICATION_PROTOCOL_DEFINITION('international standard',
'ap242_managed_model_based_3d_engineering',2020,#835);
#835=APPLICATION_CONTEXT('managed model based 3d engineering');
ENDSEC;
END-ISO-10303-21;
