{
    "accessors": [
        {
            "bufferView": 0,
            "componentType": 5126,
            "count": 12,
            "max": [
                0.006289015058428049,
                0.001509999972768128,
                0.0008938166429288685
            ],
            "min": [
                0.005879924166947603,
                0.001500000013038516,
                0.000727824168279767
            ],
            "name": "mesh7625_coord_accessor",
            "type": "VEC3"
        },
        {
            "bufferView": 1,
            "componentType": 5126,
            "count": 12,
            "max": [
                -0.009489310905337334,
                0.0,
                -0.036276064813137054
            ],
            "min": [
                -0.9993417859077454,
                0.0,
                -0.9999549984931946
            ],
            "name": "mesh7625_norm_accessor",
            "type": "VEC3"
        },
        {
            "bufferView": 2,
            "componentType": 5125,
            "count": 30,
            "max": [
                11
            ],
            "min": [
                0
            ],
            "name": "mesh7625_idx_accessor",
            "type": "SCALAR"
        },
        {
            "bufferView": 3,
            "componentType": 5126,
            "count": 12,
            "max": [
                0.005879924166947603,
                0.001509999972768128,
                0.0008938166429288685
            ],
            "min": [
                0.005470833275467157,
                0.001500000013038516,
                0.0007339116418734193
            ],
            "name": "mesh7626_coord_accessor",
            "type": "VEC3"
        },
        {
            "bufferView": 4,
            "componentType": 5126,
            "count": 12,
            "max": [
                0.9994102120399475,
                -3.299304082092496e-23,
                -0.03433917835354805
            ],
            "min": [
                0.009459895081818104,
                -1.3939118075393352e-14,
                -0.9999552369117737
            ],
            "name": "mesh7626_norm_accessor",
            "type": "VEC3"
        },
        {
            "bufferView": 5,
            "componentType": 5125,
            "count": 30,
            "max": [
                11
            ],
            "min": [
                0
            ],
            "name": "mesh7626_idx_accessor",
            "type": "SCALAR"
        },
        {
            "bufferView": 6,
            "componentType": 5126,
            "count": 14,
            "max": [
                0.005879924166947603,
                0.001509999972768128,
                0.0007339164149016142
            ],
            "min": [
                0.005470833275467157,
                0.001500000013038516,
                0.000569141295272857
            ],
            "name": "mesh7627_coord_accessor",
            "type": "VEC3"
        },
        {
            "bufferView": 7,
            "componentType": 5126,
            "count": 14,
            "max": [
                0.9995182752609253,
                -1.6758061123175736e-29,
                0.9999567866325378
            ],
            "min": [
                0.009298628196120262,
                -4.3261821322231205e-16,
                0.03103487938642502
            ],
            "name": "mesh7627_norm_accessor",
            "type": "VEC3"
        },
        {
            "bufferView": 8,
            "componentType": 5125,
            "count": 36,
            "max": [
                13
            ],
            "min": [
                0
            ],
            "name": "mesh7627_idx_accessor",
            "type": "SCALAR"
        },
        {
            "bufferView": 9,
            "componentType": 5126,
            "count": 12,
            "max": [
                0.006289015058428049,
                0.001509999972768128,
                0.0007278285338543355
            ],
            "min": [
                0.005879924166947603,
                0.001500000013038516,
                0.000569141295272857
            ],
            "name": "mesh7628_coord_accessor",
            "type": "VEC3"
        },
        {
            "bufferView": 10,
            "componentType": 5126,
            "count": 12,
            "max": [
                -0.009633749723434448,
                0.0,
                0.99995356798172
            ],
            "min": [
                -0.9994156360626221,
                0.0,
                0.03418103978037834
            ],
            "name": "mesh7628_norm_accessor",
            "type": "VEC3"
        },
        {
            "bufferView": 11,
            "componentType": 5125,
            "count": 30,
            "max": [
                11
            ],
            "min": [
                0
            ],
            "name": "mesh7628_idx_accessor",
            "type": "SCALAR"
        },
        {
            "bufferView": 12,
            "componentType": 5126,
            "count": 42,
            "max": [
                0.006392911076545715,
                0.001500000013038516,
                0.0009977127192541957
            ],
            "min": [
                0.005366937257349491,
                0.001500000013038516,
                0.00046524518984369934
            ],
            "name": "mesh7629_coord_accessor",
            "type": "VEC3"
        },
        {
            "bufferView": 13,
            "componentType": 5126,
            "count": 42,
            "max": [
                -0.0,
                -1.0,
                -0.0
            ],
            "min": [
                -0.0,
                -1.0,
                -0.0
            ],
            "name": "mesh7629_norm_accessor",
            "type": "VEC3"
        },
        {
            "bufferView": 14,
            "componentType": 5125,
            "count": 126,
            "max": [
                41
            ],
            "min": [
                0
            ],
            "name": "mesh7629_idx_accessor",
            "type": "SCALAR"
        },
        {
            "bufferView": 15,
            "componentType": 5126,
            "count": 42,
            "max": [
                0.006392911076545715,
                0.001509999972768128,
                0.0009977127192541957
            ],
            "min": [
                0.005366937257349491,
                0.001509999972768128,
                0.00046524518984369934
            ],
            "name": "mesh7630_coord_accessor",
            "type": "VEC3"
        },
        {
            "bufferView": 16,
            "componentType": 5126,
            "count": 42,
            "max": [
                0.0,
                1.0,
                0.0
            ],
            "min": [
                0.0,
                1.0,
                0.0
            ],
            "name": "mesh7630_norm_accessor",
            "type": "VEC3"
        },
        {
            "bufferView": 17,
            "componentType": 5125,
            "count": 126,
            "max": [
                41
            ],
            "min": [
                0
            ],
            "name": "mesh7630_idx_accessor",
            "type": "SCALAR"
        },
        {
            "bufferView": 18,
            "componentType": 5126,
            "count": 12,
            "max": [
                0.006392911076545715,
                0.001509999972768128,
                0.0007320899167098105
            ],
            "min": [
                0.005879518575966358,
                0.001500000013038516,
                0.00046524518984369934
            ],
            "name": "mesh7631_coord_accessor",
            "type": "VEC3"
        },
        {
            "bufferView": 19,
            "componentType": 5126,
            "count": 12,
            "max": [
                0.9993814826011658,
                9.708890185951627e-14,
                -0.03516659140586853
            ],
            "min": [
                0.00807444378733635,
                1.7384306494654276e-27,
                -0.9999673962593079
            ],
            "name": "mesh7631_norm_accessor",
            "type": "VEC3"
        },
        {
            "bufferView": 20,
            "componentType": 5125,
            "count": 30,
            "max": [
                11
            ],
            "min": [
                0
            ],
            "name": "mesh7631_idx_accessor",
            "type": "SCALAR"
        },
        {
            "bufferView": 21,
            "componentType": 5126,
            "count": 8,
            "max": [
                0.006392911076545715,
                0.001509999972768128,
                0.0009161390480585396
            ],
            "min": [
                0.006287389900535345,
                0.001500000013038516,
                0.0007320854347199202
            ],
            "name": "mesh7632_coord_accessor",
            "type": "VEC3"
        },
        {
            "bufferView": 22,
            "componentType": 5126,
            "count": 8,
            "max": [
                0.9994858503341675,
                0.0,
                0.8265135884284973
            ],
            "min": [
                0.5629167556762695,
                0.0,
                0.03206286206841469
            ],
            "name": "mesh7632_norm_accessor",
            "type": "VEC3"
        },
        {
            "bufferView": 23,
            "componentType": 5125,
            "count": 18,
            "max": [
                7
            ],
            "min": [
                0
            ],
            "name": "mesh7632_idx_accessor",
            "type": "SCALAR"
        },
        {
            "bufferView": 24,
            "componentType": 5126,
            "count": 8,
            "max": [
                0.0062873936258256435,
                0.001509999972768128,
                0.0009977127192541957
            ],
            "min": [
                0.005879518575966358,
                0.001500000013038516,
                0.0009161368361674249
            ],
            "name": "mesh7633_coord_accessor",
            "type": "VEC3"
        },
        {
            "bufferView": 25,
            "componentType": 5126,
            "count": 8,
            "max": [
                0.5048635601997375,
                0.0,
                0.9999598264694214
            ],
            "min": [
                0.008965353481471539,
                0.0,
                0.8631991147994995
            ],
            "name": "mesh7633_norm_accessor",
            "type": "VEC3"
        },
        {
            "bufferView": 26,
            "componentType": 5125,
            "count": 18,
            "max": [
                7
            ],
            "min": [
                0
            ],
            "name": "mesh7633_idx_accessor",
            "type": "SCALAR"
        },
        {
            "bufferView": 27,
            "componentType": 5126,
            "count": 12,
            "max": [
                0.005879518575966358,
                0.001509999972768128,
                0.0009977127192541957
            ],
            "min": [
                0.005366937257349491,
                0.001500000013038516,
                0.0007308680796995759
            ],
            "name": "mesh7634_coord_accessor",
            "type": "VEC3"
        },
        {
            "bufferView": 28,
            "componentType": 5126,
            "count": 12,
            "max": [
                -0.007998555898666382,
                4.1684471273898327e-16,
                0.9999679923057556
            ],
            "min": [
                -0.9994158744812012,
                9.546546597152255e-30,
                0.03417523577809334
            ],
            "name": "mesh7634_norm_accessor",
            "type": "VEC3"
        },
        {
            "bufferView": 29,
            "componentType": 5125,
            "count": 30,
            "max": [
                11
            ],
            "min": [
                0
            ],
            "name": "mesh7634_idx_accessor",
            "type": "SCALAR"
        },
        {
            "bufferView": 30,
            "componentType": 5126,
            "count": 12,
            "max": [
                0.005879518575966358,
                0.001509999972768128,
                0.0007308723288588226
            ],
            "min": [
                0.005366937257349491,
                0.001500000013038516,
                0.00046524518984369934
            ],
            "name": "mesh7635_coord_accessor",
            "type": "VEC3"
        },
        {
            "bufferView": 31,
            "componentType": 5126,
            "count": 12,
            "max": [
                -0.0103543596342206,
                -4.088079948107925e-24,
                -0.03783322498202324
            ],
            "min": [
                -0.9992840886116028,
                -9.478226681975104e-15,
                -0.9999464154243469
            ],
            "name": "mesh7635_norm_accessor",
            "type": "VEC3"
        },
        {
            "bufferView": 32,
            "componentType": 5125,
            "count": 30,
            "max": [
                11
            ],
            "min": [
                0
            ],
            "name": "mesh7635_idx_accessor",
            "type": "SCALAR"
        }
    ],
    "asset": {
        "generator": "ONSHAPE BY PTC INC, 1.214",
        "version": "2.0"
    },
    "bufferViews": [
        {
            "buffer": 0,
            "byteLength": 144,
            "name": "mesh7625_coord_bufferView",
            "target": 34962
        },
        {
            "buffer": 0,
            "byteLength": 144,
            "byteOffset": 144,
            "name": "mesh7625_norm_bufferView",
            "target": 34962
        },
        {
            "buffer": 0,
            "byteLength": 120,
            "byteOffset": 288,
            "name": "mesh7625_idx_bufferView",
            "target": 34963
        },
        {
            "buffer": 0,
            "byteLength": 144,
            "byteOffset": 408,
            "name": "mesh7626_coord_bufferView",
            "target": 34962
        },
        {
            "buffer": 0,
            "byteLength": 144,
            "byteOffset": 552,
            "name": "mesh7626_norm_bufferView",
            "target": 34962
        },
        {
            "buffer": 0,
            "byteLength": 120,
            "byteOffset": 696,
            "name": "mesh7626_idx_bufferView",
            "target": 34963
        },
        {
            "buffer": 0,
            "byteLength": 168,
            "byteOffset": 816,
            "name": "mesh7627_coord_bufferView",
            "target": 34962
        },
        {
            "buffer": 0,
            "byteLength": 168,
            "byteOffset": 984,
            "name": "mesh7627_norm_bufferView",
            "target": 34962
        },
        {
            "buffer": 0,
            "byteLength": 144,
            "byteOffset": 1152,
            "name": "mesh7627_idx_bufferView",
            "target": 34963
        },
        {
            "buffer": 0,
            "byteLength": 144,
            "byteOffset": 1296,
            "name": "mesh7628_coord_bufferView",
            "target": 34962
        },
        {
            "buffer": 0,
            "byteLength": 144,
            "byteOffset": 1440,
            "name": "mesh7628_norm_bufferView",
            "target": 34962
        },
        {
            "buffer": 0,
            "byteLength": 120,
            "byteOffset": 1584,
            "name": "mesh7628_idx_bufferView",
            "target": 34963
        },
        {
            "buffer": 0,
            "byteLength": 504,
            "byteOffset": 1704,
            "name": "mesh7629_coord_bufferView",
            "target": 34962
        },
        {
            "buffer": 0,
            "byteLength": 504,
            "byteOffset": 2208,
            "name": "mesh7629_norm_bufferView",
            "target": 34962
        },
        {
            "buffer": 0,
            "byteLength": 504,
            "byteOffset": 2712,
            "name": "mesh7629_idx_bufferView",
            "target": 34963
        },
        {
            "buffer": 0,
            "byteLength": 504,
            "byteOffset": 3216,
            "name": "mesh7630_coord_bufferView",
            "target": 34962
        },
        {
            "buffer": 0,
            "byteLength": 504,
            "byteOffset": 3720,
            "name": "mesh7630_norm_bufferView",
            "target": 34962
        },
        {
            "buffer": 0,
            "byteLength": 504,
            "byteOffset": 4224,
            "name": "mesh7630_idx_bufferView",
            "target": 34963
        },
        {
            "buffer": 0,
            "byteLength": 144,
            "byteOffset": 4728,
            "name": "mesh7631_coord_bufferView",
            "target": 34962
        },
        {
            "buffer": 0,
            "byteLength": 144,
            "byteOffset": 4872,
            "name": "mesh7631_norm_bufferView",
            "target": 34962
        },
        {
            "buffer": 0,
            "byteLength": 120,
            "byteOffset": 5016,
            "name": "mesh7631_idx_bufferView",
            "target": 34963
        },
        {
            "buffer": 0,
            "byteLength": 96,
            "byteOffset": 5136,
            "name": "mesh7632_coord_bufferView",
            "target": 34962
        },
        {
            "buffer": 0,
            "byteLength": 96,
            "byteOffset": 5232,
            "name": "mesh7632_norm_bufferView",
            "target": 34962
        },
        {
            "buffer": 0,
            "byteLength": 72,
            "byteOffset": 5328,
            "name": "mesh7632_idx_bufferView",
            "target": 34963
        },
        {
            "buffer": 0,
            "byteLength": 96,
            "byteOffset": 5400,
            "name": "mesh7633_coord_bufferView",
            "target": 34962
        },
        {
            "buffer": 0,
            "byteLength": 96,
            "byteOffset": 5496,
            "name": "mesh7633_norm_bufferView",
            "target": 34962
        },
        {
            "buffer": 0,
            "byteLength": 72,
            "byteOffset": 5592,
            "name": "mesh7633_idx_bufferView",
            "target": 34963
        },
        {
            "buffer": 0,
            "byteLength": 144,
            "byteOffset": 5664,
            "name": "mesh7634_coord_bufferView",
            "target": 34962
        },
        {
            "buffer": 0,
            "byteLength": 144,
            "byteOffset": 5808,
            "name": "mesh7634_norm_bufferView",
            "target": 34962
        },
        {
            "buffer": 0,
            "byteLength": 120,
            "byteOffset": 5952,
            "name": "mesh7634_idx_bufferView",
            "target": 34963
        },
        {
            "buffer": 0,
            "byteLength": 144,
            "byteOffset": 6072,
            "name": "mesh7635_coord_bufferView",
            "target": 34962
        },
        {
            "buffer": 0,
            "byteLength": 144,
            "byteOffset": 6216,
            "name": "mesh7635_norm_bufferView",
            "target": 34962
        },
        {
            "buffer": 0,
            "byteLength": 120,
            "byteOffset": 6360,
            "name": "mesh7635_idx_bufferView",
            "target": 34963
        }
    ],
    "buffers": [
        {
            "byteLength": 6480,
            "name": "Total_buffer",
            "uri": "data:application/octet-stream;base64,"
        }
    ],
    "extensionsUsed": [
        "PTC_onshape_metadata"
    ],
    "materials": [
        {
            "doubleSided": true,
            "name": "0.498039_0.498039_0.498039_0.000000_0.000000",
            "pbrMetallicRoughness": {
                "baseColorFactor": [
                    0.49803921580314636,
                    0.49803921580314636,
                    0.49803921580314636,
                    1.0
                ],
                "metallicFactor": 0.0
            }
        },
        {
            "doubleSided": true,
            "name": "1.000000_0.956863_0.886275_0.000000_0.000000",
            "pbrMetallicRoughness": {
                "baseColorFactor": [
                    1.0,
                    0.95686274766922,
                    0.886274516582489,
                    1.0
                ],
                "metallicFactor": 0.0
            }
        },
        {
            "doubleSided": true,
            "name": "0.086275_0.215686_0.396078_0.000000_0.000000",
            "pbrMetallicRoughness": {
                "baseColorFactor": [
                    0.08627451211214066,
                    0.21568627655506134,
                    0.3960784375667572,
                    1.0
                ],
                "metallicFactor": 0.0
            }
        },
        {
            "doubleSided": true,
            "name": "0.101961_0.101961_0.101961_0.000000_0.000000",
            "pbrMetallicRoughness": {
                "baseColorFactor": [
                    0.10196078568696976,
                    0.10196078568696976,
                    0.10196078568696976,
                    1.0
                ],
                "metallicFactor": 0.0
            }
        },
        {
            "doubleSided": true,
            "name": "1.000000_1.000000_1.000000_0.000000_0.000000",
            "pbrMetallicRoughness": {
                "metallicFactor": 0.0
            }
        },
        {
            "doubleSided": true,
            "name": "1.000000_0.949020_0.894118_0.000000_0.000000",
            "pbrMetallicRoughness": {
                "baseColorFactor": [
                    1.0,
                    0.9490196108818054,
                    0.8941176533699036,
                    1.0
                ],
                "metallicFactor": 0.0
            }
        },
        {
            "doubleSided": true,
            "name": "0.000000_0.000000_0.541176_0.000000_0.000000",
            "pbrMetallicRoughness": {
                "baseColorFactor": [
                    0.0,
                    0.0,
                    0.5411764979362488,
                    1.0
                ],
                "metallicFactor": 0.0
            }
        },
        {
            "doubleSided": true,
            "name": "1.000000_0.756863_0.564706_0.000000_0.000000",
            "pbrMetallicRoughness": {
                "baseColorFactor": [
                    1.0,
                    0.7568627595901489,
                    0.5647059082984924,
                    1.0
                ],
                "metallicFactor": 0.0
            }
        },
        {
            "doubleSided": true,
            "name": "0.827451_0.666667_0.129412_0.000000_0.000000",
            "pbrMetallicRoughness": {
                "baseColorFactor": [
                    0.8274509906768799,
                    0.6666666865348816,
                    0.12941177189350128,
                    1.0
                ],
                "metallicFactor": 0.0
            }
        },
        {
            "doubleSided": true,
            "name": "0.741176_0.627451_0.023529_0.000000_0.000000",
            "pbrMetallicRoughness": {
                "baseColorFactor": [
                    0.7411764860153198,
                    0.6274510025978088,
                    0.0235294122248888,
                    1.0
                ],
                "metallicFactor": 0.0
            }
        },
        {
            "doubleSided": true,
            "name": "0.549020_0.549020_0.921569_0.000000_0.000000",
            "pbrMetallicRoughness": {
                "baseColorFactor": [
                    0.5490196347236633,
                    0.5490196347236633,
                    0.9215686321258545,
                    1.0
                ],
                "metallicFactor": 0.0
            }
        },
        {
            "doubleSided": true,
            "name": "0.811765_0.858824_0.898039_0.000000_0.000000",
            "pbrMetallicRoughness": {
                "baseColorFactor": [
                    0.8117647171020508,
                    0.8588235378265381,
                    0.8980392217636108,
                    1.0
                ],
                "metallicFactor": 0.0
            }
        },
        {
            "doubleSided": true,
            "name": "0.647059_0.647059_0.647059_0.000000_0.000000",
            "pbrMetallicRoughness": {
                "baseColorFactor": [
                    0.6470588445663452,
                    0.6470588445663452,
                    0.6470588445663452,
                    1.0
                ],
                "metallicFactor": 0.0
            }
        },
        {
            "doubleSided": true,
            "name": "0.800000_0.800000_0.800000_0.000000_0.000000",
            "pbrMetallicRoughness": {
                "baseColorFactor": [
                    0.800000011920929,
                    0.800000011920929,
                    0.800000011920929,
                    1.0
                ],
                "metallicFactor": 0.0
            }
        },
        {
            "doubleSided": true,
            "name": "0.878431_0.870588_0.870588_0.000000_0.000000",
            "pbrMetallicRoughness": {
                "baseColorFactor": [
                    0.8784313797950745,
                    0.8705882430076599,
                    0.8705882430076599,
                    1.0
                ],
                "metallicFactor": 0.0
            }
        },
        {
            "doubleSided": true,
            "name": "0.254902_0.254902_0.254902_0.000000_0.000000",
            "pbrMetallicRoughness": {
                "baseColorFactor": [
                    0.2549019753932953,
                    0.2549019753932953,
                    0.2549019753932953,
                    1.0
                ],
                "metallicFactor": 0.0
            }
        },
        {
            "doubleSided": true,
            "name": "0.019608_0.011765_0.145098_0.000000_0.000000",
            "pbrMetallicRoughness": {
                "baseColorFactor": [
                    0.019607843831181526,
                    0.0117647061124444,
                    0.14509804546833038,
                    1.0
                ],
                "metallicFactor": 0.0
            }
        },
        {
            "doubleSided": true,
            "name": "0.619608_0.615686_0.615686_0.000000_0.000000",
            "pbrMetallicRoughness": {
                "baseColorFactor": [
                    0.6196078658103943,
                    0.615686297416687,
                    0.615686297416687,
                    1.0
                ],
                "metallicFactor": 0.0
            }
        },
        {
            "doubleSided": true,
            "name": "0.192157_0.188235_0.188235_0.000000_0.000000",
            "pbrMetallicRoughness": {
                "baseColorFactor": [
                    0.1921568661928177,
                    0.1882352977991104,
                    0.1882352977991104,
                    1.0
                ],
                "metallicFactor": 0.0
            }
        },
        {
            "doubleSided": true,
            "name": "0.533333_0.533333_0.533333_0.000000_0.000000",
            "pbrMetallicRoughness": {
                "baseColorFactor": [
                    0.5333333611488342,
                    0.5333333611488342,
                    0.5333333611488342,
                    1.0
                ],
                "metallicFactor": 0.0
            }
        },
        {
            "doubleSided": true,
            "name": "0.494118_0.494118_0.525490_0.000000_0.000000",
            "pbrMetallicRoughness": {
                "baseColorFactor": [
                    0.4941176474094391,
                    0.4941176474094391,
                    0.5254902243614197,
                    1.0
                ],
                "metallicFactor": 0.0
            }
        },
        {
            "doubleSided": true,
            "name": "0.796078_0.796078_0.796078_0.000000_0.000000",
            "pbrMetallicRoughness": {
                "baseColorFactor": [
                    0.7960784435272217,
                    0.7960784435272217,
                    0.7960784435272217,
                    1.0
                ],
                "metallicFactor": 0.0
            }
        },
        {
            "doubleSided": true,
            "name": "0.937255_0.925490_0.854902_0.000000_0.000000",
            "pbrMetallicRoughness": {
                "baseColorFactor": [
                    0.9372549057006836,
                    0.9254902005195618,
                    0.8549019694328308,
                    1.0
                ],
                "metallicFactor": 0.0
            }
        },
        {
            "doubleSided": true,
            "name": "0.301961_0.301961_0.301961_0.000000_0.000000",
            "pbrMetallicRoughness": {
                "baseColorFactor": [
                    0.3019607961177826,
                    0.3019607961177826,
                    0.3019607961177826,
                    1.0
                ],
                "metallicFactor": 0.0
            }
        },
        {
            "doubleSided": true,
            "name": "0.807843_0.807843_0.807843_0.000000_0.000000",
            "pbrMetallicRoughness": {
                "baseColorFactor": [
                    0.8078431487083435,
                    0.8078431487083435,
                    0.8078431487083435,
                    1.0
                ],
                "metallicFactor": 0.0
            }
        },
        {
            "doubleSided": true,
            "name": "0.196078_0.439216_0.078431_0.000000_0.000000",
            "pbrMetallicRoughness": {
                "baseColorFactor": [
                    0.19607843458652496,
                    0.43921568989753723,
                    0.0784313753247261,
                    1.0
                ],
                "metallicFactor": 0.0
            }
        },
        {
            "doubleSided": true,
            "name": "0.282353_0.549020_0.160784_0.000000_0.250980",
            "pbrMetallicRoughness": {
                "baseColorFactor": [
                    0.2823529541492462,
                    0.5490196347236633,
                    0.16078431904315948,
                    0.7490196228027344
                ],
                "metallicFactor": 0.0
            }
        },
        {
            "doubleSided": true,
            "name": "0.000000_0.000000_0.000000_0.000000_0.000000",
            "pbrMetallicRoughness": {
                "baseColorFactor": [
                    0.0,
                    0.0,
                    0.0,
                    1.0
                ],
                "metallicFactor": 0.0
            }
        },
        {
            "doubleSided": true,
            "name": "0.250980_0.250980_0.250980_0.000000_0.000000",
            "pbrMetallicRoughness": {
                "baseColorFactor": [
                    0.250980406999588,
                    0.250980406999588,
                    0.250980406999588,
                    1.0
                ],
                "metallicFactor": 0.0
            }
        },
        {
            "doubleSided": true,
            "name": "0.000000_0.501961_0.000000_0.000000_0.000000",
            "pbrMetallicRoughness": {
                "baseColorFactor": [
                    0.0,
                    0.501960813999176,
                    0.0,
                    1.0
                ],
                "metallicFactor": 0.0
            }
        },
        {
            "doubleSided": true,
            "name": "0.752941_0.752941_0.752941_0.000000_0.000000",
            "pbrMetallicRoughness": {
                "baseColorFactor": [
                    0.7529411911964417,
                    0.7529411911964417,
                    0.7529411911964417,
                    1.0
                ],
                "metallicFactor": 0.0
            }
        },
        {
            "doubleSided": true,
            "name": "0.796078_0.823529_0.937255_0.000000_0.000000",
            "pbrMetallicRoughness": {
                "baseColorFactor": [
                    0.7960784435272217,
                    0.8235294222831726,
                    0.9372549057006836,
                    1.0
                ],
                "metallicFactor": 0.0
            }
        },
        {
            "doubleSided": true,
            "name": "0.960784_0.960784_0.964706_0.000000_0.000000",
            "pbrMetallicRoughness": {
                "baseColorFactor": [
                    0.9607843160629272,
                    0.9607843160629272,
                    0.9647058844566345,
                    1.0
                ],
                "metallicFactor": 0.0
            }
        },
        {
            "doubleSided": true,
            "name": "0.952941_0.796078_0.486275_0.000000_0.000000",
            "pbrMetallicRoughness": {
                "baseColorFactor": [
                    0.9529411792755127,
                    0.7960784435272217,
                    0.48627451062202454,
                    1.0
                ],
                "metallicFactor": 0.0
            }
        },
        {
            "doubleSided": true,
            "name": "0.627451_0.627451_0.627451_0.000000_0.000000",
            "pbrMetallicRoughness": {
                "baseColorFactor": [
                    0.6274510025978088,
                    0.6274510025978088,
                    0.6274510025978088,
                    1.0
                ],
                "metallicFactor": 0.0
            }
        },
        {
            "doubleSided": true,
            "name": "1.000000_1.000000_0.000000_0.000000_0.000000",
            "pbrMetallicRoughness": {
                "baseColorFactor": [
                    1.0,
                    1.0,
                    0.0,
                    1.0
                ],
                "metallicFactor": 0.0
            }
        },
        {
            "doubleSided": true,
            "name": "1.000000_0.000000_0.000000_0.000000_0.000000",
            "pbrMetallicRoughness": {
                "baseColorFactor": [
                    1.0,
                    0.0,
                    0.0,
                    1.0
                ],
                "metallicFactor": 0.0
            }
        },
        {
            "doubleSided": true,
            "name": "0.145098_0.462745_0.156863_0.000000_0.000000",
            "pbrMetallicRoughness": {
                "baseColorFactor": [
                    0.14509804546833038,
                    0.4627451002597809,
                    0.1568627506494522,
                    1.0
                ],
                "metallicFactor": 0.0
            }
        },
        {
            "doubleSided": true,
            "name": "0.964706_0.964706_0.952941_0.000000_0.000000",
            "pbrMetallicRoughness": {
                "baseColorFactor": [
                    0.9647058844566345,
                    0.9647058844566345,
                    0.9529411792755127,
                    1.0
                ],
                "metallicFactor": 0.0
            }
        },
        {
            "doubleSided": true,
            "name": "0.098039_0.098039_0.098039_0.000000_0.000000",
            "pbrMetallicRoughness": {
                "baseColorFactor": [
                    0.09803921729326248,
                    0.09803921729326248,
                    0.09803921729326248,
                    1.0
                ],
                "metallicFactor": 0.0
            }
        },
        {
            "doubleSided": true,
            "name": "0.000000_0.235294_1.000000_0.000000_0.000000",
            "pbrMetallicRoughness": {
                "baseColorFactor": [
                    0.0,
                    0.23529411852359772,
                    1.0,
                    1.0
                ],
                "metallicFactor": 0.0
            }
        },
        {
            "doubleSided": true,
            "name": "0.596078_0.121569_0.674510_0.000000_0.000000",
            "pbrMetallicRoughness": {
                "baseColorFactor": [
                    0.5960784554481506,
                    0.12156862765550613,
                    0.6745098233222961,
                    1.0
                ],
                "metallicFactor": 0.0
            }
        },
        {
            "doubleSided": true,
            "name": "1.000000_1.000000_1.000000_0.000000_0.600000",
            "pbrMetallicRoughness": {
                "baseColorFactor": [
                    1.0,
                    1.0,
                    1.0,
                    0.4000000059604645
                ],
                "metallicFactor": 0.0
            }
        },
        {
            "doubleSided": true,
            "name": "0.388235_0.400000_0.858824_0.000000_0.400000",
            "pbrMetallicRoughness": {
                "baseColorFactor": [
                    0.38823530077934265,
                    0.4000000059604645,
                    0.8588235378265381,
                    0.6000000238418579
                ],
                "metallicFactor": 0.0
            }
        },
        {
            "doubleSided": true,
            "name": "0.388235_0.858824_0.388235_0.000000_0.400000",
            "pbrMetallicRoughness": {
                "baseColorFactor": [
                    0.38823530077934265,
                    0.8588235378265381,
                    0.38823530077934265,
                    0.6000000238418579
                ],
                "metallicFactor": 0.0
            }
        },
        {
            "doubleSided": true,
            "name": "0.866667_0.909804_1.000000_0.000000_0.000000",
            "pbrMetallicRoughness": {
                "baseColorFactor": [
                    0.8666666746139526,
                    0.9098039269447327,
                    1.0,
                    1.0
                ],
                "metallicFactor": 0.0
            }
        },
        {
            "doubleSided": true,
            "name": "0.666667_0.701961_0.768627_0.000000_0.000000",
            "pbrMetallicRoughness": {
                "baseColorFactor": [
                    0.6666666865348816,
                    0.7019608020782471,
                    0.7686274647712708,
                    1.0
                ],
                "metallicFactor": 0.0
            }
        },
        {
            "doubleSided": true,
            "name": "0.501961_0.501961_0.501961_0.000000_0.000000",
            "pbrMetallicRoughness": {
                "baseColorFactor": [
                    0.501960813999176,
                    0.501960813999176,
                    0.501960813999176,
                    1.0
                ],
                "metallicFactor": 0.0
            }
        },
        {
            "doubleSided": true,
            "name": "0.925490_0.815686_0.439216_0.000000_0.000000",
            "pbrMetallicRoughness": {
                "baseColorFactor": [
                    0.9254902005195618,
                    0.8156862854957581,
                    0.43921568989753723,
                    1.0
                ],
                "metallicFactor": 0.0
            }
        },
        {
            "doubleSided": true,
            "name": "0.282353_0.662745_0.325490_0.000000_0.000000",
            "pbrMetallicRoughness": {
                "baseColorFactor": [
                    0.2823529541492462,
                    0.6627451181411743,
                    0.32549020648002625,
                    1.0
                ],
                "metallicFactor": 0.0
            }
        }
    ],
    "meshes": [
        {
            "name": "mesh7625_mesh",
            "primitives": [
                {
                    "attributes": {
                        "NORMAL": 1,
                        "POSITION": 0
                    },
                    "indices": 2,
                    "material": 41
                }
            ]
        },
        {
            "name": "mesh7626_mesh",
            "primitives": [
                {
                    "attributes": {
                        "NORMAL": 4,
                        "POSITION": 3
                    },
                    "indices": 5,
                    "material": 41
                }
            ]
        },
        {
            "name": "mesh7627_mesh",
            "primitives": [
                {
                    "attributes": {
                        "NORMAL": 7,
                        "POSITION": 6
                    },
                    "indices": 8,
                    "material": 41
                }
            ]
        },
        {
            "name": "mesh7628_mesh",
            "primitives": [
                {
                    "attributes": {
                        "NORMAL": 10,
                        "POSITION": 9
                    },
                    "indices": 11,
                    "material": 41
                }
            ]
        },
        {
            "name": "mesh7629_mesh",
            "primitives": [
                {
                    "attributes": {
                        "NORMAL": 13,
                        "POSITION": 12
                    },
                    "indices": 14,
                    "material": 41
                }
            ]
        },
        {
            "name": "mesh7630_mesh",
            "primitives": [
                {
                    "attributes": {
                        "NORMAL": 16,
                        "POSITION": 15
                    },
                    "indices": 17,
                    "material": 41
                }
            ]
        },
        {
            "name": "mesh7631_mesh",
            "primitives": [
                {
                    "attributes": {
                        "NORMAL": 19,
                        "POSITION": 18
                    },
                    "indices": 20,
                    "material": 41
                }
            ]
        },
        {
            "name": "mesh7632_mesh",
            "primitives": [
                {
                    "attributes": {
                        "NORMAL": 22,
                        "POSITION": 21
                    },
                    "indices": 23,
                    "material": 41
                }
            ]
        },
        {
            "name": "mesh7633_mesh",
            "primitives": [
                {
                    "attributes": {
                        "NORMAL": 25,
                        "POSITION": 24
                    },
                    "indices": 26,
                    "material": 41
                }
            ]
        },
        {
            "name": "mesh7634_mesh",
            "primitives": [
                {
                    "attributes": {
                        "NORMAL": 28,
                        "POSITION": 27
                    },
                    "indices": 29,
                    "material": 41
                }
            ]
        },
        {
            "name": "mesh7635_mesh",
            "primitives": [
                {
                    "attributes": {
                        "NORMAL": 31,
                        "POSITION": 30
                    },
                    "indices": 32,
                    "material": 41
                }
            ]
        }
    ],
    "nodes": [
        {
            "mesh": 0,
            "name": "mesh7625"
        },
        {
            "mesh": 1,
            "name": "mesh7626"
        },
        {
            "mesh": 2,
            "name": "mesh7627"
        },
        {
            "mesh": 3,
            "name": "mesh7628"
        },
        {
            "mesh": 4,
            "name": "mesh7629"
        },
        {
            "mesh": 5,
            "name": "mesh7630"
        },
        {
            "mesh": 6,
            "name": "mesh7631"
        },
        {
            "mesh": 7,
            "name": "mesh7632"
        },
        {
            "mesh": 8,
            "name": "mesh7633"
        },
        {
            "mesh": 9,
            "name": "mesh7634"
        },
        {
            "mesh": 10,
            "name": "mesh7635"
        }
    ],
    "scene": 0,
    "scenes": [
        {
            "name": "Root",
            "nodes": [
                0,
                1,
                2,
                3,
                4,
                5,
                6,
                7,
                8,
                9,
                10
            ]
        }
    ]
}