{
    "accessors": [
        {
            "bufferView": 0,
            "componentType": 5126,
            "count": 4,
            "max": [
                -0.0040986016392707825,
                0.001509999972768128,
                -0.008702532388269901
            ],
            "min": [
                -0.0040986016392707825,
                0.001500000013038516,
                -0.008842792361974716
            ],
            "name": "mesh7785_coord_accessor",
            "type": "VEC3"
        },
        {
            "bufferView": 1,
            "componentType": 5126,
            "count": 4,
            "max": [
                -1.0,
                0.0,
                0.0
            ],
            "min": [
                -1.0,
                0.0,
                0.0
            ],
            "name": "mesh7785_norm_accessor",
            "type": "VEC3"
        },
        {
            "bufferView": 2,
            "componentType": 5125,
            "count": 6,
            "max": [
                3
            ],
            "min": [
                0
            ],
            "name": "mesh7785_idx_accessor",
            "type": "SCALAR"
        },
        {
            "bufferView": 3,
            "componentType": 5126,
            "count": 4,
            "max": [
                -0.0036778224166482687,
                0.001509999972768128,
                -0.008842792361974716
            ],
            "min": [
                -0.0040986016392707825,
                0.001500000013038516,
                -0.008842792361974716
            ],
            "name": "mesh7786_coord_accessor",
            "type": "VEC3"
        },
        {
            "bufferView": 4,
            "componentType": 5126,
            "count": 4,
            "max": [
                0.0,
                0.0,
                -1.0
            ],
            "min": [
                0.0,
                0.0,
                -1.0
            ],
            "name": "mesh7786_norm_accessor",
            "type": "VEC3"
        },
        {
            "bufferView": 5,
            "componentType": 5125,
            "count": 6,
            "max": [
                3
            ],
            "min": [
                0
            ],
            "name": "mesh7786_idx_accessor",
            "type": "SCALAR"
        },
        {
            "bufferView": 6,
            "componentType": 5126,
            "count": 4,
            "max": [
                -0.0036778224166482687,
                0.001509999972768128,
                -0.008403263054788113
            ],
            "min": [
                -0.0036778224166482687,
                0.001500000013038516,
                -0.008842792361974716
            ],
            "name": "mesh7787_coord_accessor",
            "type": "VEC3"
        },
        {
            "bufferView": 7,
            "componentType": 5126,
            "count": 4,
            "max": [
                1.0,
                0.0,
                0.0
            ],
            "min": [
                1.0,
                0.0,
                0.0
            ],
            "name": "mesh7787_norm_accessor",
            "type": "VEC3"
        },
        {
            "bufferView": 8,
            "componentType": 5125,
            "count": 6,
            "max": [
                3
            ],
            "min": [
                0
            ],
            "name": "mesh7787_idx_accessor",
            "type": "SCALAR"
        },
        {
            "bufferView": 9,
            "componentType": 5126,
            "count": 10,
            "max": [
                -0.0036778224166482687,
                0.001509999972768128,
                -0.008219415321946144
            ],
            "min": [
                -0.004090326372534037,
                0.001500000013038516,
                -0.008403263054788113
            ],
            "name": "mesh7788_coord_accessor",
            "type": "VEC3"
        },
        {
            "bufferView": 10,
            "componentType": 5126,
            "count": 10,
            "max": [
                0.6730291843414307,
                0.0,
                0.9994986057281494
            ],
            "min": [
                0.03166229650378227,
                0.0,
                0.7396159172058105
            ],
            "name": "mesh7788_norm_accessor",
            "type": "VEC3"
        },
        {
            "bufferView": 11,
            "componentType": 5125,
            "count": 24,
            "max": [
                9
            ],
            "min": [
                0
            ],
            "name": "mesh7788_idx_accessor",
            "type": "SCALAR"
        },
        {
            "bufferView": 12,
            "componentType": 5126,
            "count": 12,
            "max": [
                -0.004090322181582451,
                0.001509999972768128,
                -0.008219415321946144
            ],
            "min": [
                -0.004597302991896868,
                0.001500000013038516,
                -0.008829399012029171
            ],
            "name": "mesh7789_coord_accessor",
            "type": "VEC3"
        },
        {
            "bufferView": 13,
            "componentType": 5126,
            "count": 12,
            "max": [
                -0.02323550172150135,
                0.0,
                0.9997299909591675
            ],
            "min": [
                -0.9999507069587708,
                0.0,
                0.009926846250891685
            ],
            "name": "mesh7789_norm_accessor",
            "type": "VEC3"
        },
        {
            "bufferView": 14,
            "componentType": 5125,
            "count": 30,
            "max": [
                11
            ],
            "min": [
                0
            ],
            "name": "mesh7789_idx_accessor",
            "type": "SCALAR"
        },
        {
            "bufferView": 15,
            "componentType": 5126,
            "count": 12,
            "max": [
                -0.0040986016392707825,
                0.001509999972768128,
                -0.008829399012029171
            ],
            "min": [
                -0.004597302991896868,
                0.001500000013038516,
                -0.009450584650039673
            ],
            "name": "mesh7790_coord_accessor",
            "type": "VEC3"
        },
        {
            "bufferView": 16,
            "componentType": 5126,
            "count": 12,
            "max": [
                -0.011590114794671535,
                -0.0,
                -0.010188573971390724
            ],
            "min": [
                -0.9999480843544006,
                -0.0,
                -0.9999328255653381
            ],
            "name": "mesh7790_norm_accessor",
            "type": "VEC3"
        },
        {
            "bufferView": 17,
            "componentType": 5125,
            "count": 30,
            "max": [
                11
            ],
            "min": [
                0
            ],
            "name": "mesh7790_idx_accessor",
            "type": "SCALAR"
        },
        {
            "bufferView": 18,
            "componentType": 5126,
            "count": 10,
            "max": [
                -0.003693406702950597,
                0.001509999972768128,
                -0.009092142805457115
            ],
            "min": [
                -0.0040986016392707825,
                0.001500000013038516,
                -0.009450584650039673
            ],
            "name": "mesh7791_coord_accessor",
            "type": "VEC3"
        },
        {
            "bufferView": 19,
            "componentType": 5126,
            "count": 10,
            "max": [
                0.9771357178688049,
                7.627771569755637e-14,
                -0.21261641383171082
            ],
            "min": [
                0.023783348500728607,
                2.7841824906905086e-27,
                -0.999717116355896
            ],
            "name": "mesh7791_norm_accessor",
            "type": "VEC3"
        },
        {
            "bufferView": 20,
            "componentType": 5125,
            "count": 24,
            "max": [
                9
            ],
            "min": [
                0
            ],
            "name": "mesh7791_idx_accessor",
            "type": "SCALAR"
        },
        {
            "bufferView": 21,
            "componentType": 5126,
            "count": 4,
            "max": [
                -0.003693406702950597,
                0.001509999972768128,
                -0.009060974232852459
            ],
            "min": [
                -0.00381808215752244,
                0.001500000013038516,
                -0.009092142805457115
            ],
            "name": "mesh7792_coord_accessor",
            "type": "VEC3"
        },
        {
            "bufferView": 22,
            "componentType": 5126,
            "count": 4,
            "max": [
                0.24253562092781067,
                0.0,
                0.9701424837112427
            ],
            "min": [
                0.24253562092781067,
                0.0,
                0.9701424837112427
            ],
            "name": "mesh7792_norm_accessor",
            "type": "VEC3"
        },
        {
            "bufferView": 23,
            "componentType": 5125,
            "count": 6,
            "max": [
                3
            ],
            "min": [
                0
            ],
            "name": "mesh7792_idx_accessor",
            "type": "SCALAR"
        },
        {
            "bufferView": 24,
            "componentType": 5126,
            "count": 10,
            "max": [
                -0.00381808215752244,
                0.001509999972768128,
                -0.009060974232852459
            ],
            "min": [
                -0.004110289737582207,
                0.001500000013038516,
                -0.009310324676334858
            ],
            "name": "mesh7793_coord_accessor",
            "type": "VEC3"
        },
        {
            "bufferView": 25,
            "componentType": 5126,
            "count": 10,
            "max": [
                -0.026203764602541924,
                0.0,
                0.999656617641449
            ],
            "min": [
                -0.9665018916130066,
                0.0,
                0.25665947794914246
            ],
            "name": "mesh7793_norm_accessor",
            "type": "VEC3"
        },
        {
            "bufferView": 26,
            "componentType": 5125,
            "count": 24,
            "max": [
                9
            ],
            "min": [
                0
            ],
            "name": "mesh7793_idx_accessor",
            "type": "SCALAR"
        },
        {
            "bufferView": 27,
            "componentType": 5126,
            "count": 12,
            "max": [
                -0.004110289737582207,
                0.001509999972768128,
                -0.008834512904286385
            ],
            "min": [
                -0.004472627770155668,
                0.001500000013038516,
                -0.009310324676334858
            ],
            "name": "mesh7794_coord_accessor",
            "type": "VEC3"
        },
        {
            "bufferView": 28,
            "componentType": 5126,
            "count": 12,
            "max": [
                0.9999346137046814,
                -0.0,
                0.9999141097068787
            ],
            "min": [
                0.013105069287121296,
                -0.0,
                0.011437044478952885
            ],
            "name": "mesh7794_norm_accessor",
            "type": "VEC3"
        },
        {
            "bufferView": 29,
            "componentType": 5125,
            "count": 30,
            "max": [
                11
            ],
            "min": [
                0
            ],
            "name": "mesh7794_idx_accessor",
            "type": "SCALAR"
        },
        {
            "bufferView": 30,
            "componentType": 5126,
            "count": 12,
            "max": [
                -0.00409786868840456,
                0.001509999972768128,
                -0.008359675295650959
            ],
            "min": [
                -0.004472627770155668,
                0.001500000013038516,
                -0.008834512904286385
            ],
            "name": "mesh7795_coord_accessor",
            "type": "VEC3"
        },
        {
            "bufferView": 31,
            "componentType": 5126,
            "count": 12,
            "max": [
                0.9998586773872375,
                0.0,
                -0.016812749207019806
            ],
            "min": [
                0.029611825942993164,
                0.0,
                -0.9995614886283875
            ],
            "name": "mesh7795_norm_accessor",
            "type": "VEC3"
        },
        {
            "bufferView": 32,
            "componentType": 5125,
            "count": 30,
            "max": [
                11
            ],
            "min": [
                0
            ],
            "name": "mesh7795_idx_accessor",
            "type": "SCALAR"
        },
        {
            "bufferView": 33,
            "componentType": 5126,
            "count": 40,
            "max": [
                -0.0036778224166482687,
                0.001500000013038516,
                -0.008219415321946144
            ],
            "min": [
                -0.004597302991896868,
                0.001500000013038516,
                -0.009450584650039673
            ],
            "name": "mesh7796_coord_accessor",
            "type": "VEC3"
        },
        {
            "bufferView": 34,
            "componentType": 5126,
            "count": 40,
            "max": [
                -0.0,
                -1.0,
                -0.0
            ],
            "min": [
                -0.0,
                -1.0,
                -0.0
            ],
            "name": "mesh7796_norm_accessor",
            "type": "VEC3"
        },
        {
            "bufferView": 35,
            "componentType": 5125,
            "count": 114,
            "max": [
                39
            ],
            "min": [
                0
            ],
            "name": "mesh7796_idx_accessor",
            "type": "SCALAR"
        },
        {
            "bufferView": 36,
            "componentType": 5126,
            "count": 40,
            "max": [
                -0.0036778224166482687,
                0.001509999972768128,
                -0.008219415321946144
            ],
            "min": [
                -0.004597302991896868,
                0.001509999972768128,
                -0.009450584650039673
            ],
            "name": "mesh7797_coord_accessor",
            "type": "VEC3"
        },
        {
            "bufferView": 37,
            "componentType": 5126,
            "count": 40,
            "max": [
                0.0,
                1.0,
                0.0
            ],
            "min": [
                0.0,
                1.0,
                0.0
            ],
            "name": "mesh7797_norm_accessor",
            "type": "VEC3"
        },
        {
            "bufferView": 38,
            "componentType": 5125,
            "count": 114,
            "max": [
                39
            ],
            "min": [
                0
            ],
            "name": "mesh7797_idx_accessor",
            "type": "SCALAR"
        },
        {
            "bufferView": 39,
            "componentType": 5126,
            "count": 6,
            "max": [
                -0.003802497638389468,
                0.001509999972768128,
                -0.008359675295650959
            ],
            "min": [
                -0.0040978738106787205,
                0.001500000013038516,
                -0.008481951430439949
            ],
            "name": "mesh7798_coord_accessor",
            "type": "VEC3"
        },
        {
            "bufferView": 40,
            "componentType": 5126,
            "count": 6,
            "max": [
                -0.03569366782903671,
                0.0,
                -0.7297027707099915
            ],
            "min": [
                -0.6837644577026367,
                0.0,
                -0.9993627667427063
            ],
            "name": "mesh7798_norm_accessor",
            "type": "VEC3"
        },
        {
            "bufferView": 41,
            "componentType": 5125,
            "count": 12,
            "max": [
                5
            ],
            "min": [
                0
            ],
            "name": "mesh7798_idx_accessor",
            "type": "SCALAR"
        },
        {
            "bufferView": 42,
            "componentType": 5126,
            "count": 4,
            "max": [
                -0.003802497638389468,
                0.001509999972768128,
                -0.008481951430439949
            ],
            "min": [
                -0.003802497638389468,
                0.001500000013038516,
                -0.008702532388269901
            ],
            "name": "mesh7799_coord_accessor",
            "type": "VEC3"
        },
        {
            "bufferView": 43,
            "componentType": 5126,
            "count": 4,
            "max": [
                -1.0,
                0.0,
                0.0
            ],
            "min": [
                -1.0,
                0.0,
                0.0
            ],
            "name": "mesh7799_norm_accessor",
            "type": "VEC3"
        },
        {
            "bufferView": 44,
            "componentType": 5125,
            "count": 6,
            "max": [
                3
            ],
            "min": [
                0
            ],
            "name": "mesh7799_idx_accessor",
            "type": "SCALAR"
        },
        {
            "bufferView": 45,
            "componentType": 5126,
            "count": 4,
            "max": [
                -0.003802497638389468,
                0.001509999972768128,
                -0.008702532388269901
            ],
            "min": [
                -0.0040986016392707825,
                0.001500000013038516,
                -0.008702532388269901
            ],
            "name": "mesh7800_coord_accessor",
            "type": "VEC3"
        },
        {
            "bufferView": 46,
            "componentType": 5126,
            "count": 4,
            "max": [
                0.0,
                0.0,
                1.0
            ],
            "min": [
                0.0,
                0.0,
                1.0
            ],
            "name": "mesh7800_norm_accessor",
            "type": "VEC3"
        },
        {
            "bufferView": 47,
            "componentType": 5125,
            "count": 6,
            "max": [
                3
            ],
            "min": [
                0
            ],
            "name": "mesh7800_idx_accessor",
            "type": "SCALAR"
        }
    ],
    "asset": {
        "generator": "ONSHAPE BY PTC INC, 1.214",
        "version": "2.0"
    },
    "bufferViews": [
        {
            "buffer": 0,
            "byteLength": 48,
            "name": "mesh7785_coord_bufferView",
            "target": 34962
        },
        {
            "buffer": 0,
            "byteLength": 48,
            "byteOffset": 48,
            "name": "mesh7785_norm_bufferView",
            "target": 34962
        },
        {
            "buffer": 0,
            "byteLength": 24,
            "byteOffset": 96,
            "name": "mesh7785_idx_bufferView",
            "target": 34963
        },
        {
            "buffer": 0,
            "byteLength": 48,
            "byteOffset": 120,
            "name": "mesh7786_coord_bufferView",
            "target": 34962
        },
        {
            "buffer": 0,
            "byteLength": 48,
            "byteOffset": 168,
            "name": "mesh7786_norm_bufferView",
            "target": 34962
        },
        {
            "buffer": 0,
            "byteLength": 24,
            "byteOffset": 216,
            "name": "mesh7786_idx_bufferView",
            "target": 34963
        },
        {
            "buffer": 0,
            "byteLength": 48,
            "byteOffset": 240,
            "name": "mesh7787_coord_bufferView",
            "target": 34962
        },
        {
            "buffer": 0,
            "byteLength": 48,
            "byteOffset": 288,
            "name": "mesh7787_norm_bufferView",
            "target": 34962
        },
        {
            "buffer": 0,
            "byteLength": 24,
            "byteOffset": 336,
            "name": "mesh7787_idx_bufferView",
            "target": 34963
        },
        {
            "buffer": 0,
            "byteLength": 120,
            "byteOffset": 360,
            "name": "mesh7788_coord_bufferView",
            "target": 34962
        },
        {
            "buffer": 0,
            "byteLength": 120,
            "byteOffset": 480,
            "name": "mesh7788_norm_bufferView",
            "target": 34962
        },
        {
            "buffer": 0,
            "byteLength": 96,
            "byteOffset": 600,
            "name": "mesh7788_idx_bufferView",
            "target": 34963
        },
        {
            "buffer": 0,
            "byteLength": 144,
            "byteOffset": 696,
            "name": "mesh7789_coord_bufferView",
            "target": 34962
        },
        {
            "buffer": 0,
            "byteLength": 144,
            "byteOffset": 840,
            "name": "mesh7789_norm_bufferView",
            "target": 34962
        },
        {
            "buffer": 0,
            "byteLength": 120,
            "byteOffset": 984,
            "name": "mesh7789_idx_bufferView",
            "target": 34963
        },
        {
            "buffer": 0,
            "byteLength": 144,
            "byteOffset": 1104,
            "name": "mesh7790_coord_bufferView",
            "target": 34962
        },
        {
            "buffer": 0,
            "byteLength": 144,
            "byteOffset": 1248,
            "name": "mesh7790_norm_bufferView",
            "target": 34962
        },
        {
            "buffer": 0,
            "byteLength": 120,
            "byteOffset": 1392,
            "name": "mesh7790_idx_bufferView",
            "target": 34963
        },
        {
            "buffer": 0,
            "byteLength": 120,
            "byteOffset": 1512,
            "name": "mesh7791_coord_bufferView",
            "target": 34962
        },
        {
            "buffer": 0,
            "byteLength": 120,
            "byteOffset": 1632,
            "name": "mesh7791_norm_bufferView",
            "target": 34962
        },
        {
            "buffer": 0,
            "byteLength": 96,
            "byteOffset": 1752,
            "name": "mesh7791_idx_bufferView",
            "target": 34963
        },
        {
            "buffer": 0,
            "byteLength": 48,
            "byteOffset": 1848,
            "name": "mesh7792_coord_bufferView",
            "target": 34962
        },
        {
            "buffer": 0,
            "byteLength": 48,
            "byteOffset": 1896,
            "name": "mesh7792_norm_bufferView",
            "target": 34962
        },
        {
            "buffer": 0,
            "byteLength": 24,
            "byteOffset": 1944,
            "name": "mesh7792_idx_bufferView",
            "target": 34963
        },
        {
            "buffer": 0,
            "byteLength": 120,
            "byteOffset": 1968,
            "name": "mesh7793_coord_bufferView",
            "target": 34962
        },
        {
            "buffer": 0,
            "byteLength": 120,
            "byteOffset": 2088,
            "name": "mesh7793_norm_bufferView",
            "target": 34962
        },
        {
            "buffer": 0,
            "byteLength": 96,
            "byteOffset": 2208,
            "name": "mesh7793_idx_bufferView",
            "target": 34963
        },
        {
            "buffer": 0,
            "byteLength": 144,
            "byteOffset": 2304,
            "name": "mesh7794_coord_bufferView",
            "target": 34962
        },
        {
            "buffer": 0,
            "byteLength": 144,
            "byteOffset": 2448,
            "name": "mesh7794_norm_bufferView",
            "target": 34962
        },
        {
            "buffer": 0,
            "byteLength": 120,
            "byteOffset": 2592,
            "name": "mesh7794_idx_bufferView",
            "target": 34963
        },
        {
            "buffer": 0,
            "byteLength": 144,
            "byteOffset": 2712,
            "name": "mesh7795_coord_bufferView",
            "target": 34962
        },
        {
            "buffer": 0,
            "byteLength": 144,
            "byteOffset": 2856,
            "name": "mesh7795_norm_bufferView",
            "target": 34962
        },
        {
            "buffer": 0,
            "byteLength": 120,
            "byteOffset": 3000,
            "name": "mesh7795_idx_bufferView",
            "target": 34963
        },
        {
            "buffer": 0,
            "byteLength": 480,
            "byteOffset": 3120,
            "name": "mesh7796_coord_bufferView",
            "target": 34962
        },
        {
            "buffer": 0,
            "byteLength": 480,
            "byteOffset": 3600,
            "name": "mesh7796_norm_bufferView",
            "target": 34962
        },
        {
            "buffer": 0,
            "byteLength": 456,
            "byteOffset": 4080,
            "name": "mesh7796_idx_bufferView",
            "target": 34963
        },
        {
            "buffer": 0,
            "byteLength": 480,
            "byteOffset": 4536,
            "name": "mesh7797_coord_bufferView",
            "target": 34962
        },
        {
            "buffer": 0,
            "byteLength": 480,
            "byteOffset": 5016,
            "name": "mesh7797_norm_bufferView",
            "target": 34962
        },
        {
            "buffer": 0,
            "byteLength": 456,
            "byteOffset": 5496,
            "name": "mesh7797_idx_bufferView",
            "target": 34963
        },
        {
            "buffer": 0,
            "byteLength": 72,
            "byteOffset": 5952,
            "name": "mesh7798_coord_bufferView",
            "target": 34962
        },
        {
            "buffer": 0,
            "byteLength": 72,
            "byteOffset": 6024,
            "name": "mesh7798_norm_bufferView",
            "target": 34962
        },
        {
            "buffer": 0,
            "byteLength": 48,
            "byteOffset": 6096,
            "name": "mesh7798_idx_bufferView",
            "target": 34963
        },
        {
            "buffer": 0,
            "byteLength": 48,
            "byteOffset": 6144,
            "name": "mesh7799_coord_bufferView",
            "target": 34962
        },
        {
            "buffer": 0,
            "byteLength": 48,
            "byteOffset": 6192,
            "name": "mesh7799_norm_bufferView",
            "target": 34962
        },
        {
            "buffer": 0,
            "byteLength": 24,
            "byteOffset": 6240,
            "name": "mesh7799_idx_bufferView",
            "target": 34963
        },
        {
            "buffer": 0,
            "byteLength": 48,
            "byteOffset": 6264,
            "name": "mesh7800_coord_bufferView",
            "target": 34962
        },
        {
            "buffer": 0,
            "byteLength": 48,
            "byteOffset": 6312,
            "name": "mesh7800_norm_bufferView",
            "target": 34962
        },
        {
            "buffer": 0,
            "byteLength": 24,
            "byteOffset": 6360,
            "name": "mesh7800_idx_bufferView",
            "target": 34963
        }
    ],
    "buffers": [
        {
            "byteLength": 6384,
            "name": "Total_buffer",
            "uri": "data:application/octet-stream;base64,"
        }
    ],
    "extensionsUsed": [
        "PTC_onshape_metadata"
    ],
    "materials": [
        {
            "doubleSided": true,
            "name": "0.498039_0.498039_0.498039_0.000000_0.000000",
            "pbrMetallicRoughness": {
                "baseColorFactor": [
                    0.49803921580314636,
                    0.49803921580314636,
                    0.49803921580314636,
                    1.0
                ],
                "metallicFactor": 0.0
            }
        },
        {
            "doubleSided": true,
            "name": "1.000000_0.956863_0.886275_0.000000_0.000000",
            "pbrMetallicRoughness": {
                "baseColorFactor": [
                    1.0,
                    0.95686274766922,
                    0.886274516582489,
                    1.0
                ],
                "metallicFactor": 0.0
            }
        },
        {
            "doubleSided": true,
            "name": "0.086275_0.215686_0.396078_0.000000_0.000000",
            "pbrMetallicRoughness": {
                "baseColorFactor": [
                    0.08627451211214066,
                    0.21568627655506134,
                    0.3960784375667572,
                    1.0
                ],
                "metallicFactor": 0.0
            }
        },
        {
            "doubleSided": true,
            "name": "0.101961_0.101961_0.101961_0.000000_0.000000",
            "pbrMetallicRoughness": {
                "baseColorFactor": [
                    0.10196078568696976,
                    0.10196078568696976,
                    0.10196078568696976,
                    1.0
                ],
                "metallicFactor": 0.0
            }
        },
        {
            "doubleSided": true,
            "name": "1.000000_1.000000_1.000000_0.000000_0.000000",
            "pbrMetallicRoughness": {
                "metallicFactor": 0.0
            }
        },
        {
            "doubleSided": true,
            "name": "1.000000_0.949020_0.894118_0.000000_0.000000",
            "pbrMetallicRoughness": {
                "baseColorFactor": [
                    1.0,
                    0.9490196108818054,
                    0.8941176533699036,
                    1.0
                ],
                "metallicFactor": 0.0
            }
        },
        {
            "doubleSided": true,
            "name": "0.000000_0.000000_0.541176_0.000000_0.000000",
            "pbrMetallicRoughness": {
                "baseColorFactor": [
                    0.0,
                    0.0,
                    0.5411764979362488,
                    1.0
                ],
                "metallicFactor": 0.0
            }
        },
        {
            "doubleSided": true,
            "name": "1.000000_0.756863_0.564706_0.000000_0.000000",
            "pbrMetallicRoughness": {
                "baseColorFactor": [
                    1.0,
                    0.7568627595901489,
                    0.5647059082984924,
                    1.0
                ],
                "metallicFactor": 0.0
            }
        },
        {
            "doubleSided": true,
            "name": "0.827451_0.666667_0.129412_0.000000_0.000000",
            "pbrMetallicRoughness": {
                "baseColorFactor": [
                    0.8274509906768799,
                    0.6666666865348816,
                    0.12941177189350128,
                    1.0
                ],
                "metallicFactor": 0.0
            }
        },
        {
            "doubleSided": true,
            "name": "0.741176_0.627451_0.023529_0.000000_0.000000",
            "pbrMetallicRoughness": {
                "baseColorFactor": [
                    0.7411764860153198,
                    0.6274510025978088,
                    0.0235294122248888,
                    1.0
                ],
                "metallicFactor": 0.0
            }
        },
        {
            "doubleSided": true,
            "name": "0.549020_0.549020_0.921569_0.000000_0.000000",
            "pbrMetallicRoughness": {
                "baseColorFactor": [
                    0.5490196347236633,
                    0.5490196347236633,
                    0.9215686321258545,
                    1.0
                ],
                "metallicFactor": 0.0
            }
        },
        {
            "doubleSided": true,
            "name": "0.811765_0.858824_0.898039_0.000000_0.000000",
            "pbrMetallicRoughness": {
                "baseColorFactor": [
                    0.8117647171020508,
                    0.8588235378265381,
                    0.8980392217636108,
                    1.0
                ],
                "metallicFactor": 0.0
            }
        },
        {
            "doubleSided": true,
            "name": "0.647059_0.647059_0.647059_0.000000_0.000000",
            "pbrMetallicRoughness": {
                "baseColorFactor": [
                    0.6470588445663452,
                    0.6470588445663452,
                    0.6470588445663452,
                    1.0
                ],
                "metallicFactor": 0.0
            }
        },
        {
            "doubleSided": true,
            "name": "0.800000_0.800000_0.800000_0.000000_0.000000",
            "pbrMetallicRoughness": {
                "baseColorFactor": [
                    0.800000011920929,
                    0.800000011920929,
                    0.800000011920929,
                    1.0
                ],
                "metallicFactor": 0.0
            }
        },
        {
            "doubleSided": true,
            "name": "0.878431_0.870588_0.870588_0.000000_0.000000",
            "pbrMetallicRoughness": {
                "baseColorFactor": [
                    0.8784313797950745,
                    0.8705882430076599,
                    0.8705882430076599,
                    1.0
                ],
                "metallicFactor": 0.0
            }
        },
        {
            "doubleSided": true,
            "name": "0.254902_0.254902_0.254902_0.000000_0.000000",
            "pbrMetallicRoughness": {
                "baseColorFactor": [
                    0.2549019753932953,
                    0.2549019753932953,
                    0.2549019753932953,
                    1.0
                ],
                "metallicFactor": 0.0
            }
        },
        {
            "doubleSided": true,
            "name": "0.019608_0.011765_0.145098_0.000000_0.000000",
            "pbrMetallicRoughness": {
                "baseColorFactor": [
                    0.019607843831181526,
                    0.0117647061124444,
                    0.14509804546833038,
                    1.0
                ],
                "metallicFactor": 0.0
            }
        },
        {
            "doubleSided": true,
            "name": "0.619608_0.615686_0.615686_0.000000_0.000000",
            "pbrMetallicRoughness": {
                "baseColorFactor": [
                    0.6196078658103943,
                    0.615686297416687,
                    0.615686297416687,
                    1.0
                ],
                "metallicFactor": 0.0
            }
        },
        {
            "doubleSided": true,
            "name": "0.192157_0.188235_0.188235_0.000000_0.000000",
            "pbrMetallicRoughness": {
                "baseColorFactor": [
                    0.1921568661928177,
                    0.1882352977991104,
                    0.1882352977991104,
                    1.0
                ],
                "metallicFactor": 0.0
            }
        },
        {
            "doubleSided": true,
            "name": "0.533333_0.533333_0.533333_0.000000_0.000000",
            "pbrMetallicRoughness": {
                "baseColorFactor": [
                    0.5333333611488342,
                    0.5333333611488342,
                    0.5333333611488342,
                    1.0
                ],
                "metallicFactor": 0.0
            }
        },
        {
            "doubleSided": true,
            "name": "0.494118_0.494118_0.525490_0.000000_0.000000",
            "pbrMetallicRoughness": {
                "baseColorFactor": [
                    0.4941176474094391,
                    0.4941176474094391,
                    0.5254902243614197,
                    1.0
                ],
                "metallicFactor": 0.0
            }
        },
        {
            "doubleSided": true,
            "name": "0.796078_0.796078_0.796078_0.000000_0.000000",
            "pbrMetallicRoughness": {
                "baseColorFactor": [
                    0.7960784435272217,
                    0.7960784435272217,
                    0.7960784435272217,
                    1.0
                ],
                "metallicFactor": 0.0
            }
        },
        {
            "doubleSided": true,
            "name": "0.937255_0.925490_0.854902_0.000000_0.000000",
            "pbrMetallicRoughness": {
                "baseColorFactor": [
                    0.9372549057006836,
                    0.9254902005195618,
                    0.8549019694328308,
                    1.0
                ],
                "metallicFactor": 0.0
            }
        },
        {
            "doubleSided": true,
            "name": "0.301961_0.301961_0.301961_0.000000_0.000000",
            "pbrMetallicRoughness": {
                "baseColorFactor": [
                    0.3019607961177826,
                    0.3019607961177826,
                    0.3019607961177826,
                    1.0
                ],
                "metallicFactor": 0.0
            }
        },
        {
            "doubleSided": true,
            "name": "0.807843_0.807843_0.807843_0.000000_0.000000",
            "pbrMetallicRoughness": {
                "baseColorFactor": [
                    0.8078431487083435,
                    0.8078431487083435,
                    0.8078431487083435,
                    1.0
                ],
                "metallicFactor": 0.0
            }
        },
        {
            "doubleSided": true,
            "name": "0.196078_0.439216_0.078431_0.000000_0.000000",
            "pbrMetallicRoughness": {
                "baseColorFactor": [
                    0.19607843458652496,
                    0.43921568989753723,
                    0.0784313753247261,
                    1.0
                ],
                "metallicFactor": 0.0
            }
        },
        {
            "doubleSided": true,
            "name": "0.282353_0.549020_0.160784_0.000000_0.250980",
            "pbrMetallicRoughness": {
                "baseColorFactor": [
                    0.2823529541492462,
                    0.5490196347236633,
                    0.16078431904315948,
                    0.7490196228027344
                ],
                "metallicFactor": 0.0
            }
        },
        {
            "doubleSided": true,
            "name": "0.000000_0.000000_0.000000_0.000000_0.000000",
            "pbrMetallicRoughness": {
                "baseColorFactor": [
                    0.0,
                    0.0,
                    0.0,
                    1.0
                ],
                "metallicFactor": 0.0
            }
        },
        {
            "doubleSided": true,
            "name": "0.250980_0.250980_0.250980_0.000000_0.000000",
            "pbrMetallicRoughness": {
                "baseColorFactor": [
                    0.250980406999588,
                    0.250980406999588,
                    0.250980406999588,
                    1.0
                ],
                "metallicFactor": 0.0
            }
        },
        {
            "doubleSided": true,
            "name": "0.000000_0.501961_0.000000_0.000000_0.000000",
            "pbrMetallicRoughness": {
                "baseColorFactor": [
                    0.0,
                    0.501960813999176,
                    0.0,
                    1.0
                ],
                "metallicFactor": 0.0
            }
        },
        {
            "doubleSided": true,
            "name": "0.752941_0.752941_0.752941_0.000000_0.000000",
            "pbrMetallicRoughness": {
                "baseColorFactor": [
                    0.7529411911964417,
                    0.7529411911964417,
                    0.7529411911964417,
                    1.0
                ],
                "metallicFactor": 0.0
            }
        },
        {
            "doubleSided": true,
            "name": "0.796078_0.823529_0.937255_0.000000_0.000000",
            "pbrMetallicRoughness": {
                "baseColorFactor": [
                    0.7960784435272217,
                    0.8235294222831726,
                    0.9372549057006836,
                    1.0
                ],
                "metallicFactor": 0.0
            }
        },
        {
            "doubleSided": true,
            "name": "0.960784_0.960784_0.964706_0.000000_0.000000",
            "pbrMetallicRoughness": {
                "baseColorFactor": [
                    0.9607843160629272,
                    0.9607843160629272,
                    0.9647058844566345,
                    1.0
                ],
                "metallicFactor": 0.0
            }
        },
        {
            "doubleSided": true,
            "name": "0.952941_0.796078_0.486275_0.000000_0.000000",
            "pbrMetallicRoughness": {
                "baseColorFactor": [
                    0.9529411792755127,
                    0.7960784435272217,
                    0.48627451062202454,
                    1.0
                ],
                "metallicFactor": 0.0
            }
        },
        {
            "doubleSided": true,
            "name": "0.627451_0.627451_0.627451_0.000000_0.000000",
            "pbrMetallicRoughness": {
                "baseColorFactor": [
                    0.6274510025978088,
                    0.6274510025978088,
                    0.6274510025978088,
                    1.0
                ],
                "metallicFactor": 0.0
            }
        },
        {
            "doubleSided": true,
            "name": "1.000000_1.000000_0.000000_0.000000_0.000000",
            "pbrMetallicRoughness": {
                "baseColorFactor": [
                    1.0,
                    1.0,
                    0.0,
                    1.0
                ],
                "metallicFactor": 0.0
            }
        },
        {
            "doubleSided": true,
            "name": "1.000000_0.000000_0.000000_0.000000_0.000000",
            "pbrMetallicRoughness": {
                "baseColorFactor": [
                    1.0,
                    0.0,
                    0.0,
                    1.0
                ],
                "metallicFactor": 0.0
            }
        },
        {
            "doubleSided": true,
            "name": "0.145098_0.462745_0.156863_0.000000_0.000000",
            "pbrMetallicRoughness": {
                "baseColorFactor": [
                    0.14509804546833038,
                    0.4627451002597809,
                    0.1568627506494522,
                    1.0
                ],
                "metallicFactor": 0.0
            }
        },
        {
            "doubleSided": true,
            "name": "0.964706_0.964706_0.952941_0.000000_0.000000",
            "pbrMetallicRoughness": {
                "baseColorFactor": [
                    0.9647058844566345,
                    0.9647058844566345,
                    0.9529411792755127,
                    1.0
                ],
                "metallicFactor": 0.0
            }
        },
        {
            "doubleSided": true,
            "name": "0.098039_0.098039_0.098039_0.000000_0.000000",
            "pbrMetallicRoughness": {
                "baseColorFactor": [
                    0.09803921729326248,
                    0.09803921729326248,
                    0.09803921729326248,
                    1.0
                ],
                "metallicFactor": 0.0
            }
        },
        {
            "doubleSided": true,
            "name": "0.000000_0.235294_1.000000_0.000000_0.000000",
            "pbrMetallicRoughness": {
                "baseColorFactor": [
                    0.0,
                    0.23529411852359772,
                    1.0,
                    1.0
                ],
                "metallicFactor": 0.0
            }
        },
        {
            "doubleSided": true,
            "name": "0.596078_0.121569_0.674510_0.000000_0.000000",
            "pbrMetallicRoughness": {
                "baseColorFactor": [
                    0.5960784554481506,
                    0.12156862765550613,
                    0.6745098233222961,
                    1.0
                ],
                "metallicFactor": 0.0
            }
        },
        {
            "doubleSided": true,
            "name": "1.000000_1.000000_1.000000_0.000000_0.600000",
            "pbrMetallicRoughness": {
                "baseColorFactor": [
                    1.0,
                    1.0,
                    1.0,
                    0.4000000059604645
                ],
                "metallicFactor": 0.0
            }
        },
        {
            "doubleSided": true,
            "name": "0.388235_0.400000_0.858824_0.000000_0.400000",
            "pbrMetallicRoughness": {
                "baseColorFactor": [
                    0.38823530077934265,
                    0.4000000059604645,
                    0.8588235378265381,
                    0.6000000238418579
                ],
                "metallicFactor": 0.0
            }
        },
        {
            "doubleSided": true,
            "name": "0.388235_0.858824_0.388235_0.000000_0.400000",
            "pbrMetallicRoughness": {
                "baseColorFactor": [
                    0.38823530077934265,
                    0.8588235378265381,
                    0.38823530077934265,
                    0.6000000238418579
                ],
                "metallicFactor": 0.0
            }
        },
        {
            "doubleSided": true,
            "name": "0.866667_0.909804_1.000000_0.000000_0.000000",
            "pbrMetallicRoughness": {
                "baseColorFactor": [
                    0.8666666746139526,
                    0.9098039269447327,
                    1.0,
                    1.0
                ],
                "metallicFactor": 0.0
            }
        },
        {
            "doubleSided": true,
            "name": "0.666667_0.701961_0.768627_0.000000_0.000000",
            "pbrMetallicRoughness": {
                "baseColorFactor": [
                    0.6666666865348816,
                    0.7019608020782471,
                    0.7686274647712708,
                    1.0
                ],
                "metallicFactor": 0.0
            }
        },
        {
            "doubleSided": true,
            "name": "0.501961_0.501961_0.501961_0.000000_0.000000",
            "pbrMetallicRoughness": {
                "baseColorFactor": [
                    0.501960813999176,
                    0.501960813999176,
                    0.501960813999176,
                    1.0
                ],
                "metallicFactor": 0.0
            }
        },
        {
            "doubleSided": true,
            "name": "0.925490_0.815686_0.439216_0.000000_0.000000",
            "pbrMetallicRoughness": {
                "baseColorFactor": [
                    0.9254902005195618,
                    0.8156862854957581,
                    0.43921568989753723,
                    1.0
                ],
                "metallicFactor": 0.0
            }
        },
        {
            "doubleSided": true,
            "name": "0.282353_0.662745_0.325490_0.000000_0.000000",
            "pbrMetallicRoughness": {
                "baseColorFactor": [
                    0.2823529541492462,
                    0.6627451181411743,
                    0.32549020648002625,
                    1.0
                ],
                "metallicFactor": 0.0
            }
        }
    ],
    "meshes": [
        {
            "name": "mesh7785_mesh",
            "primitives": [
                {
                    "attributes": {
                        "NORMAL": 1,
                        "POSITION": 0
                    },
                    "indices": 2,
                    "material": 41
                }
            ]
        },
        {
            "name": "mesh7786_mesh",
            "primitives": [
                {
                    "attributes": {
                        "NORMAL": 4,
                        "POSITION": 3
                    },
                    "indices": 5,
                    "material": 41
                }
            ]
        },
        {
            "name": "mesh7787_mesh",
            "primitives": [
                {
                    "attributes": {
                        "NORMAL": 7,
                        "POSITION": 6
                    },
                    "indices": 8,
                    "material": 41
                }
            ]
        },
        {
            "name": "mesh7788_mesh",
            "primitives": [
                {
                    "attributes": {
                        "NORMAL": 10,
                        "POSITION": 9
                    },
                    "indices": 11,
                    "material": 41
                }
            ]
        },
        {
            "name": "mesh7789_mesh",
            "primitives": [
                {
                    "attributes": {
                        "NORMAL": 13,
                        "POSITION": 12
                    },
                    "indices": 14,
                    "material": 41
                }
            ]
        },
        {
            "name": "mesh7790_mesh",
            "primitives": [
                {
                    "attributes": {
                        "NORMAL": 16,
                        "POSITION": 15
                    },
                    "indices": 17,
                    "material": 41
                }
            ]
        },
        {
            "name": "mesh7791_mesh",
            "primitives": [
                {
                    "attributes": {
                        "NORMAL": 19,
                        "POSITION": 18
                    },
                    "indices": 20,
                    "material": 41
                }
            ]
        },
        {
            "name": "mesh7792_mesh",
            "primitives": [
                {
                    "attributes": {
                        "NORMAL": 22,
                        "POSITION": 21
                    },
                    "indices": 23,
                    "material": 41
                }
            ]
        },
        {
            "name": "mesh7793_mesh",
            "primitives": [
                {
                    "attributes": {
                        "NORMAL": 25,
                        "POSITION": 24
                    },
                    "indices": 26,
                    "material": 41
                }
            ]
        },
        {
            "name": "mesh7794_mesh",
            "primitives": [
                {
                    "attributes": {
                        "NORMAL": 28,
                        "POSITION": 27
                    },
                    "indices": 29,
                    "material": 41
                }
            ]
        },
        {
            "name": "mesh7795_mesh",
            "primitives": [
                {
                    "attributes": {
                        "NORMAL": 31,
                        "POSITION": 30
                    },
                    "indices": 32,
                    "material": 41
                }
            ]
        },
        {
            "name": "mesh7796_mesh",
            "primitives": [
                {
                    "attributes": {
                        "NORMAL": 34,
                        "POSITION": 33
                    },
                    "indices": 35,
                    "material": 41
                }
            ]
        },
        {
            "name": "mesh7797_mesh",
            "primitives": [
                {
                    "attributes": {
                        "NORMAL": 37,
                        "POSITION": 36
                    },
                    "indices": 38,
                    "material": 41
                }
            ]
        },
        {
            "name": "mesh7798_mesh",
            "primitives": [
                {
                    "attributes": {
                        "NORMAL": 40,
                        "POSITION": 39
                    },
                    "indices": 41,
                    "material": 41
                }
            ]
        },
        {
            "name": "mesh7799_mesh",
            "primitives": [
                {
                    "attributes": {
                        "NORMAL": 43,
                        "POSITION": 42
                    },
                    "indices": 44,
                    "material": 41
                }
            ]
        },
        {
            "name": "mesh7800_mesh",
            "primitives": [
                {
                    "attributes": {
                        "NORMAL": 46,
                        "POSITION": 45
                    },
                    "indices": 47,
                    "material": 41
                }
            ]
        }
    ],
    "nodes": [
        {
            "mesh": 0,
            "name": "mesh7785"
        },
        {
            "mesh": 1,
            "name": "mesh7786"
        },
        {
            "mesh": 2,
            "name": "mesh7787"
        },
        {
            "mesh": 3,
            "name": "mesh7788"
        },
        {
            "mesh": 4,
            "name": "mesh7789"
        },
        {
            "mesh": 5,
            "name": "mesh7790"
        },
        {
            "mesh": 6,
            "name": "mesh7791"
        },
        {
            "mesh": 7,
            "name": "mesh7792"
        },
        {
            "mesh": 8,
            "name": "mesh7793"
        },
        {
            "mesh": 9,
            "name": "mesh7794"
        },
        {
            "mesh": 10,
            "name": "mesh7795"
        },
        {
            "mesh": 11,
            "name": "mesh7796"
        },
        {
            "mesh": 12,
            "name": "mesh7797"
        },
        {
            "mesh": 13,
            "name": "mesh7798"
        },
        {
            "mesh": 14,
            "name": "mesh7799"
        },
        {
            "mesh": 15,
            "name": "mesh7800"
        }
    ],
    "scene": 0,
    "scenes": [
        {
            "name": "Root",
            "nodes": [
                0,
                1,
                2,
                3,
                4,
                5,
                6,
                7,
                8,
                9,
                10,
                11,
                12,
                13,
                14,
                15
            ]
        }
    ]
}