{
    "accessors": [
        {
            "bufferView": 0,
            "componentType": 5126,
            "count": 32,
            "max": [
                0.003800000064074993,
                0.001500000013038516,
                0.025100000202655792
            ],
            "min": [
                0.0010999999940395355,
                0.0,
                0.02239999920129776
            ],
            "name": "mesh6954_coord_accessor",
            "type": "VEC3"
        },
        {
            "bufferView": 1,
            "componentType": 5126,
            "count": 32,
            "max": [
                1.0,
                0.0,
                1.0
            ],
            "min": [
                -1.0,
                0.0,
                -1.0
            ],
            "name": "mesh6954_norm_accessor",
            "type": "VEC3"
        },
        {
            "bufferView": 2,
            "componentType": 5125,
            "count": 96,
            "max": [
                31
            ],
            "min": [
                0
            ],
            "name": "mesh6954_idx_accessor",
            "type": "SCALAR"
        },
        {
            "bufferView": 3,
            "componentType": 5126,
            "count": 80,
            "max": [
                0.0038999998942017555,
                0.0015999999595806003,
                0.025200000032782555
            ],
            "min": [
                0.0010000000474974513,
                0.001500000013038516,
                0.022299999371170998
            ],
            "name": "mesh6955_coord_accessor",
            "type": "VEC3"
        },
        {
            "bufferView": 4,
            "componentType": 5126,
            "count": 80,
            "max": [
                1.0,
                1.0,
                1.0
            ],
            "min": [
                -1.0,
                0.0,
                -1.0
            ],
            "name": "mesh6955_norm_accessor",
            "type": "VEC3"
        },
        {
            "bufferView": 5,
            "componentType": 5125,
            "count": 384,
            "max": [
                79
            ],
            "min": [
                0
            ],
            "name": "mesh6955_idx_accessor",
            "type": "SCALAR"
        },
        {
            "bufferView": 6,
            "componentType": 5126,
            "count": 234,
            "max": [
                0.06019999831914902,
                0.0,
                0.026200000196695328
            ],
            "min": [
                0.0,
                0.0,
                0.0
            ],
            "name": "mesh6956_coord_accessor",
            "type": "VEC3"
        },
        {
            "bufferView": 7,
            "componentType": 5126,
            "count": 234,
            "max": [
                0.0,
                -1.0,
                -0.0
            ],
            "min": [
                0.0,
                -1.0,
                -0.0
            ],
            "name": "mesh6956_norm_accessor",
            "type": "VEC3"
        },
        {
            "bufferView": 8,
            "componentType": 5125,
            "count": 798,
            "max": [
                233
            ],
            "min": [
                0
            ],
            "name": "mesh6956_idx_accessor",
            "type": "SCALAR"
        },
        {
            "bufferView": 9,
            "componentType": 5126,
            "count": 40,
            "max": [
                0.0019499999471008778,
                0.0015999999595806003,
                0.020649999380111694
            ],
            "min": [
                0.0008500000112690032,
                0.0,
                0.01954999938607216
            ],
            "name": "mesh6957_coord_accessor",
            "type": "VEC3"
        },
        {
            "bufferView": 10,
            "componentType": 5126,
            "count": 40,
            "max": [
                1.0,
                -0.0,
                1.0
            ],
            "min": [
                -1.0,
                -0.0,
                -1.0
            ],
            "name": "mesh6957_norm_accessor",
            "type": "VEC3"
        },
        {
            "bufferView": 11,
            "componentType": 5125,
            "count": 120,
            "max": [
                39
            ],
            "min": [
                0
            ],
            "name": "mesh6957_idx_accessor",
            "type": "SCALAR"
        },
        {
            "bufferView": 12,
            "componentType": 5126,
            "count": 40,
            "max": [
                0.0019499999471008778,
                0.0015999999595806003,
                0.009449999779462814
            ],
            "min": [
                0.0008500000112690032,
                0.0,
                0.008349999785423279
            ],
            "name": "mesh6958_coord_accessor",
            "type": "VEC3"
        },
        {
            "bufferView": 13,
            "componentType": 5126,
            "count": 40,
            "max": [
                1.0,
                -0.0,
                1.0
            ],
            "min": [
                -1.0,
                -0.0,
                -1.0
            ],
            "name": "mesh6958_norm_accessor",
            "type": "VEC3"
        },
        {
            "bufferView": 14,
            "componentType": 5125,
            "count": 120,
            "max": [
                39
            ],
            "min": [
                0
            ],
            "name": "mesh6958_idx_accessor",
            "type": "SCALAR"
        },
        {
            "bufferView": 15,
            "componentType": 5126,
            "count": 40,
            "max": [
                0.0019499999471008778,
                0.0015999999595806003,
                0.012249999679625034
            ],
            "min": [
                0.0008500000112690032,
                0.0,
                0.011149999685585499
            ],
            "name": "mesh6959_coord_accessor",
            "type": "VEC3"
        },
        {
            "bufferView": 16,
            "componentType": 5126,
            "count": 40,
            "max": [
                1.0,
                -0.0,
                1.0
            ],
            "min": [
                -1.0,
                -0.0,
                -1.0
            ],
            "name": "mesh6959_norm_accessor",
            "type": "VEC3"
        },
        {
            "bufferView": 17,
            "componentType": 5125,
            "count": 120,
            "max": [
                39
            ],
            "min": [
                0
            ],
            "name": "mesh6959_idx_accessor",
            "type": "SCALAR"
        },
        {
            "bufferView": 18,
            "componentType": 5126,
            "count": 40,
            "max": [
                0.0019499999471008778,
                0.0015999999595806003,
                0.01785000041127205
            ],
            "min": [
                0.0008500000112690032,
                0.0,
                0.016750000417232513
            ],
            "name": "mesh6960_coord_accessor",
            "type": "VEC3"
        },
        {
            "bufferView": 19,
            "componentType": 5126,
            "count": 40,
            "max": [
                1.0,
                -0.0,
                1.0
            ],
            "min": [
                -1.0,
                -0.0,
                -1.0
            ],
            "name": "mesh6960_norm_accessor",
            "type": "VEC3"
        },
        {
            "bufferView": 20,
            "componentType": 5125,
            "count": 120,
            "max": [
                39
            ],
            "min": [
                0
            ],
            "name": "mesh6960_idx_accessor",
            "type": "SCALAR"
        },
        {
            "bufferView": 21,
            "componentType": 5126,
            "count": 36,
            "max": [
                0.0018500000005587935,
                0.0015999999595806003,
                0.006550000049173832
            ],
            "min": [
                0.0009500000160187483,
                0.0,
                0.0056500001810491085
            ],
            "name": "mesh6961_coord_accessor",
            "type": "VEC3"
        },
        {
            "bufferView": 22,
            "componentType": 5126,
            "count": 36,
            "max": [
                1.0,
                -0.0,
                1.0
            ],
            "min": [
                -1.0,
                -0.0,
                -1.0
            ],
            "name": "mesh6961_norm_accessor",
            "type": "VEC3"
        },
        {
            "bufferView": 23,
            "componentType": 5125,
            "count": 108,
            "max": [
                35
            ],
            "min": [
                0
            ],
            "name": "mesh6961_idx_accessor",
            "type": "SCALAR"
        },
        {
            "bufferView": 24,
            "componentType": 5126,
            "count": 40,
            "max": [
                0.0019499999471008778,
                0.0015999999595806003,
                0.015049999579787254
            ],
            "min": [
                0.0008500000112690032,
                0.0,
                0.013949999585747719
            ],
            "name": "mesh6962_coord_accessor",
            "type": "VEC3"
        },
        {
            "bufferView": 25,
            "componentType": 5126,
            "count": 40,
            "max": [
                1.0,
                -0.0,
                1.0
            ],
            "min": [
                -1.0,
                -0.0,
                -1.0
            ],
            "name": "mesh6962_norm_accessor",
            "type": "VEC3"
        },
        {
            "bufferView": 26,
            "componentType": 5125,
            "count": 120,
            "max": [
                39
            ],
            "min": [
                0
            ],
            "name": "mesh6962_idx_accessor",
            "type": "SCALAR"
        },
        {
            "bufferView": 27,
            "componentType": 5126,
            "count": 11,
            "max": [
                0.06019999831914902,
                0.001500000013038516,
                0.026200000196695328
            ],
            "min": [
                0.05820000171661377,
                0.0,
                0.02419999986886978
            ],
            "name": "mesh6963_coord_accessor",
            "type": "VEC3"
        },
        {
            "bufferView": 28,
            "componentType": 5126,
            "count": 11,
            "max": [
                1.0,
                0.0,
                1.0
            ],
            "min": [
                0.0,
                0.0,
                0.0
            ],
            "name": "mesh6963_norm_accessor",
            "type": "VEC3"
        },
        {
            "bufferView": 29,
            "componentType": 5125,
            "count": 27,
            "max": [
                10
            ],
            "min": [
                0
            ],
            "name": "mesh6963_idx_accessor",
            "type": "SCALAR"
        },
        {
            "bufferView": 30,
            "componentType": 5126,
            "count": 10,
            "max": [
                0.06019999831914902,
                0.001500000013038516,
                0.02419999986886978
            ],
            "min": [
                0.06019999831914902,
                0.0,
                0.0020000000949949026
            ],
            "name": "mesh6964_coord_accessor",
            "type": "VEC3"
        },
        {
            "bufferView": 31,
            "componentType": 5126,
            "count": 10,
            "max": [
                1.0,
                0.0,
                0.0
            ],
            "min": [
                1.0,
                0.0,
                0.0
            ],
            "name": "mesh6964_norm_accessor",
            "type": "VEC3"
        },
        {
            "bufferView": 32,
            "componentType": 5125,
            "count": 24,
            "max": [
                9
            ],
            "min": [
                0
            ],
            "name": "mesh6964_idx_accessor",
            "type": "SCALAR"
        },
        {
            "bufferView": 33,
            "componentType": 5126,
            "count": 10,
            "max": [
                0.06019999831914902,
                0.001500000013038516,
                0.0020000000949949026
            ],
            "min": [
                0.05820000171661377,
                0.0,
                7.216449395365721e-18
            ],
            "name": "mesh6965_coord_accessor",
            "type": "VEC3"
        },
        {
            "bufferView": 34,
            "componentType": 5126,
            "count": 10,
            "max": [
                1.0,
                0.0,
                0.0
            ],
            "min": [
                0.0,
                0.0,
                -1.0
            ],
            "name": "mesh6965_norm_accessor",
            "type": "VEC3"
        },
        {
            "bufferView": 35,
            "componentType": 5125,
            "count": 24,
            "max": [
                9
            ],
            "min": [
                0
            ],
            "name": "mesh6965_idx_accessor",
            "type": "SCALAR"
        },
        {
            "bufferView": 36,
            "componentType": 5126,
            "count": 16,
            "max": [
                0.06019999831914902,
                0.0015999999595806003,
                0.02419999986886978
            ],
            "min": [
                0.060100000351667404,
                0.001500000013038516,
                0.0020000000949949026
            ],
            "name": "mesh6966_coord_accessor",
            "type": "VEC3"
        },
        {
            "bufferView": 37,
            "componentType": 5126,
            "count": 16,
            "max": [
                1.0,
                1.0,
                0.0
            ],
            "min": [
                0.0,
                0.0,
                0.0
            ],
            "name": "mesh6966_norm_accessor",
            "type": "VEC3"
        },
        {
            "bufferView": 38,
            "componentType": 5125,
            "count": 42,
            "max": [
                15
            ],
            "min": [
                0
            ],
            "name": "mesh6966_idx_accessor",
            "type": "SCALAR"
        },
        {
            "bufferView": 39,
            "componentType": 5126,
            "count": 4,
            "max": [
                0.05820000171661377,
                0.001500000013038516,
                7.216449395365721e-18
            ],
            "min": [
                0.0020000000949949026,
                0.0,
                0.0
            ],
            "name": "mesh6967_coord_accessor",
            "type": "VEC3"
        },
        {
            "bufferView": 40,
            "componentType": 5126,
            "count": 4,
            "max": [
                0.0,
                0.0,
                -1.0
            ],
            "min": [
                0.0,
                0.0,
                -1.0
            ],
            "name": "mesh6967_norm_accessor",
            "type": "VEC3"
        },
        {
            "bufferView": 41,
            "componentType": 5125,
            "count": 6,
            "max": [
                3
            ],
            "min": [
                0
            ],
            "name": "mesh6967_idx_accessor",
            "type": "SCALAR"
        },
        {
            "bufferView": 42,
            "componentType": 5126,
            "count": 25,
            "max": [
                0.06019999831914902,
                0.0015999999595806003,
                0.0020000000949949026
            ],
            "min": [
                0.05820000171661377,
                0.001500000013038516,
                7.216449395365721e-18
            ],
            "name": "mesh6968_coord_accessor",
            "type": "VEC3"
        },
        {
            "bufferView": 43,
            "componentType": 5126,
            "count": 25,
            "max": [
                1.0,
                1.0,
                5.657130560897519e-17
            ],
            "min": [
                -1.3010426069826053e-14,
                0.0,
                -1.0
            ],
            "name": "mesh6968_norm_accessor",
            "type": "VEC3"
        },
        {
            "bufferView": 44,
            "componentType": 5125,
            "count": 96,
            "max": [
                24
            ],
            "min": [
                0
            ],
            "name": "mesh6968_idx_accessor",
            "type": "SCALAR"
        },
        {
            "bufferView": 45,
            "componentType": 5126,
            "count": 12,
            "max": [
                0.0020000000949949026,
                0.001500000013038516,
                0.0020000000949949026
            ],
            "min": [
                0.0,
                0.0,
                0.0
            ],
            "name": "mesh6969_coord_accessor",
            "type": "VEC3"
        },
        {
            "bufferView": 46,
            "componentType": 5126,
            "count": 12,
            "max": [
                0.0,
                0.0,
                0.0
            ],
            "min": [
                -1.0,
                0.0,
                -1.0
            ],
            "name": "mesh6969_norm_accessor",
            "type": "VEC3"
        },
        {
            "bufferView": 47,
            "componentType": 5125,
            "count": 30,
            "max": [
                11
            ],
            "min": [
                0
            ],
            "name": "mesh6969_idx_accessor",
            "type": "SCALAR"
        },
        {
            "bufferView": 48,
            "componentType": 5126,
            "count": 10,
            "max": [
                0.05820000171661377,
                0.0015999999595806003,
                9.999999747378752e-05
            ],
            "min": [
                0.0020000000949949026,
                0.001500000013038516,
                0.0
            ],
            "name": "mesh6970_coord_accessor",
            "type": "VEC3"
        },
        {
            "bufferView": 49,
            "componentType": 5126,
            "count": 10,
            "max": [
                0.0,
                1.0,
                2.710505431213761e-16
            ],
            "min": [
                0.0,
                0.0,
                -1.0
            ],
            "name": "mesh6970_norm_accessor",
            "type": "VEC3"
        },
        {
            "bufferView": 50,
            "componentType": 5125,
            "count": 24,
            "max": [
                9
            ],
            "min": [
                0
            ],
            "name": "mesh6970_idx_accessor",
            "type": "SCALAR"
        },
        {
            "bufferView": 51,
            "componentType": 5126,
            "count": 10,
            "max": [
                1.387778801460961e-18,
                0.001500000013038516,
                0.02419999986886978
            ],
            "min": [
                0.0,
                0.0,
                0.0020000000949949026
            ],
            "name": "mesh6971_coord_accessor",
            "type": "VEC3"
        },
        {
            "bufferView": 52,
            "componentType": 5126,
            "count": 10,
            "max": [
                -1.0,
                0.0,
                6.251256013713936e-17
            ],
            "min": [
                -1.0,
                0.0,
                6.251256013713936e-17
            ],
            "name": "mesh6971_norm_accessor",
            "type": "VEC3"
        },
        {
            "bufferView": 53,
            "componentType": 5125,
            "count": 24,
            "max": [
                9
            ],
            "min": [
                0
            ],
            "name": "mesh6971_idx_accessor",
            "type": "SCALAR"
        },
        {
            "bufferView": 54,
            "componentType": 5126,
            "count": 27,
            "max": [
                0.0020000000949949026,
                0.0015999999595806003,
                0.0020000000949949026
            ],
            "min": [
                0.0,
                0.001500000013038516,
                0.0
            ],
            "name": "mesh6972_coord_accessor",
            "type": "VEC3"
        },
        {
            "bufferView": 55,
            "componentType": 5126,
            "count": 27,
            "max": [
                0.19425739347934723,
                1.0,
                0.28611958026885986
            ],
            "min": [
                -1.0,
                0.0,
                -1.0
            ],
            "name": "mesh6972_norm_accessor",
            "type": "VEC3"
        },
        {
            "bufferView": 56,
            "componentType": 5125,
            "count": 102,
            "max": [
                26
            ],
            "min": [
                0
            ],
            "name": "mesh6972_idx_accessor",
            "type": "SCALAR"
        },
        {
            "bufferView": 57,
            "componentType": 5126,
            "count": 13,
            "max": [
                0.0020000000949949026,
                0.001500000013038516,
                0.026200000196695328
            ],
            "min": [
                1.387778801460961e-18,
                0.0,
                0.02419999986886978
            ],
            "name": "mesh6973_coord_accessor",
            "type": "VEC3"
        },
        {
            "bufferView": 58,
            "componentType": 5126,
            "count": 13,
            "max": [
                0.0,
                0.0,
                1.0
            ],
            "min": [
                -1.0,
                0.0,
                0.0
            ],
            "name": "mesh6973_norm_accessor",
            "type": "VEC3"
        },
        {
            "bufferView": 59,
            "componentType": 5125,
            "count": 33,
            "max": [
                12
            ],
            "min": [
                0
            ],
            "name": "mesh6973_idx_accessor",
            "type": "SCALAR"
        },
        {
            "bufferView": 60,
            "componentType": 5126,
            "count": 16,
            "max": [
                9.999999747378752e-05,
                0.0015999999595806003,
                0.02419999986886978
            ],
            "min": [
                0.0,
                0.001500000013038516,
                0.0020000000949949026
            ],
            "name": "mesh6974_coord_accessor",
            "type": "VEC3"
        },
        {
            "bufferView": 61,
            "componentType": 5126,
            "count": 16,
            "max": [
                2.3852447794681098e-15,
                1.0,
                5.775407462325251e-17
            ],
            "min": [
                -1.0,
                2.168404344971009e-15,
                0.0
            ],
            "name": "mesh6974_norm_accessor",
            "type": "VEC3"
        },
        {
            "bufferView": 62,
            "componentType": 5125,
            "count": 42,
            "max": [
                15
            ],
            "min": [
                0
            ],
            "name": "mesh6974_idx_accessor",
            "type": "SCALAR"
        },
        {
            "bufferView": 63,
            "componentType": 5126,
            "count": 4,
            "max": [
                0.05820000171661377,
                0.001500000013038516,
                0.026200000196695328
            ],
            "min": [
                0.0020000000949949026,
                0.0,
                0.026200000196695328
            ],
            "name": "mesh6975_coord_accessor",
            "type": "VEC3"
        },
        {
            "bufferView": 64,
            "componentType": 5126,
            "count": 4,
            "max": [
                7.901943233411276e-17,
                0.0,
                1.0
            ],
            "min": [
                7.901943233411276e-17,
                0.0,
                1.0
            ],
            "name": "mesh6975_norm_accessor",
            "type": "VEC3"
        },
        {
            "bufferView": 65,
            "componentType": 5125,
            "count": 6,
            "max": [
                3
            ],
            "min": [
                0
            ],
            "name": "mesh6975_idx_accessor",
            "type": "SCALAR"
        },
        {
            "bufferView": 66,
            "componentType": 5126,
            "count": 26,
            "max": [
                0.06019999831914902,
                0.0015999999595806003,
                0.026200000196695328
            ],
            "min": [
                0.05820000171661377,
                0.001500000013038516,
                0.02419999986886978
            ],
            "name": "mesh6976_coord_accessor",
            "type": "VEC3"
        },
        {
            "bufferView": 67,
            "componentType": 5126,
            "count": 26,
            "max": [
                1.0,
                1.0,
                1.0
            ],
            "min": [
                -0.17016424238681793,
                0.0,
                -0.2083728164434433
            ],
            "name": "mesh6976_norm_accessor",
            "type": "VEC3"
        },
        {
            "bufferView": 68,
            "componentType": 5125,
            "count": 99,
            "max": [
                25
            ],
            "min": [
                0
            ],
            "name": "mesh6976_idx_accessor",
            "type": "SCALAR"
        },
        {
            "bufferView": 69,
            "componentType": 5126,
            "count": 10,
            "max": [
                0.05820000171661377,
                0.0015999999595806003,
                0.026200000196695328
            ],
            "min": [
                0.0020000000949949026,
                0.001500000013038516,
                0.026100000366568565
            ],
            "name": "mesh6977_coord_accessor",
            "type": "VEC3"
        },
        {
            "bufferView": 70,
            "componentType": 5126,
            "count": 10,
            "max": [
                7.300443299997826e-17,
                1.0,
                1.0
            ],
            "min": [
                -1.3010426069826053e-14,
                6.5052130349130266e-15,
                0.0
            ],
            "name": "mesh6977_norm_accessor",
            "type": "VEC3"
        },
        {
            "bufferView": 71,
            "componentType": 5125,
            "count": 24,
            "max": [
                9
            ],
            "min": [
                0
            ],
            "name": "mesh6977_idx_accessor",
            "type": "SCALAR"
        },
        {
            "bufferView": 72,
            "componentType": 5126,
            "count": 28,
            "max": [
                0.0020000000949949026,
                0.0015999999595806003,
                0.026200000196695328
            ],
            "min": [
                1.387778801460961e-18,
                0.001500000013038516,
                0.02419999986886978
            ],
            "name": "mesh6978_coord_accessor",
            "type": "VEC3"
        },
        {
            "bufferView": 73,
            "componentType": 5126,
            "count": 28,
            "max": [
                0.19425739347934723,
                1.0,
                1.0
            ],
            "min": [
                -1.0,
                0.0,
                -0.28611958026885986
            ],
            "name": "mesh6978_norm_accessor",
            "type": "VEC3"
        },
        {
            "bufferView": 74,
            "componentType": 5125,
            "count": 105,
            "max": [
                27
            ],
            "min": [
                0
            ],
            "name": "mesh6978_idx_accessor",
            "type": "SCALAR"
        },
        {
            "bufferView": 75,
            "componentType": 5126,
            "count": 32,
            "max": [
                0.05909999832510948,
                0.001500000013038516,
                0.025100000202655792
            ],
            "min": [
                0.05640000104904175,
                0.0,
                0.02239999920129776
            ],
            "name": "mesh6979_coord_accessor",
            "type": "VEC3"
        },
        {
            "bufferView": 76,
            "componentType": 5126,
            "count": 32,
            "max": [
                1.0,
                0.0,
                1.0
            ],
            "min": [
                -1.0,
                0.0,
                -1.0
            ],
            "name": "mesh6979_norm_accessor",
            "type": "VEC3"
        },
        {
            "bufferView": 77,
            "componentType": 5125,
            "count": 96,
            "max": [
                31
            ],
            "min": [
                0
            ],
            "name": "mesh6979_idx_accessor",
            "type": "SCALAR"
        },
        {
            "bufferView": 78,
            "componentType": 5126,
            "count": 80,
            "max": [
                0.05920000001788139,
                0.0015999999595806003,
                0.025200000032782555
            ],
            "min": [
                0.056299999356269836,
                0.001500000013038516,
                0.022299999371170998
            ],
            "name": "mesh6980_coord_accessor",
            "type": "VEC3"
        },
        {
            "bufferView": 79,
            "componentType": 5126,
            "count": 80,
            "max": [
                1.0,
                1.0,
                1.0
            ],
            "min": [
                -1.0,
                0.0,
                -1.0
            ],
            "name": "mesh6980_norm_accessor",
            "type": "VEC3"
        },
        {
            "bufferView": 80,
            "componentType": 5125,
            "count": 384,
            "max": [
                79
            ],
            "min": [
                0
            ],
            "name": "mesh6980_idx_accessor",
            "type": "SCALAR"
        },
        {
            "bufferView": 81,
            "componentType": 5126,
            "count": 32,
            "max": [
                0.05909999832510948,
                0.001500000013038516,
                0.003800000064074993
            ],
            "min": [
                0.05640000104904175,
                0.0,
                0.0010999999940395355
            ],
            "name": "mesh6981_coord_accessor",
            "type": "VEC3"
        },
        {
            "bufferView": 82,
            "componentType": 5126,
            "count": 32,
            "max": [
                1.0,
                0.0,
                1.0
            ],
            "min": [
                -1.0,
                0.0,
                -1.0
            ],
            "name": "mesh6981_norm_accessor",
            "type": "VEC3"
        },
        {
            "bufferView": 83,
            "componentType": 5125,
            "count": 96,
            "max": [
                31
            ],
            "min": [
                0
            ],
            "name": "mesh6981_idx_accessor",
            "type": "SCALAR"
        },
        {
            "bufferView": 84,
            "componentType": 5126,
            "count": 80,
            "max": [
                0.05920000001788139,
                0.0015999999595806003,
                0.0038999998942017555
            ],
            "min": [
                0.056299999356269836,
                0.001500000013038516,
                0.0010000000474974513
            ],
            "name": "mesh6982_coord_accessor",
            "type": "VEC3"
        },
        {
            "bufferView": 85,
            "componentType": 5126,
            "count": 80,
            "max": [
                1.0,
                1.0,
                1.0
            ],
            "min": [
                -1.0,
                0.0,
                -1.0
            ],
            "name": "mesh6982_norm_accessor",
            "type": "VEC3"
        },
        {
            "bufferView": 86,
            "componentType": 5125,
            "count": 384,
            "max": [
                79
            ],
            "min": [
                0
            ],
            "name": "mesh6982_idx_accessor",
            "type": "SCALAR"
        },
        {
            "bufferView": 87,
            "componentType": 5126,
            "count": 234,
            "max": [
                0.060100000351667404,
                0.0015999999595806003,
                0.026100000366568565
            ],
            "min": [
                9.999999747378752e-05,
                0.0015999999595806003,
                9.999999747378752e-05
            ],
            "name": "mesh6983_coord_accessor",
            "type": "VEC3"
        },
        {
            "bufferView": 88,
            "componentType": 5126,
            "count": 234,
            "max": [
                0.0,
                1.0,
                -6.123234262925839e-17
            ],
            "min": [
                0.0,
                1.0,
                -6.123234262925839e-17
            ],
            "name": "mesh6983_norm_accessor",
            "type": "VEC3"
        },
        {
            "bufferView": 89,
            "componentType": 5125,
            "count": 798,
            "max": [
                233
            ],
            "min": [
                0
            ],
            "name": "mesh6983_idx_accessor",
            "type": "SCALAR"
        },
        {
            "bufferView": 90,
            "componentType": 5126,
            "count": 32,
            "max": [
                0.003800000064074993,
                0.001500000013038516,
                0.003800000064074993
            ],
            "min": [
                0.0010999999940395355,
                0.0,
                0.0010999999940395355
            ],
            "name": "mesh6984_coord_accessor",
            "type": "VEC3"
        },
        {
            "bufferView": 91,
            "componentType": 5126,
            "count": 32,
            "max": [
                1.0,
                0.0,
                1.0
            ],
            "min": [
                -1.0,
                0.0,
                -1.0
            ],
            "name": "mesh6984_norm_accessor",
            "type": "VEC3"
        },
        {
            "bufferView": 92,
            "componentType": 5125,
            "count": 96,
            "max": [
                31
            ],
            "min": [
                0
            ],
            "name": "mesh6984_idx_accessor",
            "type": "SCALAR"
        },
        {
            "bufferView": 93,
            "componentType": 5126,
            "count": 80,
            "max": [
                0.0038999998942017555,
                0.0015999999595806003,
                0.0038999998942017555
            ],
            "min": [
                0.0010000000474974513,
                0.001500000013038516,
                0.0010000000474974513
            ],
            "name": "mesh6985_coord_accessor",
            "type": "VEC3"
        },
        {
            "bufferView": 94,
            "componentType": 5126,
            "count": 80,
            "max": [
                1.0,
                1.0,
                1.0
            ],
            "min": [
                -1.0,
                0.0,
                -1.0
            ],
            "name": "mesh6985_norm_accessor",
            "type": "VEC3"
        },
        {
            "bufferView": 95,
            "componentType": 5125,
            "count": 384,
            "max": [
                79
            ],
            "min": [
                0
            ],
            "name": "mesh6985_idx_accessor",
            "type": "SCALAR"
        }
    ],
    "asset": {
        "generator": "ONSHAPE BY PTC INC, 1.214",
        "version": "2.0"
    },
    "bufferViews": [
        {
            "buffer": 0,
            "byteLength": 384,
            "name": "mesh6954_coord_bufferView",
            "target": 34962
        },
        {
            "buffer": 0,
            "byteLength": 384,
            "byteOffset": 384,
            "name": "mesh6954_norm_bufferView",
            "target": 34962
        },
        {
            "buffer": 0,
            "byteLength": 384,
            "byteOffset": 768,
            "name": "mesh6954_idx_bufferView",
            "target": 34963
        },
        {
            "buffer": 0,
            "byteLength": 960,
            "byteOffset": 1152,
            "name": "mesh6955_coord_bufferView",
            "target": 34962
        },
        {
            "buffer": 0,
            "byteLength": 960,
            "byteOffset": 2112,
            "name": "mesh6955_norm_bufferView",
            "target": 34962
        },
        {
            "buffer": 0,
            "byteLength": 1536,
            "byteOffset": 3072,
            "name": "mesh6955_idx_bufferView",
            "target": 34963
        },
        {
            "buffer": 0,
            "byteLength": 2808,
            "byteOffset": 4608,
            "name": "mesh6956_coord_bufferView",
            "target": 34962
        },
        {
            "buffer": 0,
            "byteLength": 2808,
            "byteOffset": 7416,
            "name": "mesh6956_norm_bufferView",
            "target": 34962
        },
        {
            "buffer": 0,
            "byteLength": 3192,
            "byteOffset": 10224,
            "name": "mesh6956_idx_bufferView",
            "target": 34963
        },
        {
            "buffer": 0,
            "byteLength": 480,
            "byteOffset": 13416,
            "name": "mesh6957_coord_bufferView",
            "target": 34962
        },
        {
            "buffer": 0,
            "byteLength": 480,
            "byteOffset": 13896,
            "name": "mesh6957_norm_bufferView",
            "target": 34962
        },
        {
            "buffer": 0,
            "byteLength": 480,
            "byteOffset": 14376,
            "name": "mesh6957_idx_bufferView",
            "target": 34963
        },
        {
            "buffer": 0,
            "byteLength": 480,
            "byteOffset": 14856,
            "name": "mesh6958_coord_bufferView",
            "target": 34962
        },
        {
            "buffer": 0,
            "byteLength": 480,
            "byteOffset": 15336,
            "name": "mesh6958_norm_bufferView",
            "target": 34962
        },
        {
            "buffer": 0,
            "byteLength": 480,
            "byteOffset": 15816,
            "name": "mesh6958_idx_bufferView",
            "target": 34963
        },
        {
            "buffer": 0,
            "byteLength": 480,
            "byteOffset": 16296,
            "name": "mesh6959_coord_bufferView",
            "target": 34962
        },
        {
            "buffer": 0,
            "byteLength": 480,
            "byteOffset": 16776,
            "name": "mesh6959_norm_bufferView",
            "target": 34962
        },
        {
            "buffer": 0,
            "byteLength": 480,
            "byteOffset": 17256,
            "name": "mesh6959_idx_bufferView",
            "target": 34963
        },
        {
            "buffer": 0,
            "byteLength": 480,
            "byteOffset": 17736,
            "name": "mesh6960_coord_bufferView",
            "target": 34962
        },
        {
            "buffer": 0,
            "byteLength": 480,
            "byteOffset": 18216,
            "name": "mesh6960_norm_bufferView",
            "target": 34962
        },
        {
            "buffer": 0,
            "byteLength": 480,
            "byteOffset": 18696,
            "name": "mesh6960_idx_bufferView",
            "target": 34963
        },
        {
            "buffer": 0,
            "byteLength": 432,
            "byteOffset": 19176,
            "name": "mesh6961_coord_bufferView",
            "target": 34962
        },
        {
            "buffer": 0,
            "byteLength": 432,
            "byteOffset": 19608,
            "name": "mesh6961_norm_bufferView",
            "target": 34962
        },
        {
            "buffer": 0,
            "byteLength": 432,
            "byteOffset": 20040,
            "name": "mesh6961_idx_bufferView",
            "target": 34963
        },
        {
            "buffer": 0,
            "byteLength": 480,
            "byteOffset": 20472,
            "name": "mesh6962_coord_bufferView",
            "target": 34962
        },
        {
            "buffer": 0,
            "byteLength": 480,
            "byteOffset": 20952,
            "name": "mesh6962_norm_bufferView",
            "target": 34962
        },
        {
            "buffer": 0,
            "byteLength": 480,
            "byteOffset": 21432,
            "name": "mesh6962_idx_bufferView",
            "target": 34963
        },
        {
            "buffer": 0,
            "byteLength": 132,
            "byteOffset": 21912,
            "name": "mesh6963_coord_bufferView",
            "target": 34962
        },
        {
            "buffer": 0,
            "byteLength": 132,
            "byteOffset": 22044,
            "name": "mesh6963_norm_bufferView",
            "target": 34962
        },
        {
            "buffer": 0,
            "byteLength": 108,
            "byteOffset": 22176,
            "name": "mesh6963_idx_bufferView",
            "target": 34963
        },
        {
            "buffer": 0,
            "byteLength": 120,
            "byteOffset": 22284,
            "name": "mesh6964_coord_bufferView",
            "target": 34962
        },
        {
            "buffer": 0,
            "byteLength": 120,
            "byteOffset": 22404,
            "name": "mesh6964_norm_bufferView",
            "target": 34962
        },
        {
            "buffer": 0,
            "byteLength": 96,
            "byteOffset": 22524,
            "name": "mesh6964_idx_bufferView",
            "target": 34963
        },
        {
            "buffer": 0,
            "byteLength": 120,
            "byteOffset": 22620,
            "name": "mesh6965_coord_bufferView",
            "target": 34962
        },
        {
            "buffer": 0,
            "byteLength": 120,
            "byteOffset": 22740,
            "name": "mesh6965_norm_bufferView",
            "target": 34962
        },
        {
            "buffer": 0,
            "byteLength": 96,
            "byteOffset": 22860,
            "name": "mesh6965_idx_bufferView",
            "target": 34963
        },
        {
            "buffer": 0,
            "byteLength": 192,
            "byteOffset": 22956,
            "name": "mesh6966_coord_bufferView",
            "target": 34962
        },
        {
            "buffer": 0,
            "byteLength": 192,
            "byteOffset": 23148,
            "name": "mesh6966_norm_bufferView",
            "target": 34962
        },
        {
            "buffer": 0,
            "byteLength": 168,
            "byteOffset": 23340,
            "name": "mesh6966_idx_bufferView",
            "target": 34963
        },
        {
            "buffer": 0,
            "byteLength": 48,
            "byteOffset": 23508,
            "name": "mesh6967_coord_bufferView",
            "target": 34962
        },
        {
            "buffer": 0,
            "byteLength": 48,
            "byteOffset": 23556,
            "name": "mesh6967_norm_bufferView",
            "target": 34962
        },
        {
            "buffer": 0,
            "byteLength": 24,
            "byteOffset": 23604,
            "name": "mesh6967_idx_bufferView",
            "target": 34963
        },
        {
            "buffer": 0,
            "byteLength": 300,
            "byteOffset": 23628,
            "name": "mesh6968_coord_bufferView",
            "target": 34962
        },
        {
            "buffer": 0,
            "byteLength": 300,
            "byteOffset": 23928,
            "name": "mesh6968_norm_bufferView",
            "target": 34962
        },
        {
            "buffer": 0,
            "byteLength": 384,
            "byteOffset": 24228,
            "name": "mesh6968_idx_bufferView",
            "target": 34963
        },
        {
            "buffer": 0,
            "byteLength": 144,
            "byteOffset": 24612,
            "name": "mesh6969_coord_bufferView",
            "target": 34962
        },
        {
            "buffer": 0,
            "byteLength": 144,
            "byteOffset": 24756,
            "name": "mesh6969_norm_bufferView",
            "target": 34962
        },
        {
            "buffer": 0,
            "byteLength": 120,
            "byteOffset": 24900,
            "name": "mesh6969_idx_bufferView",
            "target": 34963
        },
        {
            "buffer": 0,
            "byteLength": 120,
            "byteOffset": 25020,
            "name": "mesh6970_coord_bufferView",
            "target": 34962
        },
        {
            "buffer": 0,
            "byteLength": 120,
            "byteOffset": 25140,
            "name": "mesh6970_norm_bufferView",
            "target": 34962
        },
        {
            "buffer": 0,
            "byteLength": 96,
            "byteOffset": 25260,
            "name": "mesh6970_idx_bufferView",
            "target": 34963
        },
        {
            "buffer": 0,
            "byteLength": 120,
            "byteOffset": 25356,
            "name": "mesh6971_coord_bufferView",
            "target": 34962
        },
        {
            "buffer": 0,
            "byteLength": 120,
            "byteOffset": 25476,
            "name": "mesh6971_norm_bufferView",
            "target": 34962
        },
        {
            "buffer": 0,
            "byteLength": 96,
            "byteOffset": 25596,
            "name": "mesh6971_idx_bufferView",
            "target": 34963
        },
        {
            "buffer": 0,
            "byteLength": 324,
            "byteOffset": 25692,
            "name": "mesh6972_coord_bufferView",
            "target": 34962
        },
        {
            "buffer": 0,
            "byteLength": 324,
            "byteOffset": 26016,
            "name": "mesh6972_norm_bufferView",
            "target": 34962
        },
        {
            "buffer": 0,
            "byteLength": 408,
            "byteOffset": 26340,
            "name": "mesh6972_idx_bufferView",
            "target": 34963
        },
        {
            "buffer": 0,
            "byteLength": 156,
            "byteOffset": 26748,
            "name": "mesh6973_coord_bufferView",
            "target": 34962
        },
        {
            "buffer": 0,
            "byteLength": 156,
            "byteOffset": 26904,
            "name": "mesh6973_norm_bufferView",
            "target": 34962
        },
        {
            "buffer": 0,
            "byteLength": 132,
            "byteOffset": 27060,
            "name": "mesh6973_idx_bufferView",
            "target": 34963
        },
        {
            "buffer": 0,
            "byteLength": 192,
            "byteOffset": 27192,
            "name": "mesh6974_coord_bufferView",
            "target": 34962
        },
        {
            "buffer": 0,
            "byteLength": 192,
            "byteOffset": 27384,
            "name": "mesh6974_norm_bufferView",
            "target": 34962
        },
        {
            "buffer": 0,
            "byteLength": 168,
            "byteOffset": 27576,
            "name": "mesh6974_idx_bufferView",
            "target": 34963
        },
        {
            "buffer": 0,
            "byteLength": 48,
            "byteOffset": 27744,
            "name": "mesh6975_coord_bufferView",
            "target": 34962
        },
        {
            "buffer": 0,
            "byteLength": 48,
            "byteOffset": 27792,
            "name": "mesh6975_norm_bufferView",
            "target": 34962
        },
        {
            "buffer": 0,
            "byteLength": 24,
            "byteOffset": 27840,
            "name": "mesh6975_idx_bufferView",
            "target": 34963
        },
        {
            "buffer": 0,
            "byteLength": 312,
            "byteOffset": 27864,
            "name": "mesh6976_coord_bufferView",
            "target": 34962
        },
        {
            "buffer": 0,
            "byteLength": 312,
            "byteOffset": 28176,
            "name": "mesh6976_norm_bufferView",
            "target": 34962
        },
        {
            "buffer": 0,
            "byteLength": 396,
            "byteOffset": 28488,
            "name": "mesh6976_idx_bufferView",
            "target": 34963
        },
        {
            "buffer": 0,
            "byteLength": 120,
            "byteOffset": 28884,
            "name": "mesh6977_coord_bufferView",
            "target": 34962
        },
        {
            "buffer": 0,
            "byteLength": 120,
            "byteOffset": 29004,
            "name": "mesh6977_norm_bufferView",
            "target": 34962
        },
        {
            "buffer": 0,
            "byteLength": 96,
            "byteOffset": 29124,
            "name": "mesh6977_idx_bufferView",
            "target": 34963
        },
        {
            "buffer": 0,
            "byteLength": 336,
            "byteOffset": 29220,
            "name": "mesh6978_coord_bufferView",
            "target": 34962
        },
        {
            "buffer": 0,
            "byteLength": 336,
            "byteOffset": 29556,
            "name": "mesh6978_norm_bufferView",
            "target": 34962
        },
        {
            "buffer": 0,
            "byteLength": 420,
            "byteOffset": 29892,
            "name": "mesh6978_idx_bufferView",
            "target": 34963
        },
        {
            "buffer": 0,
            "byteLength": 384,
            "byteOffset": 30312,
            "name": "mesh6979_coord_bufferView",
            "target": 34962
        },
        {
            "buffer": 0,
            "byteLength": 384,
            "byteOffset": 30696,
            "name": "mesh6979_norm_bufferView",
            "target": 34962
        },
        {
            "buffer": 0,
            "byteLength": 384,
            "byteOffset": 31080,
            "name": "mesh6979_idx_bufferView",
            "target": 34963
        },
        {
            "buffer": 0,
            "byteLength": 960,
            "byteOffset": 31464,
            "name": "mesh6980_coord_bufferView",
            "target": 34962
        },
        {
            "buffer": 0,
            "byteLength": 960,
            "byteOffset": 32424,
            "name": "mesh6980_norm_bufferView",
            "target": 34962
        },
        {
            "buffer": 0,
            "byteLength": 1536,
            "byteOffset": 33384,
            "name": "mesh6980_idx_bufferView",
            "target": 34963
        },
        {
            "buffer": 0,
            "byteLength": 384,
            "byteOffset": 34920,
            "name": "mesh6981_coord_bufferView",
            "target": 34962
        },
        {
            "buffer": 0,
            "byteLength": 384,
            "byteOffset": 35304,
            "name": "mesh6981_norm_bufferView",
            "target": 34962
        },
        {
            "buffer": 0,
            "byteLength": 384,
            "byteOffset": 35688,
            "name": "mesh6981_idx_bufferView",
            "target": 34963
        },
        {
            "buffer": 0,
            "byteLength": 960,
            "byteOffset": 36072,
            "name": "mesh6982_coord_bufferView",
            "target": 34962
        },
        {
            "buffer": 0,
            "byteLength": 960,
            "byteOffset": 37032,
            "name": "mesh6982_norm_bufferView",
            "target": 34962
        },
        {
            "buffer": 0,
            "byteLength": 1536,
            "byteOffset": 37992,
            "name": "mesh6982_idx_bufferView",
            "target": 34963
        },
        {
            "buffer": 0,
            "byteLength": 2808,
            "byteOffset": 39528,
            "name": "mesh6983_coord_bufferView",
            "target": 34962
        },
        {
            "buffer": 0,
            "byteLength": 2808,
            "byteOffset": 42336,
            "name": "mesh6983_norm_bufferView",
            "target": 34962
        },
        {
            "buffer": 0,
            "byteLength": 3192,
            "byteOffset": 45144,
            "name": "mesh6983_idx_bufferView",
            "target": 34963
        },
        {
            "buffer": 0,
            "byteLength": 384,
            "byteOffset": 48336,
            "name": "mesh6984_coord_bufferView",
            "target": 34962
        },
        {
            "buffer": 0,
            "byteLength": 384,
            "byteOffset": 48720,
            "name": "mesh6984_norm_bufferView",
            "target": 34962
        },
        {
            "buffer": 0,
            "byteLength": 384,
            "byteOffset": 49104,
            "name": "mesh6984_idx_bufferView",
            "target": 34963
        },
        {
            "buffer": 0,
            "byteLength": 960,
            "byteOffset": 49488,
            "name": "mesh6985_coord_bufferView",
            "target": 34962
        },
        {
            "buffer": 0,
            "byteLength": 960,
            "byteOffset": 50448,
            "name": "mesh6985_norm_bufferView",
            "target": 34962
        },
        {
            "buffer": 0,
            "byteLength": 1536,
            "byteOffset": 51408,
            "name": "mesh6985_idx_bufferView",
            "target": 34963
        }
    ],
    "buffers": [
        {
            "byteLength": 52944,
            "name": "Total_buffer",
            "uri": "data:application/octet-stream;base64,"
        }
    ],
    "extensionsUsed": [
        "PTC_onshape_metadata"
    ],
    "materials": [
        {
            "doubleSided": true,
            "name": "0.498039_0.498039_0.498039_0.000000_0.000000",
            "pbrMetallicRoughness": {
                "baseColorFactor": [
                    0.49803921580314636,
                    0.49803921580314636,
                    0.49803921580314636,
                    1.0
                ],
                "metallicFactor": 0.0
            }
        },
        {
            "doubleSided": true,
            "name": "1.000000_0.956863_0.886275_0.000000_0.000000",
            "pbrMetallicRoughness": {
                "baseColorFactor": [
                    1.0,
                    0.95686274766922,
                    0.886274516582489,
                    1.0
                ],
                "metallicFactor": 0.0
            }
        },
        {
            "doubleSided": true,
            "name": "0.086275_0.215686_0.396078_0.000000_0.000000",
            "pbrMetallicRoughness": {
                "baseColorFactor": [
                    0.08627451211214066,
                    0.21568627655506134,
                    0.3960784375667572,
                    1.0
                ],
                "metallicFactor": 0.0
            }
        },
        {
            "doubleSided": true,
            "name": "0.101961_0.101961_0.101961_0.000000_0.000000",
            "pbrMetallicRoughness": {
                "baseColorFactor": [
                    0.10196078568696976,
                    0.10196078568696976,
                    0.10196078568696976,
                    1.0
                ],
                "metallicFactor": 0.0
            }
        },
        {
            "doubleSided": true,
            "name": "1.000000_1.000000_1.000000_0.000000_0.000000",
            "pbrMetallicRoughness": {
                "metallicFactor": 0.0
            }
        },
        {
            "doubleSided": true,
            "name": "1.000000_0.949020_0.894118_0.000000_0.000000",
            "pbrMetallicRoughness": {
                "baseColorFactor": [
                    1.0,
                    0.9490196108818054,
                    0.8941176533699036,
                    1.0
                ],
                "metallicFactor": 0.0
            }
        },
        {
            "doubleSided": true,
            "name": "0.000000_0.000000_0.541176_0.000000_0.000000",
            "pbrMetallicRoughness": {
                "baseColorFactor": [
                    0.0,
                    0.0,
                    0.5411764979362488,
                    1.0
                ],
                "metallicFactor": 0.0
            }
        },
        {
            "doubleSided": true,
            "name": "1.000000_0.756863_0.564706_0.000000_0.000000",
            "pbrMetallicRoughness": {
                "baseColorFactor": [
                    1.0,
                    0.7568627595901489,
                    0.5647059082984924,
                    1.0
                ],
                "metallicFactor": 0.0
            }
        },
        {
            "doubleSided": true,
            "name": "0.827451_0.666667_0.129412_0.000000_0.000000",
            "pbrMetallicRoughness": {
                "baseColorFactor": [
                    0.8274509906768799,
                    0.6666666865348816,
                    0.12941177189350128,
                    1.0
                ],
                "metallicFactor": 0.0
            }
        },
        {
            "doubleSided": true,
            "name": "0.741176_0.627451_0.023529_0.000000_0.000000",
            "pbrMetallicRoughness": {
                "baseColorFactor": [
                    0.7411764860153198,
                    0.6274510025978088,
                    0.0235294122248888,
                    1.0
                ],
                "metallicFactor": 0.0
            }
        },
        {
            "doubleSided": true,
            "name": "0.549020_0.549020_0.921569_0.000000_0.000000",
            "pbrMetallicRoughness": {
                "baseColorFactor": [
                    0.5490196347236633,
                    0.5490196347236633,
                    0.9215686321258545,
                    1.0
                ],
                "metallicFactor": 0.0
            }
        },
        {
            "doubleSided": true,
            "name": "0.811765_0.858824_0.898039_0.000000_0.000000",
            "pbrMetallicRoughness": {
                "baseColorFactor": [
                    0.8117647171020508,
                    0.8588235378265381,
                    0.8980392217636108,
                    1.0
                ],
                "metallicFactor": 0.0
            }
        },
        {
            "doubleSided": true,
            "name": "0.647059_0.647059_0.647059_0.000000_0.000000",
            "pbrMetallicRoughness": {
                "baseColorFactor": [
                    0.6470588445663452,
                    0.6470588445663452,
                    0.6470588445663452,
                    1.0
                ],
                "metallicFactor": 0.0
            }
        },
        {
            "doubleSided": true,
            "name": "0.800000_0.800000_0.800000_0.000000_0.000000",
            "pbrMetallicRoughness": {
                "baseColorFactor": [
                    0.800000011920929,
                    0.800000011920929,
                    0.800000011920929,
                    1.0
                ],
                "metallicFactor": 0.0
            }
        },
        {
            "doubleSided": true,
            "name": "0.878431_0.870588_0.870588_0.000000_0.000000",
            "pbrMetallicRoughness": {
                "baseColorFactor": [
                    0.8784313797950745,
                    0.8705882430076599,
                    0.8705882430076599,
                    1.0
                ],
                "metallicFactor": 0.0
            }
        },
        {
            "doubleSided": true,
            "name": "0.254902_0.254902_0.254902_0.000000_0.000000",
            "pbrMetallicRoughness": {
                "baseColorFactor": [
                    0.2549019753932953,
                    0.2549019753932953,
                    0.2549019753932953,
                    1.0
                ],
                "metallicFactor": 0.0
            }
        },
        {
            "doubleSided": true,
            "name": "0.019608_0.011765_0.145098_0.000000_0.000000",
            "pbrMetallicRoughness": {
                "baseColorFactor": [
                    0.019607843831181526,
                    0.0117647061124444,
                    0.14509804546833038,
                    1.0
                ],
                "metallicFactor": 0.0
            }
        },
        {
            "doubleSided": true,
            "name": "0.619608_0.615686_0.615686_0.000000_0.000000",
            "pbrMetallicRoughness": {
                "baseColorFactor": [
                    0.6196078658103943,
                    0.615686297416687,
                    0.615686297416687,
                    1.0
                ],
                "metallicFactor": 0.0
            }
        },
        {
            "doubleSided": true,
            "name": "0.192157_0.188235_0.188235_0.000000_0.000000",
            "pbrMetallicRoughness": {
                "baseColorFactor": [
                    0.1921568661928177,
                    0.1882352977991104,
                    0.1882352977991104,
                    1.0
                ],
                "metallicFactor": 0.0
            }
        },
        {
            "doubleSided": true,
            "name": "0.533333_0.533333_0.533333_0.000000_0.000000",
            "pbrMetallicRoughness": {
                "baseColorFactor": [
                    0.5333333611488342,
                    0.5333333611488342,
                    0.5333333611488342,
                    1.0
                ],
                "metallicFactor": 0.0
            }
        },
        {
            "doubleSided": true,
            "name": "0.494118_0.494118_0.525490_0.000000_0.000000",
            "pbrMetallicRoughness": {
                "baseColorFactor": [
                    0.4941176474094391,
                    0.4941176474094391,
                    0.5254902243614197,
                    1.0
                ],
                "metallicFactor": 0.0
            }
        },
        {
            "doubleSided": true,
            "name": "0.796078_0.796078_0.796078_0.000000_0.000000",
            "pbrMetallicRoughness": {
                "baseColorFactor": [
                    0.7960784435272217,
                    0.7960784435272217,
                    0.7960784435272217,
                    1.0
                ],
                "metallicFactor": 0.0
            }
        },
        {
            "doubleSided": true,
            "name": "0.937255_0.925490_0.854902_0.000000_0.000000",
            "pbrMetallicRoughness": {
                "baseColorFactor": [
                    0.9372549057006836,
                    0.9254902005195618,
                    0.8549019694328308,
                    1.0
                ],
                "metallicFactor": 0.0
            }
        },
        {
            "doubleSided": true,
            "name": "0.301961_0.301961_0.301961_0.000000_0.000000",
            "pbrMetallicRoughness": {
                "baseColorFactor": [
                    0.3019607961177826,
                    0.3019607961177826,
                    0.3019607961177826,
                    1.0
                ],
                "metallicFactor": 0.0
            }
        },
        {
            "doubleSided": true,
            "name": "0.807843_0.807843_0.807843_0.000000_0.000000",
            "pbrMetallicRoughness": {
                "baseColorFactor": [
                    0.8078431487083435,
                    0.8078431487083435,
                    0.8078431487083435,
                    1.0
                ],
                "metallicFactor": 0.0
            }
        },
        {
            "doubleSided": true,
            "name": "0.196078_0.439216_0.078431_0.000000_0.000000",
            "pbrMetallicRoughness": {
                "baseColorFactor": [
                    0.19607843458652496,
                    0.43921568989753723,
                    0.0784313753247261,
                    1.0
                ],
                "metallicFactor": 0.0
            }
        },
        {
            "doubleSided": true,
            "name": "0.282353_0.549020_0.160784_0.000000_0.250980",
            "pbrMetallicRoughness": {
                "baseColorFactor": [
                    0.2823529541492462,
                    0.5490196347236633,
                    0.16078431904315948,
                    0.7490196228027344
                ],
                "metallicFactor": 0.0
            }
        },
        {
            "doubleSided": true,
            "name": "0.000000_0.000000_0.000000_0.000000_0.000000",
            "pbrMetallicRoughness": {
                "baseColorFactor": [
                    0.0,
                    0.0,
                    0.0,
                    1.0
                ],
                "metallicFactor": 0.0
            }
        },
        {
            "doubleSided": true,
            "name": "0.250980_0.250980_0.250980_0.000000_0.000000",
            "pbrMetallicRoughness": {
                "baseColorFactor": [
                    0.250980406999588,
                    0.250980406999588,
                    0.250980406999588,
                    1.0
                ],
                "metallicFactor": 0.0
            }
        },
        {
            "doubleSided": true,
            "name": "0.000000_0.501961_0.000000_0.000000_0.000000",
            "pbrMetallicRoughness": {
                "baseColorFactor": [
                    0.0,
                    0.501960813999176,
                    0.0,
                    1.0
                ],
                "metallicFactor": 0.0
            }
        },
        {
            "doubleSided": true,
            "name": "0.752941_0.752941_0.752941_0.000000_0.000000",
            "pbrMetallicRoughness": {
                "baseColorFactor": [
                    0.7529411911964417,
                    0.7529411911964417,
                    0.7529411911964417,
                    1.0
                ],
                "metallicFactor": 0.0
            }
        },
        {
            "doubleSided": true,
            "name": "0.796078_0.823529_0.937255_0.000000_0.000000",
            "pbrMetallicRoughness": {
                "baseColorFactor": [
                    0.7960784435272217,
                    0.8235294222831726,
                    0.9372549057006836,
                    1.0
                ],
                "metallicFactor": 0.0
            }
        },
        {
            "doubleSided": true,
            "name": "0.960784_0.960784_0.964706_0.000000_0.000000",
            "pbrMetallicRoughness": {
                "baseColorFactor": [
                    0.9607843160629272,
                    0.9607843160629272,
                    0.9647058844566345,
                    1.0
                ],
                "metallicFactor": 0.0
            }
        },
        {
            "doubleSided": true,
            "name": "0.952941_0.796078_0.486275_0.000000_0.000000",
            "pbrMetallicRoughness": {
                "baseColorFactor": [
                    0.9529411792755127,
                    0.7960784435272217,
                    0.48627451062202454,
                    1.0
                ],
                "metallicFactor": 0.0
            }
        },
        {
            "doubleSided": true,
            "name": "0.627451_0.627451_0.627451_0.000000_0.000000",
            "pbrMetallicRoughness": {
                "baseColorFactor": [
                    0.6274510025978088,
                    0.6274510025978088,
                    0.6274510025978088,
                    1.0
                ],
                "metallicFactor": 0.0
            }
        },
        {
            "doubleSided": true,
            "name": "1.000000_1.000000_0.000000_0.000000_0.000000",
            "pbrMetallicRoughness": {
                "baseColorFactor": [
                    1.0,
                    1.0,
                    0.0,
                    1.0
                ],
                "metallicFactor": 0.0
            }
        },
        {
            "doubleSided": true,
            "name": "1.000000_0.000000_0.000000_0.000000_0.000000",
            "pbrMetallicRoughness": {
                "baseColorFactor": [
                    1.0,
                    0.0,
                    0.0,
                    1.0
                ],
                "metallicFactor": 0.0
            }
        },
        {
            "doubleSided": true,
            "name": "0.145098_0.462745_0.156863_0.000000_0.000000",
            "pbrMetallicRoughness": {
                "baseColorFactor": [
                    0.14509804546833038,
                    0.4627451002597809,
                    0.1568627506494522,
                    1.0
                ],
                "metallicFactor": 0.0
            }
        },
        {
            "doubleSided": true,
            "name": "0.964706_0.964706_0.952941_0.000000_0.000000",
            "pbrMetallicRoughness": {
                "baseColorFactor": [
                    0.9647058844566345,
                    0.9647058844566345,
                    0.9529411792755127,
                    1.0
                ],
                "metallicFactor": 0.0
            }
        },
        {
            "doubleSided": true,
            "name": "0.098039_0.098039_0.098039_0.000000_0.000000",
            "pbrMetallicRoughness": {
                "baseColorFactor": [
                    0.09803921729326248,
                    0.09803921729326248,
                    0.09803921729326248,
                    1.0
                ],
                "metallicFactor": 0.0
            }
        },
        {
            "doubleSided": true,
            "name": "0.000000_0.235294_1.000000_0.000000_0.000000",
            "pbrMetallicRoughness": {
                "baseColorFactor": [
                    0.0,
                    0.23529411852359772,
                    1.0,
                    1.0
                ],
                "metallicFactor": 0.0
            }
        },
        {
            "doubleSided": true,
            "name": "0.596078_0.121569_0.674510_0.000000_0.000000",
            "pbrMetallicRoughness": {
                "baseColorFactor": [
                    0.5960784554481506,
                    0.12156862765550613,
                    0.6745098233222961,
                    1.0
                ],
                "metallicFactor": 0.0
            }
        },
        {
            "doubleSided": true,
            "name": "1.000000_1.000000_1.000000_0.000000_0.600000",
            "pbrMetallicRoughness": {
                "baseColorFactor": [
                    1.0,
                    1.0,
                    1.0,
                    0.4000000059604645
                ],
                "metallicFactor": 0.0
            }
        },
        {
            "doubleSided": true,
            "name": "0.388235_0.400000_0.858824_0.000000_0.400000",
            "pbrMetallicRoughness": {
                "baseColorFactor": [
                    0.38823530077934265,
                    0.4000000059604645,
                    0.8588235378265381,
                    0.6000000238418579
                ],
                "metallicFactor": 0.0
            }
        },
        {
            "doubleSided": true,
            "name": "0.388235_0.858824_0.388235_0.000000_0.400000",
            "pbrMetallicRoughness": {
                "baseColorFactor": [
                    0.38823530077934265,
                    0.8588235378265381,
                    0.38823530077934265,
                    0.6000000238418579
                ],
                "metallicFactor": 0.0
            }
        },
        {
            "doubleSided": true,
            "name": "0.866667_0.909804_1.000000_0.000000_0.000000",
            "pbrMetallicRoughness": {
                "baseColorFactor": [
                    0.8666666746139526,
                    0.9098039269447327,
                    1.0,
                    1.0
                ],
                "metallicFactor": 0.0
            }
        },
        {
            "doubleSided": true,
            "name": "0.666667_0.701961_0.768627_0.000000_0.000000",
            "pbrMetallicRoughness": {
                "baseColorFactor": [
                    0.6666666865348816,
                    0.7019608020782471,
                    0.7686274647712708,
                    1.0
                ],
                "metallicFactor": 0.0
            }
        },
        {
            "doubleSided": true,
            "name": "0.501961_0.501961_0.501961_0.000000_0.000000",
            "pbrMetallicRoughness": {
                "baseColorFactor": [
                    0.501960813999176,
                    0.501960813999176,
                    0.501960813999176,
                    1.0
                ],
                "metallicFactor": 0.0
            }
        },
        {
            "doubleSided": true,
            "name": "0.925490_0.815686_0.439216_0.000000_0.000000",
            "pbrMetallicRoughness": {
                "baseColorFactor": [
                    0.9254902005195618,
                    0.8156862854957581,
                    0.43921568989753723,
                    1.0
                ],
                "metallicFactor": 0.0
            }
        },
        {
            "doubleSided": true,
            "name": "0.282353_0.662745_0.325490_0.000000_0.000000",
            "pbrMetallicRoughness": {
                "baseColorFactor": [
                    0.2823529541492462,
                    0.6627451181411743,
                    0.32549020648002625,
                    1.0
                ],
                "metallicFactor": 0.0
            }
        }
    ],
    "meshes": [
        {
            "name": "mesh6954_mesh",
            "primitives": [
                {
                    "attributes": {
                        "NORMAL": 1,
                        "POSITION": 0
                    },
                    "indices": 2,
                    "material": 40
                }
            ]
        },
        {
            "name": "mesh6955_mesh",
            "primitives": [
                {
                    "attributes": {
                        "NORMAL": 4,
                        "POSITION": 3
                    },
                    "indices": 5,
                    "material": 40
                }
            ]
        },
        {
            "name": "mesh6956_mesh",
            "primitives": [
                {
                    "attributes": {
                        "NORMAL": 7,
                        "POSITION": 6
                    },
                    "indices": 8,
                    "material": 40
                }
            ]
        },
        {
            "name": "mesh6957_mesh",
            "primitives": [
                {
                    "attributes": {
                        "NORMAL": 10,
                        "POSITION": 9
                    },
                    "indices": 11,
                    "material": 40
                }
            ]
        },
        {
            "name": "mesh6958_mesh",
            "primitives": [
                {
                    "attributes": {
                        "NORMAL": 13,
                        "POSITION": 12
                    },
                    "indices": 14,
                    "material": 40
                }
            ]
        },
        {
            "name": "mesh6959_mesh",
            "primitives": [
                {
                    "attributes": {
                        "NORMAL": 16,
                        "POSITION": 15
                    },
                    "indices": 17,
                    "material": 40
                }
            ]
        },
        {
            "name": "mesh6960_mesh",
            "primitives": [
                {
                    "attributes": {
                        "NORMAL": 19,
                        "POSITION": 18
                    },
                    "indices": 20,
                    "material": 40
                }
            ]
        },
        {
            "name": "mesh6961_mesh",
            "primitives": [
                {
                    "attributes": {
                        "NORMAL": 22,
                        "POSITION": 21
                    },
                    "indices": 23,
                    "material": 40
                }
            ]
        },
        {
            "name": "mesh6962_mesh",
            "primitives": [
                {
                    "attributes": {
                        "NORMAL": 25,
                        "POSITION": 24
                    },
                    "indices": 26,
                    "material": 40
                }
            ]
        },
        {
            "name": "mesh6963_mesh",
            "primitives": [
                {
                    "attributes": {
                        "NORMAL": 28,
                        "POSITION": 27
                    },
                    "indices": 29,
                    "material": 40
                }
            ]
        },
        {
            "name": "mesh6964_mesh",
            "primitives": [
                {
                    "attributes": {
                        "NORMAL": 31,
                        "POSITION": 30
                    },
                    "indices": 32,
                    "material": 40
                }
            ]
        },
        {
            "name": "mesh6965_mesh",
            "primitives": [
                {
                    "attributes": {
                        "NORMAL": 34,
                        "POSITION": 33
                    },
                    "indices": 35,
                    "material": 40
                }
            ]
        },
        {
            "name": "mesh6966_mesh",
            "primitives": [
                {
                    "attributes": {
                        "NORMAL": 37,
                        "POSITION": 36
                    },
                    "indices": 38,
                    "material": 40
                }
            ]
        },
        {
            "name": "mesh6967_mesh",
            "primitives": [
                {
                    "attributes": {
                        "NORMAL": 40,
                        "POSITION": 39
                    },
                    "indices": 41,
                    "material": 40
                }
            ]
        },
        {
            "name": "mesh6968_mesh",
            "primitives": [
                {
                    "attributes": {
                        "NORMAL": 43,
                        "POSITION": 42
                    },
                    "indices": 44,
                    "material": 40
                }
            ]
        },
        {
            "name": "mesh6969_mesh",
            "primitives": [
                {
                    "attributes": {
                        "NORMAL": 46,
                        "POSITION": 45
                    },
                    "indices": 47,
                    "material": 40
                }
            ]
        },
        {
            "name": "mesh6970_mesh",
            "primitives": [
                {
                    "attributes": {
                        "NORMAL": 49,
                        "POSITION": 48
                    },
                    "indices": 50,
                    "material": 40
                }
            ]
        },
        {
            "name": "mesh6971_mesh",
            "primitives": [
                {
                    "attributes": {
                        "NORMAL": 52,
                        "POSITION": 51
                    },
                    "indices": 53,
                    "material": 40
                }
            ]
        },
        {
            "name": "mesh6972_mesh",
            "primitives": [
                {
                    "attributes": {
                        "NORMAL": 55,
                        "POSITION": 54
                    },
                    "indices": 56,
                    "material": 40
                }
            ]
        },
        {
            "name": "mesh6973_mesh",
            "primitives": [
                {
                    "attributes": {
                        "NORMAL": 58,
                        "POSITION": 57
                    },
                    "indices": 59,
                    "material": 40
                }
            ]
        },
        {
            "name": "mesh6974_mesh",
            "primitives": [
                {
                    "attributes": {
                        "NORMAL": 61,
                        "POSITION": 60
                    },
                    "indices": 62,
                    "material": 40
                }
            ]
        },
        {
            "name": "mesh6975_mesh",
            "primitives": [
                {
                    "attributes": {
                        "NORMAL": 64,
                        "POSITION": 63
                    },
                    "indices": 65,
                    "material": 40
                }
            ]
        },
        {
            "name": "mesh6976_mesh",
            "primitives": [
                {
                    "attributes": {
                        "NORMAL": 67,
                        "POSITION": 66
                    },
                    "indices": 68,
                    "material": 40
                }
            ]
        },
        {
            "name": "mesh6977_mesh",
            "primitives": [
                {
                    "attributes": {
                        "NORMAL": 70,
                        "POSITION": 69
                    },
                    "indices": 71,
                    "material": 40
                }
            ]
        },
        {
            "name": "mesh6978_mesh",
            "primitives": [
                {
                    "attributes": {
                        "NORMAL": 73,
                        "POSITION": 72
                    },
                    "indices": 74,
                    "material": 40
                }
            ]
        },
        {
            "name": "mesh6979_mesh",
            "primitives": [
                {
                    "attributes": {
                        "NORMAL": 76,
                        "POSITION": 75
                    },
                    "indices": 77,
                    "material": 40
                }
            ]
        },
        {
            "name": "mesh6980_mesh",
            "primitives": [
                {
                    "attributes": {
                        "NORMAL": 79,
                        "POSITION": 78
                    },
                    "indices": 80,
                    "material": 40
                }
            ]
        },
        {
            "name": "mesh6981_mesh",
            "primitives": [
                {
                    "attributes": {
                        "NORMAL": 82,
                        "POSITION": 81
                    },
                    "indices": 83,
                    "material": 40
                }
            ]
        },
        {
            "name": "mesh6982_mesh",
            "primitives": [
                {
                    "attributes": {
                        "NORMAL": 85,
                        "POSITION": 84
                    },
                    "indices": 86,
                    "material": 40
                }
            ]
        },
        {
            "name": "mesh6983_mesh",
            "primitives": [
                {
                    "attributes": {
                        "NORMAL": 88,
                        "POSITION": 87
                    },
                    "indices": 89,
                    "material": 40
                }
            ]
        },
        {
            "name": "mesh6984_mesh",
            "primitives": [
                {
                    "attributes": {
                        "NORMAL": 91,
                        "POSITION": 90
                    },
                    "indices": 92,
                    "material": 40
                }
            ]
        },
        {
            "name": "mesh6985_mesh",
            "primitives": [
                {
                    "attributes": {
                        "NORMAL": 94,
                        "POSITION": 93
                    },
                    "indices": 95,
                    "material": 40
                }
            ]
        }
    ],
    "nodes": [
        {
            "mesh": 0,
            "name": "mesh6954"
        },
        {
            "mesh": 1,
            "name": "mesh6955"
        },
        {
            "mesh": 2,
            "name": "mesh6956"
        },
        {
            "mesh": 3,
            "name": "mesh6957"
        },
        {
            "mesh": 4,
            "name": "mesh6958"
        },
        {
            "mesh": 5,
            "name": "mesh6959"
        },
        {
            "mesh": 6,
            "name": "mesh6960"
        },
        {
            "mesh": 7,
            "name": "mesh6961"
        },
        {
            "mesh": 8,
            "name": "mesh6962"
        },
        {
            "mesh": 9,
            "name": "mesh6963"
        },
        {
            "mesh": 10,
            "name": "mesh6964"
        },
        {
            "mesh": 11,
            "name": "mesh6965"
        },
        {
            "mesh": 12,
            "name": "mesh6966"
        },
        {
            "mesh": 13,
            "name": "mesh6967"
        },
        {
            "mesh": 14,
            "name": "mesh6968"
        },
        {
            "mesh": 15,
            "name": "mesh6969"
        },
        {
            "mesh": 16,
            "name": "mesh6970"
        },
        {
            "mesh": 17,
            "name": "mesh6971"
        },
        {
            "mesh": 18,
            "name": "mesh6972"
        },
        {
            "mesh": 19,
            "name": "mesh6973"
        },
        {
            "mesh": 20,
            "name": "mesh6974"
        },
        {
            "mesh": 21,
            "name": "mesh6975"
        },
        {
            "mesh": 22,
            "name": "mesh6976"
        },
        {
            "mesh": 23,
            "name": "mesh6977"
        },
        {
            "mesh": 24,
            "name": "mesh6978"
        },
        {
            "mesh": 25,
            "name": "mesh6979"
        },
        {
            "mesh": 26,
            "name": "mesh6980"
        },
        {
            "mesh": 27,
            "name": "mesh6981"
        },
        {
            "mesh": 28,
            "name": "mesh6982"
        },
        {
            "mesh": 29,
            "name": "mesh6983"
        },
        {
            "mesh": 30,
            "name": "mesh6984"
        },
        {
            "mesh": 31,
            "name": "mesh6985"
        }
    ],
    "scene": 0,
    "scenes": [
        {
            "name": "Root",
            "nodes": [
                0,
                1,
                2,
                3,
                4,
                5,
                6,
                7,
                8,
                9,
                10,
                11,
                12,
                13,
                14,
                15,
                16,
                17,
                18,
                19,
                20,
                21,
                22,
                23,
                24,
                25,
                26,
                27,
                28,
                29,
                30,
                31
            ]
        }
    ]
}